<?xml version="1.0" encoding="UTF-8"?>
<!DOCTYPE svg PUBLIC "-//W3C//DTD SVG 1.1//EN" "http://www.w3.org/Graphics/SVG/1.1/DTD/svg11.dtd">
<svg xmlns="http://www.w3.org/2000/svg" version="1.1" width="200px" height="40px" style="shape-rendering:geometricPrecision; text-rendering:geometricPrecision; image-rendering:optimizeQuality; fill-rule:evenodd; clip-rule:evenodd" xmlns:xlink="http://www.w3.org/1999/xlink">
<g><path style="opacity:0.006" fill="#363636" d="M 26.5,6.5 C 24.5695,6.22945 23.2362,5.22945 22.5,3.5C 22.369,2.76109 22.5357,2.09442 23,1.5C 24,2.83333 25,2.83333 26,1.5C 26.4935,3.13414 26.6602,4.80081 26.5,6.5 Z"/></g>
<g><path style="opacity:0.004" fill="#383938" d="M 30.5,1.5 C 31.8333,2.16667 31.8333,2.16667 30.5,1.5 Z"/></g>
<g><path style="opacity:0.004" fill="#373837" d="M 33.5,1.5 C 34.8333,2.16667 34.8333,2.16667 33.5,1.5 Z"/></g>
<g><path style="opacity:0.004" fill="#383838" d="M 41.5,2.5 C 40.8333,2.5 40.5,2.83333 40.5,3.5C 39.9569,3.44001 39.6236,3.10667 39.5,2.5C 40.2565,1.22671 40.9232,1.22671 41.5,2.5 Z"/></g>
<g><path style="opacity:0.004" fill="#333433" d="M 52.5,1.5 C 53.8333,2.16667 53.8333,2.16667 52.5,1.5 Z"/></g>
<g><path style="opacity:0.004" fill="#353635" d="M 67.5,1.5 C 68.8333,2.16667 68.8333,2.16667 67.5,1.5 Z"/></g>
<g><path style="opacity:0.006" fill="#373737" d="M 71.5,2.5 C 71.3284,3.49162 71.6618,4.15829 72.5,4.5C 73.2905,5.40128 74.2905,6.06795 75.5,6.5C 74.828,7.26739 73.9947,7.93406 73,8.5C 71.8179,6.65639 70.6512,4.82306 69.5,3C 69.6834,1.31643 70.3501,1.14976 71.5,2.5 Z"/></g>
<g><path style="opacity:0.004" fill="#3d3d3d" d="M 71.5,2.5 C 71.8966,1.47498 72.5632,1.30831 73.5,2C 72.9056,2.46434 72.2389,2.63101 71.5,2.5 Z"/></g>
<g><path style="opacity:0.004" fill="#343435" d="M 76.5,2.5 C 76.8966,1.47498 77.5632,1.30831 78.5,2C 77.9056,2.46434 77.2389,2.63101 76.5,2.5 Z"/></g>
<g><path style="opacity:0.004" fill="#373837" d="M 79.5,1.5 C 80.8333,2.16667 80.8333,2.16667 79.5,1.5 Z"/></g>
<g><path style="opacity:0.004" fill="#363636" d="M 85.5,2.5 C 84.8333,2.5 84.5,2.83333 84.5,3.5C 83.7109,3.21719 83.0442,2.71719 82.5,2C 83.7494,1.25988 84.7494,1.42654 85.5,2.5 Z"/></g>
<g><path style="opacity:0.004" fill="#353535" d="M 87.5,3.5 C 87.369,2.76109 87.5357,2.09442 88,1.5C 88.6917,2.43677 88.525,3.10343 87.5,3.5 Z"/></g>
<g><path style="opacity:0.004" fill="#333433" d="M 99.5,1.5 C 100.833,2.16667 100.833,2.16667 99.5,1.5 Z"/></g>
<g><path style="opacity:0.004" fill="#353635" d="M 114.5,2.5 C 113.833,1.16667 113.833,1.16667 114.5,2.5 Z"/></g>
<g><path style="opacity:0.004" fill="#373837" d="M 116.5,1.5 C 117.833,2.16667 117.833,2.16667 116.5,1.5 Z"/></g>
<g><path style="opacity:0.004" fill="#383938" d="M 122.5,2.5 C 123.167,1.16667 123.833,1.16667 124.5,2.5C 123.833,2.5 123.167,2.5 122.5,2.5 Z"/></g>
<g><path style="opacity:0.004" fill="#363736" d="M 126.5,1.5 C 127.833,2.16667 127.833,2.16667 126.5,1.5 Z"/></g>
<g><path style="opacity:0.004" fill="#373737" d="M 132.5,2.5 C 132.56,1.95691 132.893,1.62358 133.5,1.5C 134.773,2.2565 134.773,2.92317 133.5,3.5C 133.5,2.83333 133.167,2.5 132.5,2.5 Z"/></g>
<g><path style="opacity:0.004" fill="#343534" d="M 135.5,1.5 C 136.833,2.16667 136.833,2.16667 135.5,1.5 Z"/></g>
<g><path style="opacity:0.004" fill="#313231" d="M 148.5,1.5 C 149.833,2.16667 149.833,2.16667 148.5,1.5 Z"/></g>
<g><path style="opacity:0.004" fill="#343534" d="M 156.5,1.5 C 157.833,2.16667 157.833,2.16667 156.5,1.5 Z"/></g>
<g><path style="opacity:0.004" fill="#343534" d="M 159.5,3.5 C 159.167,3.5 158.833,3.5 158.5,3.5C 158.833,0.833333 159.167,0.833333 159.5,3.5 Z"/></g>
<g><path style="opacity:0.004" fill="#363636" d="M 162.5,2.5 C 162.897,1.47498 163.563,1.30831 164.5,2C 163.906,2.46434 163.239,2.63101 162.5,2.5 Z"/></g>
<g><path style="opacity:0.004" fill="#383838" d="M 168.5,3.5 C 167.227,2.92317 167.227,2.2565 168.5,1.5C 169.463,1.96983 169.463,2.6365 168.5,3.5 Z"/></g>
<g><path style="opacity:0.004" fill="#393a38" d="M 171.5,1.5 C 172.833,2.16667 172.833,2.16667 171.5,1.5 Z"/></g>
<g><path style="opacity:0.261" fill="#666666" d="M 20.5,5.5 C 20.1583,6.33825 19.4916,6.67158 18.5,6.5C 16.2543,5.54483 13.921,4.87816 11.5,4.5C 11.5,3.5 11.5,2.5 11.5,1.5C 14.9433,2.05923 17.9433,3.39256 20.5,5.5 Z"/></g>
<g><path style="opacity:0.004" fill="#383938" d="M 29.5,3.5 C 28.8333,2.16667 28.8333,2.16667 29.5,3.5 Z"/></g>
<g><path style="opacity:0.004" fill="#343534" d="M 41.5,2.5 C 42.1667,2.5 42.5,2.83333 42.5,3.5C 42.1667,3.16667 41.8333,2.83333 41.5,2.5 Z"/></g>
<g><path style="opacity:0.086" fill="#747474" d="M 58.5,1.5 C 61.5447,2.27938 64.2114,3.61271 66.5,5.5C 66.1583,6.33825 65.4916,6.67158 64.5,6.5C 62.4079,4.83051 60.4079,3.16384 58.5,1.5 Z"/></g>
<g><path style="opacity:0.004" fill="#383938" d="M 76.5,2.5 C 75.8333,3.16667 75.8333,3.16667 76.5,2.5 Z"/></g>
<g><path style="opacity:0.004" fill="#383938" d="M 85.5,2.5 C 86.1667,2.5 86.5,2.83333 86.5,3.5C 86.1667,3.16667 85.8333,2.83333 85.5,2.5 Z"/></g>
<g><path style="opacity:0.004" fill="#333433" d="M 114.5,2.5 C 115.167,2.5 115.5,2.83333 115.5,3.5C 115.167,3.16667 114.833,2.83333 114.5,2.5 Z"/></g>
<g><path style="opacity:0.004" fill="#383838" d="M 121.5,3.5 C 120.791,4.40397 119.791,4.73731 118.5,4.5C 119.105,2.51877 120.105,2.18543 121.5,3.5 Z"/></g>
<g><path style="opacity:0.004" fill="#373837" d="M 122.5,2.5 C 121.833,3.16667 121.833,3.16667 122.5,2.5 Z"/></g>
<g><path style="opacity:0.004" fill="#313233" d="M 124.5,2.5 C 125.833,3.16667 125.833,3.16667 124.5,2.5 Z"/></g>
<g><path style="opacity:0.004" fill="#464746" d="M 153.5,2.5 C 154.833,3.16667 154.833,3.16667 153.5,2.5 Z"/></g>
<g><path style="opacity:0.004" fill="#363736" d="M 160.5,2.5 C 161.833,3.16667 161.833,3.16667 160.5,2.5 Z"/></g>
<g><path style="opacity:0.004" fill="#333434" d="M 171.5,2.5 C 170.833,3.16667 170.833,3.16667 171.5,2.5 Z"/></g>
<g><path style="opacity:0.004" fill="#363736" d="M 175.5,2.5 C 176.525,2.89657 176.692,3.56323 176,4.5C 175.536,3.90558 175.369,3.23891 175.5,2.5 Z"/></g>
<g><path style="opacity:0.004" fill="#373837" d="M 177.5,2.5 C 178.833,3.16667 178.833,3.16667 177.5,2.5 Z"/></g>
<g><path style="opacity:0.004" fill="#3d3e3d" d="M 22.5,3.5 C 21.8333,4.16667 21.8333,4.16667 22.5,3.5 Z"/></g>
<g><path style="opacity:0.004" fill="#363736" d="M 28.5,3.5 C 27.8333,4.16667 27.8333,4.16667 28.5,3.5 Z"/></g>
<g><path style="opacity:0.004" fill="#343534" d="M 29.5,3.5 C 30.8333,4.16667 30.8333,4.16667 29.5,3.5 Z"/></g>
<g><path style="opacity:0.004" fill="#2a2b2a" d="M 40.5,3.5 C 40.8333,3.5 41.1667,3.5 41.5,3.5C 41.3147,4.17014 40.9813,4.17014 40.5,3.5 Z"/></g>
<g><path style="opacity:0.004" fill="#333433" d="M 42.5,3.5 C 43.1667,3.5 43.5,3.83333 43.5,4.5C 43.1667,4.16667 42.8333,3.83333 42.5,3.5 Z"/></g>
<g><path style="opacity:0.612" fill="#585858" d="M 44.5,7.5 C 44.6716,6.50838 44.3382,5.84171 43.5,5.5C 43.5,5.16667 43.5,4.83333 43.5,4.5C 44.6594,3.54417 45.8261,2.54417 47,1.5C 48.2887,3.97729 47.4554,5.97729 44.5,7.5 Z"/></g>
<g><path style="opacity:0.004" fill="#3a3b3a" d="M 54.5,3.5 C 55.8333,4.16667 55.8333,4.16667 54.5,3.5 Z"/></g>
<g><path style="opacity:0.004" fill="#343534" d="M 67.5,3.5 C 68.8333,4.16667 68.8333,4.16667 67.5,3.5 Z"/></g>
<g><path style="opacity:0.004" fill="#373737" d="M 72.5,4.5 C 73.209,3.59603 74.209,3.26269 75.5,3.5C 74.791,4.40397 73.791,4.73731 72.5,4.5 Z"/></g>
<g><path style="opacity:0.005" fill="#343434" d="M 78.5,3.5 C 81.1505,3.95761 81.6505,4.95761 80,6.5C 78.9614,5.75618 78.4614,4.75618 78.5,3.5 Z"/></g>
<g><path style="opacity:0.004" fill="#292a29" d="M 84.5,3.5 C 84.8333,3.5 85.1667,3.5 85.5,3.5C 85.3147,4.17014 84.9813,4.17014 84.5,3.5 Z"/></g>
<g><path style="opacity:0.004" fill="#292a29" d="M 86.5,3.5 C 86.8333,3.5 87.1667,3.5 87.5,3.5C 87.3147,4.17014 86.9813,4.17014 86.5,3.5 Z"/></g>
<g><path style="opacity:0.439" fill="#606060" d="M 88.5,8.5 C 88.5,7.5 88.5,6.5 88.5,5.5C 90.1494,4.35149 91.6494,3.01816 93,1.5C 94.5426,2.57723 94.5426,3.91056 93,5.5C 91.871,7.14117 90.371,8.14117 88.5,8.5 Z"/></g>
<g><path style="opacity:0.004" fill="#393a39" d="M 99.5,3.5 C 100.833,4.16667 100.833,4.16667 99.5,3.5 Z"/></g>
<g><path style="opacity:0.204" fill="#484848" d="M 104.5,1.5 C 104.782,2.77765 105.449,3.77765 106.5,4.5C 105.5,4.5 104.5,4.5 103.5,4.5C 103.263,3.20895 103.596,2.20895 104.5,1.5 Z"/></g>
<g><path style="opacity:0.51" fill="#6e6e6e" d="M 104.5,1.5 C 107.545,2.27938 110.211,3.61271 112.5,5.5C 112.158,6.33825 111.492,6.67158 110.5,6.5C 108.847,6.3404 107.514,5.67373 106.5,4.5C 105.449,3.77765 104.782,2.77765 104.5,1.5 Z"/></g>
<g><path style="opacity:0.005" fill="#353535" d="M 115.5,3.5 C 116.609,3.55688 117.609,3.89022 118.5,4.5C 118.027,5.90632 117.027,6.57298 115.5,6.5C 115.5,5.5 115.5,4.5 115.5,3.5 Z"/></g>
<g><path style="opacity:0.005" fill="#333333" d="M 126.5,7.5 C 125.761,7.63101 125.094,7.46434 124.5,7C 125.833,6.33333 125.833,5.66667 124.5,5C 127.646,3.07108 128.312,3.90441 126.5,7.5 Z"/></g>
<g><path style="opacity:0.004" fill="#2f2f2f" d="M 132.5,2.5 C 133.167,2.5 133.5,2.83333 133.5,3.5C 131.504,4.68775 130.671,4.02109 131,1.5C 131.383,2.05596 131.883,2.38929 132.5,2.5 Z"/></g>
<g><path style="opacity:0.004" fill="#333433" d="M 145.5,3.5 C 146.833,4.16667 146.833,4.16667 145.5,3.5 Z"/></g>
<g><path style="opacity:0.004" fill="#2f302f" d="M 158.5,3.5 C 158.103,4.52502 157.437,4.69169 156.5,4C 157.094,3.53566 157.761,3.36899 158.5,3.5 Z"/></g>
<g><path style="opacity:0.004" fill="#373837" d="M 159.5,3.5 C 159.833,3.5 160.167,3.5 160.5,3.5C 160.5,3.83333 160.5,4.16667 160.5,4.5C 160.167,4.16667 159.833,3.83333 159.5,3.5 Z"/></g>
<g><path style="opacity:0.004" fill="#3d3d3d" d="M 163.5,4.5 C 163.56,3.95691 163.893,3.62358 164.5,3.5C 165.773,4.2565 165.773,4.92317 164.5,5.5C 164.5,4.83333 164.167,4.5 163.5,4.5 Z"/></g>
<g><path style="opacity:0.004" fill="#383938" d="M 168.5,3.5 C 169.833,4.16667 169.833,4.16667 168.5,3.5 Z"/></g>
<g><path style="opacity:0.004" fill="#333433" d="M 182.5,5.5 C 181.475,5.10343 181.308,4.43677 182,3.5C 182.464,4.09442 182.631,4.76109 182.5,5.5 Z"/></g>
<g><path style="opacity:0.004" fill="#343534" d="M 52.5,4.5 C 53.8333,5.16667 53.8333,5.16667 52.5,4.5 Z"/></g>
<g><path style="opacity:0.51" fill="#545454" d="M 58.5,1.5 C 60.4079,3.16384 62.4079,4.83051 64.5,6.5C 62.2543,5.54483 59.921,4.87816 57.5,4.5C 57.2627,3.20895 57.596,2.20895 58.5,1.5 Z"/></g>
<g><path style="opacity:0.004" fill="#323332" d="M 99.5,4.5 C 98.8333,5.16667 98.8333,5.16667 99.5,4.5 Z"/></g>
<g><path style="opacity:0.302" fill="#606060" d="M 134.5,8.5 C 135.833,7.5 135.833,6.5 134.5,5.5C 135.962,4.54227 137.295,3.37561 138.5,2C 139.332,1.31232 139.998,1.47899 140.5,2.5C 139.456,5.54456 137.456,7.54456 134.5,8.5 Z"/></g>
<g><path style="opacity:0.004" fill="#343534" d="M 168.5,4.5 C 167.833,5.16667 167.833,5.16667 168.5,4.5 Z"/></g>
<g><path style="opacity:0.004" fill="#353635" d="M 179.5,4.5 C 180.833,5.16667 180.833,5.16667 179.5,4.5 Z"/></g>
<g><path style="opacity:0.005" fill="#363636" d="M 26.5,10.5 C 25.5946,9.0357 25.5946,7.70236 26.5,6.5C 27.5754,5.43764 28.5754,5.43764 29.5,6.5C 29.1203,8.02072 28.9536,9.68739 29,11.5C 28.6582,9.38077 27.8249,9.04744 26.5,10.5 Z"/></g>
<g><path style="opacity:0.004" fill="#363636" d="M 35.5,6.5 C 34.8333,6.5 34.5,6.83333 34.5,7.5C 33.2241,6.6136 33.2241,5.6136 34.5,4.5C 35.2975,4.95689 35.6309,5.62356 35.5,6.5 Z"/></g>
<g><path style="opacity:0.004" fill="#363736" d="M 76.5,6.5 C 75.8333,5.16667 75.8333,5.16667 76.5,6.5 Z"/></g>
<g><path style="opacity:0.004" fill="#373737" d="M 101.5,5.5 C 102.958,5.57927 104.292,6.07927 105.5,7C 103.206,9.2162 101.872,8.7162 101.5,5.5 Z"/></g>
<g><path style="opacity:0.529" fill="#737373" d="M 150.5,3.5 C 153.257,4.51221 155.924,5.51221 158.5,6.5C 158.672,7.49162 158.338,8.15829 157.5,8.5C 157.167,8.5 156.833,8.5 156.5,8.5C 154.5,6.83333 152.5,5.16667 150.5,3.5 Z"/></g>
<g><path style="opacity:0.005" fill="#393939" d="M 172.5,9.5 C 170.03,8.63974 169.863,7.30641 172,5.5C 171.645,6.95945 171.811,8.29278 172.5,9.5 Z"/></g>
<g><path style="opacity:0.004" fill="#313131" d="M 179.5,5.5 C 178.923,6.77329 178.257,6.77329 177.5,5.5C 177.97,4.53705 178.637,4.53705 179.5,5.5 Z"/></g>
<g><path style="opacity:0.612" fill="#5b5b5b" d="M 181.5,9.5 C 181.5,8.83333 181.5,8.16667 181.5,7.5C 181.833,6.83333 182.167,6.16667 182.5,5.5C 183.267,4.82803 183.934,3.9947 184.5,3C 185.635,2.25061 186.635,2.41728 187.5,3.5C 186.37,6.47209 184.37,8.47209 181.5,9.5 Z"/></g>
<g><path style="opacity:0.004" fill="#393939" d="M 11.5,5.5 C 14.1338,6.65839 13.9671,7.65839 11,8.5C 10.5304,7.42317 10.6971,6.42317 11.5,5.5 Z"/></g>
<g><path style="opacity:0.004" fill="#353635" d="M 30.5,6.5 C 31.8333,7.16667 31.8333,7.16667 30.5,6.5 Z"/></g>
<g><path style="opacity:0.004" fill="#363736" d="M 54.5,6.5 C 55.8333,7.16667 55.8333,7.16667 54.5,6.5 Z"/></g>
<g><path style="opacity:0.004" fill="#373837" d="M 57.5,7.5 C 56.8333,6.16667 56.8333,6.16667 57.5,7.5 Z"/></g>
<g><path style="opacity:0.004" fill="#363736" d="M 58.5,6.5 C 59.8333,7.16667 59.8333,7.16667 58.5,6.5 Z"/></g>
<g><path style="opacity:0.004" fill="#333433" d="M 60.5,6.5 C 61.8333,7.16667 61.8333,7.16667 60.5,6.5 Z"/></g>
<g><path style="opacity:0.004" fill="#353635" d="M 76.5,6.5 C 77.8333,7.16667 77.8333,7.16667 76.5,6.5 Z"/></g>
<g><path style="opacity:0.004" fill="#323332" d="M 106.5,6.5 C 107.833,7.16667 107.833,7.16667 106.5,6.5 Z"/></g>
<g><path style="opacity:0.005" fill="#363636" d="M 121.5,10.5 C 116.943,9.34146 116.609,7.67479 120.5,5.5C 121.452,7.04533 121.785,8.71199 121.5,10.5 Z"/></g>
<g><path style="opacity:0.004" fill="#353635" d="M 122.5,6.5 C 123.833,7.16667 123.833,7.16667 122.5,6.5 Z"/></g>
<g><path style="opacity:0.004" fill="#363736" d="M 146.5,6.5 C 147.833,7.16667 147.833,7.16667 146.5,6.5 Z"/></g>
<g><path style="opacity:0.004" fill="#353635" d="M 149.5,6.5 C 148.833,7.16667 148.833,7.16667 149.5,6.5 Z"/></g>
<g><path style="opacity:0.522" fill="#545454" d="M 150.5,3.5 C 152.5,5.16667 154.5,6.83333 156.5,8.5C 154.254,7.54483 151.921,6.87816 149.5,6.5C 149.263,5.20895 149.596,4.20895 150.5,3.5 Z"/></g>
<g><path style="opacity:0.955" fill="#7d7d7d" d="M 43.5,5.5 C 44.3382,5.84171 44.6716,6.50838 44.5,7.5C 42.4006,8.61185 40.0673,9.27852 37.5,9.5C 36.7611,9.63101 36.0944,9.46434 35.5,9C 36.2524,8.32924 36.5858,7.4959 36.5,6.5C 38.8056,6.00745 41.139,5.67412 43.5,5.5 Z"/></g>
<g><path style="opacity:0.004" fill="#363736" d="M 57.5,7.5 C 57.8333,7.5 58.1667,7.5 58.5,7.5C 58.3147,8.17014 57.9813,8.17014 57.5,7.5 Z"/></g>
<g><path style="opacity:0.039" fill="#5a5a5a" d="M 96.5,7.5 C 98.8597,8.9076 98.5264,10.2409 95.5,11.5C 95.8333,10.1667 96.1667,8.83333 96.5,7.5 Z"/></g>
<g><path style="opacity:0.959" fill="#818181" d="M 134.5,5.5 C 135.833,6.5 135.833,7.5 134.5,8.5C 132.883,9.038 131.216,9.37133 129.5,9.5C 128.761,9.63101 128.094,9.46434 127.5,9C 128.571,8.14825 129.571,7.31491 130.5,6.5C 131.708,5.76589 133.041,5.43255 134.5,5.5 Z"/></g>
<g><path style="opacity:0.005" fill="#373737" d="M 160.5,4.5 C 161.5,4.5 162.5,4.5 163.5,4.5C 164.167,4.5 164.5,4.83333 164.5,5.5C 165.833,6.5 167.167,7.5 168.5,8.5C 167.04,10.4224 165.373,11.0891 163.5,10.5C 163.5,9.83333 163.167,9.5 162.5,9.5C 162.611,8.88258 162.944,8.38258 163.5,8C 162.29,6.9609 161.29,5.79423 160.5,4.5 Z"/></g>
<g><path style="opacity:0.004" fill="#343434" d="M 15.5,9.5 C 14.8333,9.5 14.5,9.83333 14.5,10.5C 13.3115,11.0476 12.1448,11.3809 11,11.5C 10.5,11 10,10.5 9.5,10C 11.2182,9.65402 12.8849,9.15402 14.5,8.5C 15.1067,8.62358 15.44,8.95691 15.5,9.5 Z"/></g>
<g><path style="opacity:0.004" fill="#2c2d2c" d="M 19.5,8.5 C 18.8333,9.16667 18.8333,9.16667 19.5,8.5 Z"/></g>
<g><path style="opacity:0.458" fill="#535253" d="M 20.5,5.5 C 23.144,6.1439 24.8106,7.81057 25.5,10.5C 25.5,12.5 25.5,14.5 25.5,16.5C 25.1667,16.5 24.8333,16.5 24.5,16.5C 24.2294,14.5695 23.2294,13.2362 21.5,12.5C 22.3764,12.6309 23.0431,12.2975 23.5,11.5C 22.7174,9.71182 21.3841,8.71182 19.5,8.5C 19.1667,7.83333 18.8333,7.16667 18.5,6.5C 19.4916,6.67158 20.1583,6.33825 20.5,5.5 Z"/></g>
<g><path style="opacity:0.392" fill="#545454" d="M 66.5,5.5 C 69.144,6.1439 70.8106,7.81057 71.5,10.5C 70.8333,11.1667 70.1667,11.8333 69.5,12.5C 68.5501,9.88507 66.8835,7.88507 64.5,6.5C 65.4916,6.67158 66.1583,6.33825 66.5,5.5 Z"/></g>
<g><path style="opacity:0.906" fill="#797979" d="M 88.5,5.5 C 88.5,6.5 88.5,7.5 88.5,8.5C 85.8808,8.9255 83.5475,9.9255 81.5,11.5C 80.596,10.791 80.2627,9.79105 80.5,8.5C 82.6975,6.60315 85.3642,5.60315 88.5,5.5 Z"/></g>
<g><path style="opacity:0.004" fill="#383938" d="M 148.5,8.5 C 149.833,9.16667 149.833,9.16667 148.5,8.5 Z"/></g>
<g><path style="opacity:0.004" fill="#363736" d="M 168.5,8.5 C 169.833,9.16667 169.833,9.16667 168.5,8.5 Z"/></g>
<g><path style="opacity:0.796" fill="#888888" d="M 181.5,7.5 C 181.5,8.16667 181.5,8.83333 181.5,9.5C 179.102,9.25939 177.102,9.92606 175.5,11.5C 174.761,11.631 174.094,11.4643 173.5,11C 174.381,10.2917 175.047,9.45837 175.5,8.5C 177.379,7.65859 179.379,7.32526 181.5,7.5 Z"/></g>
<g><path style="opacity:0.004" fill="#303130" d="M 191.5,8.5 C 192.833,9.16667 192.833,9.16667 191.5,8.5 Z"/></g>
<g><path style="opacity:0.004" fill="#343534" d="M 199.5,8.5 C 199.5,8.83333 199.5,9.16667 199.5,9.5C 198.83,9.01865 198.83,8.68532 199.5,8.5 Z"/></g>
<g><path style="opacity:0.004" fill="#2d2e2d" d="M 15.5,9.5 C 16.8333,10.1667 16.8333,10.1667 15.5,9.5 Z"/></g>
<g><path style="opacity:0.78" fill="#767676" d="M 43.5,12.5 C 42.5084,12.6716 41.8417,12.3382 41.5,11.5C 44.7554,8.77054 48.4221,7.77054 52.5,8.5C 50.072,10.9814 47.072,12.3147 43.5,12.5 Z"/></g>
<g><path style="opacity:0.004" fill="#2c2d2c" d="M 61.5,9.5 C 62.8333,10.1667 62.8333,10.1667 61.5,9.5 Z"/></g>
<g><path style="opacity:0.004" fill="#252625" d="M 65.5,9.5 C 66.8333,10.1667 66.8333,10.1667 65.5,9.5 Z"/></g>
<g><path style="opacity:0.42" fill="#747474" d="M 96.5,7.5 C 96.1667,8.83333 95.8333,10.1667 95.5,11.5C 93.7839,11.6287 92.1172,11.962 90.5,12.5C 91.1098,11.609 91.4431,10.609 91.5,9.5C 93.0276,8.69079 94.6943,8.02412 96.5,7.5 Z"/></g>
<g><path style="opacity:0.004" fill="#343434" d="M 101.5,10.5 C 102.077,9.22671 102.743,9.22671 103.5,10.5C 103.03,11.463 102.363,11.463 101.5,10.5 Z"/></g>
<g><path style="opacity:0.004" fill="#2f2f2e" d="M 107.5,9.5 C 108.833,10.1667 108.833,10.1667 107.5,9.5 Z"/></g>
<g><path style="opacity:0.004" fill="#302f30" d="M 113.5,9.5 C 113.103,10.525 112.437,10.6917 111.5,10C 112.094,9.53566 112.761,9.36899 113.5,9.5 Z"/></g>
<g><path style="opacity:0.363" fill="#575757" d="M 112.5,5.5 C 113.609,5.55688 114.609,5.89022 115.5,6.5C 116.248,8.33246 117.248,9.99913 118.5,11.5C 117.209,12.5417 117.209,13.7083 118.5,15C 117.956,15.7172 117.289,16.2172 116.5,16.5C 116.229,14.5695 115.229,13.2362 113.5,12.5C 115.985,11.7399 115.985,10.7399 113.5,9.5C 112.306,8.72813 111.306,7.72813 110.5,6.5C 111.492,6.67158 112.158,6.33825 112.5,5.5 Z"/></g>
<g><path style="opacity:0.788" fill="#717171" d="M 136.5,12.5 C 137.11,11.609 137.443,10.609 137.5,9.5C 139.782,8.05418 142.115,7.72085 144.5,8.5C 142.357,10.7765 139.69,12.1099 136.5,12.5 Z"/></g>
<g><path style="opacity:0.208" fill="#656565" d="M 181.5,9.5 C 179.786,10.7384 177.786,11.405 175.5,11.5C 177.102,9.92606 179.102,9.25939 181.5,9.5 Z"/></g>
<g><path style="opacity:0.004" fill="#333333" d="M 14.5,10.5 C 14.8333,10.5 15.1667,10.5 15.5,10.5C 15.5,10.8333 15.5,11.1667 15.5,11.5C 15.1667,11.1667 14.8333,10.8333 14.5,10.5 Z"/></g>
<g><path style="opacity:0.004" fill="#373737" d="M 52.5,10.5 C 53.525,10.8966 53.6917,11.5632 53,12.5C 52.5357,11.9056 52.369,11.2389 52.5,10.5 Z"/></g>
<g><path style="opacity:0.004" fill="#313131" d="M 60.5,10.5 C 59.4246,11.5624 58.4246,11.5624 57.5,10.5C 58.6136,9.2241 59.6136,9.2241 60.5,10.5 Z"/></g>
<g><path style="opacity:0.004" fill="#2e2f2e" d="M 60.5,10.5 C 60.8333,10.5 61.1667,10.5 61.5,10.5C 61.5,10.8333 61.5,11.1667 61.5,11.5C 61.1667,11.1667 60.8333,10.8333 60.5,10.5 Z"/></g>
<g><path style="opacity:0.004" fill="#353535" d="M 73.5,11.5 C 74.209,10.596 75.209,10.2627 76.5,10.5C 76.7678,12.099 76.4345,13.4324 75.5,14.5C 75.7148,12.8212 75.0481,11.8212 73.5,11.5 Z"/></g>
<g><path style="opacity:0.004" fill="#343534" d="M 99.5,11.5 C 98.8333,10.1667 98.8333,10.1667 99.5,11.5 Z"/></g>
<g><path style="opacity:0.004" fill="#343635" d="M 104.5,10.5 C 105.833,11.1667 105.833,11.1667 104.5,10.5 Z"/></g>
<g><path style="opacity:0.004" fill="#373837" d="M 107.5,10.5 C 107.5,10.8333 107.5,11.1667 107.5,11.5C 106.83,11.0187 106.83,10.6853 107.5,10.5 Z"/></g>
<g><path style="opacity:0.005" fill="#343434" d="M 121.5,10.5 C 122.573,11.2506 122.74,12.2506 122,13.5C 121.517,12.552 121.351,11.552 121.5,10.5 Z"/></g>
<g><path style="opacity:0.004" fill="#353535" d="M 149.5,12.5 C 146.999,12.4891 146.832,11.8224 149,10.5C 149.464,11.0944 149.631,11.7611 149.5,12.5 Z"/></g>
<g><path style="opacity:0.004" fill="#353635" d="M 150.5,12.5 C 150.369,11.7611 150.536,11.0944 151,10.5C 151.692,11.4368 151.525,12.1034 150.5,12.5 Z"/></g>
<g><path style="opacity:0.004" fill="#363736" d="M 153.5,10.5 C 154.833,11.1667 154.833,11.1667 153.5,10.5 Z"/></g>
<g><path style="opacity:0.465" fill="#535353" d="M 158.5,6.5 C 159.833,7.5 161.167,8.5 162.5,9.5C 163.167,9.5 163.5,9.83333 163.5,10.5C 163.5,11.1667 163.5,11.8333 163.5,12.5C 162.662,12.8417 162.328,13.5084 162.5,14.5C 162.167,14.5 161.833,14.5 161.5,14.5C 161.573,12.9731 160.906,11.9731 159.5,11.5C 158.833,10.5 158.167,9.5 157.5,8.5C 158.338,8.15829 158.672,7.49162 158.5,6.5 Z"/></g>
<g><path style="opacity:0.004" fill="#353535" d="M 168.5,11.5 C 168.897,10.475 169.563,10.3083 170.5,11C 169.906,11.4643 169.239,11.631 168.5,11.5 Z"/></g>
<g><path style="opacity:0.247" fill="#626262" d="M 189.5,12.5 C 188.833,12.5 188.167,12.5 187.5,12.5C 188.11,11.609 188.443,10.609 188.5,9.5C 189.222,9.08247 189.722,8.4158 190,7.5C 190.64,9.26502 190.473,10.9317 189.5,12.5 Z"/></g>
<g><path style="opacity:0.6" fill="#606060" d="M 35.5,6.5 C 35.8333,6.5 36.1667,6.5 36.5,6.5C 36.5858,7.4959 36.2524,8.32924 35.5,9C 36.0944,9.46434 36.7611,9.63101 37.5,9.5C 36.3995,10.6049 35.7329,11.9382 35.5,13.5C 35.5,13.8333 35.5,14.1667 35.5,14.5C 35.5,14.8333 35.5,15.1667 35.5,15.5C 34.7611,15.631 34.0944,15.4643 33.5,15C 34.4506,14.2825 34.6172,13.4491 34,12.5C 33.1482,13.5707 32.3149,14.5707 31.5,15.5C 32.454,12.8569 33.454,10.1903 34.5,7.5C 35.1667,7.5 35.5,7.16667 35.5,6.5 Z"/></g>
<g><path style="opacity:0.004" fill="#353635" d="M 99.5,11.5 C 100.833,12.1667 100.833,12.1667 99.5,11.5 Z"/></g>
<g><path style="opacity:0.565" fill="#616161" d="M 130.5,6.5 C 129.571,7.31491 128.571,8.14825 127.5,9C 128.094,9.46434 128.761,9.63101 129.5,9.5C 126.516,12.5209 126.849,13.5209 130.5,12.5C 130.782,13.7777 131.449,14.7777 132.5,15.5C 131.791,16.404 130.791,16.7373 129.5,16.5C 129.179,14.9519 128.179,14.2852 126.5,14.5C 126.591,12.3023 125.925,11.9689 124.5,13.5C 124.971,11.4214 125.637,9.42136 126.5,7.5C 127.708,6.76589 129.041,6.43255 130.5,6.5 Z"/></g>
<g><path style="opacity:0.004" fill="#353635" d="M 145.5,11.5 C 146.833,12.1667 146.833,12.1667 145.5,11.5 Z"/></g>
<g><path style="opacity:0.004" fill="#303130" d="M 153.5,11.5 C 152.833,12.1667 152.833,12.1667 153.5,11.5 Z"/></g>
<g><path style="opacity:0.004" fill="#2f3130" d="M 159.5,11.5 C 158.833,12.1667 158.833,12.1667 159.5,11.5 Z"/></g>
<g><path style="opacity:0.522" fill="#7e7e7e" d="M 188.5,9.5 C 188.443,10.609 188.11,11.609 187.5,12.5C 185.102,12.2594 183.102,12.9261 181.5,14.5C 179.61,14.2965 178.11,14.9632 177,16.5C 176.536,15.9056 176.369,15.2389 176.5,14.5C 180.115,12.0681 184.115,10.4014 188.5,9.5 Z"/></g>
<g><path style="opacity:0.004" fill="#353635" d="M 193.5,11.5 C 194.833,12.1667 194.833,12.1667 193.5,11.5 Z"/></g>
<g><path style="opacity:0.004" fill="#343534" d="M 195.5,11.5 C 196.525,11.8966 196.692,12.5632 196,13.5C 195.536,12.9056 195.369,12.2389 195.5,11.5 Z"/></g>
<g><path style="opacity:0.004" fill="#303130" d="M 29.5,12.5 C 30.8333,13.1667 30.8333,13.1667 29.5,12.5 Z"/></g>
<g><path style="opacity:0.42" fill="#777777" d="M 137.5,9.5 C 137.443,10.609 137.11,11.609 136.5,12.5C 135.833,12.5 135.5,12.8333 135.5,13.5C 134.5,14.1667 133.5,14.8333 132.5,15.5C 131.449,14.7777 130.782,13.7777 130.5,12.5C 132.649,11.2638 134.982,10.2638 137.5,9.5 Z"/></g>
<g><path style="opacity:0.004" fill="#343434" d="M 139.5,12.5 C 140.573,13.2506 140.74,14.2506 140,15.5C 139.517,14.552 139.351,13.552 139.5,12.5 Z"/></g>
<g><path style="opacity:0.004" fill="#313231" d="M 149.5,12.5 C 149.833,12.5 150.167,12.5 150.5,12.5C 150.315,13.1701 149.981,13.1701 149.5,12.5 Z"/></g>
<g><path style="opacity:0.004" fill="#343434" d="M 189.5,12.5 C 190.239,12.369 190.906,12.5357 191.5,13C 190.563,13.6917 189.897,13.525 189.5,12.5 Z"/></g>
<g><path style="opacity:0.765" fill="#6d6c6d" d="M 41.5,11.5 C 41.8417,12.3382 42.5084,12.6716 43.5,12.5C 43.5,12.8333 43.5,13.1667 43.5,13.5C 41.6064,14.0476 39.9397,15.0476 38.5,16.5C 37.4822,15.8075 36.4822,15.1408 35.5,14.5C 35.5,14.1667 35.5,13.8333 35.5,13.5C 37.2972,12.2702 39.2972,11.6036 41.5,11.5 Z"/></g>
<g><path style="opacity:0.004" fill="#343434" d="M 46.5,14.5 C 47.0768,13.2267 47.7435,13.2267 48.5,14.5C 48.0302,15.463 47.3635,15.463 46.5,14.5 Z"/></g>
<g><path style="opacity:1" fill="#747373" d="M 61.5,11.5 C 62.5,11.5 63.5,11.5 64.5,11.5C 64.5,12.1667 64.5,12.8333 64.5,13.5C 62.5,14.1667 60.5,14.8333 58.5,15.5C 58.5,14.8333 58.5,14.1667 58.5,13.5C 59.7095,13.0679 60.7095,12.4013 61.5,11.5 Z"/></g>
<g><path style="opacity:0.871" fill="#7a7a7a" d="M 64.5,11.5 C 66.1172,12.038 67.7839,12.3713 69.5,12.5C 69.6596,14.153 70.3263,15.4863 71.5,16.5C 70.6522,17.625 69.6522,17.625 68.5,16.5C 68.1788,14.9519 67.1788,14.2852 65.5,14.5C 65.5,13.8333 65.1667,13.5 64.5,13.5C 64.5,12.8333 64.5,12.1667 64.5,11.5 Z"/></g>
<g><path style="opacity:0.667" fill="#666666" d="M 71.5,10.5 C 72.1667,10.8333 72.8333,11.1667 73.5,11.5C 73.5569,12.609 73.8902,13.609 74.5,14.5C 73.2223,14.7822 72.2223,15.4489 71.5,16.5C 70.3263,15.4863 69.6596,14.153 69.5,12.5C 70.1667,11.8333 70.8333,11.1667 71.5,10.5 Z"/></g>
<g><path style="opacity:0.915" fill="#727272" d="M 78.5,12.5 C 79.7777,12.7822 80.7777,13.4489 81.5,14.5C 81.5198,16.143 80.8532,17.4763 79.5,18.5C 79.8627,19.1835 80.1961,19.8501 80.5,20.5C 79.8333,20.5 79.5,20.8333 79.5,21.5C 79.5,21.8333 79.5,22.1667 79.5,22.5C 79.9321,23.7095 80.5987,24.7095 81.5,25.5C 82.1667,26.8333 82.8333,28.1667 83.5,29.5C 83.631,30.2389 83.4643,30.9056 83,31.5C 81.4499,30.4092 80.2832,29.0758 79.5,27.5C 78.6618,27.1583 78.3284,26.4916 78.5,25.5C 77.962,23.8828 77.6287,22.2161 77.5,20.5C 77.5872,19.5015 77.9205,18.3349 78.5,17C 76.563,16.8784 75.2297,16.045 74.5,14.5C 74.8333,14.5 75.1667,14.5 75.5,14.5C 75.56,15.0431 75.8933,15.3764 76.5,15.5C 77.1757,14.3984 77.8423,13.3984 78.5,12.5 Z"/></g>
<g><path style="opacity:0.765" fill="#5f5f5f" d="M 80.5,8.5 C 80.2627,9.79105 80.596,10.791 81.5,11.5C 81.369,12.2389 81.5357,12.9056 82,13.5C 82.6708,12.7476 83.5041,12.4142 84.5,12.5C 84.7214,13.7348 85.3881,14.7348 86.5,15.5C 85.8728,16.4168 85.5394,17.4168 85.5,18.5C 85.1667,18.5 84.8333,18.5 84.5,18.5C 84.4456,16.368 83.4456,15.0347 81.5,14.5C 80.7777,13.4489 79.7777,12.7822 78.5,12.5C 79.6602,10.7973 78.9935,10.1307 76.5,10.5C 77.6715,9.65536 79.0048,8.98869 80.5,8.5 Z"/></g>
<g><path style="opacity:0.102" fill="#7b7b7b" d="M 91.5,9.5 C 91.4431,10.609 91.1098,11.609 90.5,12.5C 89.6618,12.8417 89.3284,13.5084 89.5,14.5C 88.7611,14.369 88.0944,14.5357 87.5,15C 88.3366,16.0113 88.67,17.1779 88.5,18.5C 87.5,18.5 86.5,18.5 85.5,18.5C 85.5394,17.4168 85.8728,16.4168 86.5,15.5C 85.3881,14.7348 84.7214,13.7348 84.5,12.5C 86.7128,11.2271 89.0462,10.2271 91.5,9.5 Z"/></g>
<g><path style="opacity:0.004" fill="#343434" d="M 93.5,12.5 C 94.5735,13.2506 94.7401,14.2506 94,15.5C 93.5172,14.552 93.3505,13.552 93.5,12.5 Z"/></g>
<g><path style="opacity:0.2" fill="#525252" d="M 118.5,11.5 C 119.906,11.9731 120.573,12.9731 120.5,14.5C 119.094,14.0269 118.427,13.0269 118.5,11.5 Z"/></g>
<g><path style="opacity:0.927" fill="#7b7b7b" d="M 126.5,14.5 C 125.321,16.4409 125.987,17.7743 128.5,18.5C 128.672,19.4916 128.338,20.1583 127.5,20.5C 126.833,20.5 126.5,20.8333 126.5,21.5C 125.833,21.5 125.5,21.8333 125.5,22.5C 127.117,25.0764 126.783,26.0764 124.5,25.5C 123.962,23.8828 123.629,22.2161 123.5,20.5C 123.338,19.4082 123.672,18.0749 124.5,16.5C 124.5,15.5 124.5,14.5 124.5,13.5C 125.925,11.9689 126.591,12.3023 126.5,14.5 Z"/></g>
<g><path style="opacity:0.235" fill="#5f5f5f" d="M 175.5,8.5 C 175.047,9.45837 174.381,10.2917 173.5,11C 174.094,11.4643 174.761,11.631 175.5,11.5C 174.4,12.6049 173.733,13.9382 173.5,15.5C 172.778,15.0825 172.278,14.4158 172,13.5C 171.617,14.056 171.117,14.3893 170.5,14.5C 170.893,12.7162 171.559,11.0495 172.5,9.5C 173.391,8.89022 174.391,8.55688 175.5,8.5 Z"/></g>
<g><path style="opacity:0.047" fill="#585858" d="M 187.5,12.5 C 186.5,13.1667 185.5,13.8333 184.5,14.5C 183.5,14.5 182.5,14.5 181.5,14.5C 183.102,12.9261 185.102,12.2594 187.5,12.5 Z"/></g>
<g><path style="opacity:0.692" fill="#727272" d="M 15.5,11.5 C 16.1667,11.5 16.8333,11.5 17.5,11.5C 16.7813,13.8881 15.1146,15.3881 12.5,16C 13.3805,16.7083 14.0472,17.5416 14.5,18.5C 12.7162,18.1075 11.0495,17.4408 9.5,16.5C 9.5,16.1667 9.5,15.8333 9.5,15.5C 11.5,14.1667 13.5,12.8333 15.5,11.5 Z"/></g>
<g><path style="opacity:1" fill="#747473" d="M 18.5,11.5 C 19.609,11.5569 20.609,11.8902 21.5,12.5C 23.2294,13.2362 24.2294,14.5695 24.5,16.5C 23.1779,16.67 22.0113,16.3366 21,15.5C 20.51,16.7932 20.3433,18.1266 20.5,19.5C 18.7973,20.6602 18.1307,19.9935 18.5,17.5C 19.5729,15.6531 19.5729,13.6531 18.5,11.5 Z"/></g>
<g><path style="opacity:1" fill="#737373" d="M 35.5,15.5 C 35.5,16.1667 35.5,16.8333 35.5,17.5C 33.9731,17.427 32.9731,18.0937 32.5,19.5C 31.2264,18.8106 31.2264,17.9772 32.5,17C 30.563,16.8784 29.2297,16.045 28.5,14.5C 29.391,15.1098 30.391,15.4431 31.5,15.5C 32.3149,14.5707 33.1482,13.5707 34,12.5C 34.6172,13.4491 34.4506,14.2825 33.5,15C 34.0944,15.4643 34.7611,15.631 35.5,15.5 Z"/></g>
<g><path style="opacity:0.69" fill="#6b6b6b" d="M 58.5,13.5 C 58.5,14.1667 58.5,14.8333 58.5,15.5C 59.6502,17.9367 60.6502,20.27 61.5,22.5C 61.1667,23.1667 60.8333,23.8333 60.5,24.5C 59.448,24.6495 58.448,24.4828 57.5,24C 56.6006,22.3484 55.6006,20.8484 54.5,19.5C 53.8622,16.1441 55.1956,14.1441 58.5,13.5 Z"/></g>
<g><path style="opacity:0.506" fill="#747474" d="M 107.5,11.5 C 109.621,11.3253 111.621,11.6586 113.5,12.5C 115.229,13.2362 116.229,14.5695 116.5,16.5C 115.5,16.5 114.5,16.5 113.5,16.5C 113.167,15.1667 112.833,15.1667 112.5,16.5C 111.842,15.6016 111.176,14.6016 110.5,13.5C 108.805,14.1744 107.138,14.8411 105.5,15.5C 104.5,15.8333 103.833,16.5 103.5,17.5C 103.167,17.5 102.833,17.5 102.5,17.5C 102.167,16.8333 101.833,16.1667 101.5,15.5C 103.5,14.1667 105.5,12.8333 107.5,11.5 Z"/></g>
<g><path style="opacity:0.004" fill="#333433" d="M 167.5,14.5 C 168.833,15.1667 168.833,15.1667 167.5,14.5 Z"/></g>
<g><path style="opacity:1" fill="#656565" d="M 17.5,11.5 C 17.8333,11.5 18.1667,11.5 18.5,11.5C 19.5729,13.6531 19.5729,15.6531 18.5,17.5C 17.0221,18.4475 16.0221,19.7809 15.5,21.5C 15.7373,20.209 15.404,19.209 14.5,18.5C 14.0472,17.5416 13.3805,16.7083 12.5,16C 15.1146,15.3881 16.7813,13.8881 17.5,11.5 Z"/></g>
<g><path style="opacity:1" fill="#626261" d="M 64.5,13.5 C 65.1667,13.5 65.5,13.8333 65.5,14.5C 64.2825,15.1614 62.9492,15.8281 61.5,16.5C 61.6236,17.1067 61.9569,17.44 62.5,17.5C 61.962,19.1172 61.6287,20.7839 61.5,22.5C 60.6502,20.27 59.6502,17.9367 58.5,15.5C 60.5,14.8333 62.5,14.1667 64.5,13.5 Z"/></g>
<g><path style="opacity:0.402" fill="#5c5c5c" d="M 124.5,13.5 C 124.5,14.5 124.5,15.5 124.5,16.5C 122.901,16.7678 121.568,16.4345 120.5,15.5C 120.5,15.1667 120.5,14.8333 120.5,14.5C 122.195,15.8264 123.528,15.4931 124.5,13.5 Z"/></g>
<g><path style="opacity:0.898" fill="#797878" d="M 161.5,14.5 C 161.5,15.1667 161.833,15.5 162.5,15.5C 162.5,16.5 162.5,17.5 162.5,18.5C 161.5,18.5 160.5,18.5 159.5,18.5C 158.36,16.9545 157.36,15.2879 156.5,13.5C 156.435,13.0618 156.601,12.7284 157,12.5C 158.33,13.5822 159.83,14.2488 161.5,14.5 Z"/></g>
<g><path style="opacity:0.302" fill="#606060" d="M 163.5,12.5 C 165.262,13.2623 166.262,14.5956 166.5,16.5C 165.883,16.3893 165.383,16.056 165,15.5C 164.623,16.9423 163.79,17.9423 162.5,18.5C 162.5,17.5 162.5,16.5 162.5,15.5C 162.5,15.1667 162.5,14.8333 162.5,14.5C 162.328,13.5084 162.662,12.8417 163.5,12.5 Z"/></g>
<g><path style="opacity:0.681" fill="#686767" d="M 173.5,15.5 C 174.391,14.8902 175.391,14.5569 176.5,14.5C 176.369,15.2389 176.536,15.9056 177,16.5C 178.11,14.9632 179.61,14.2965 181.5,14.5C 181.5,14.8333 181.5,15.1667 181.5,15.5C 179.672,16.7945 177.672,17.7945 175.5,18.5C 175.5,17.1667 174.833,16.5 173.5,16.5C 172.292,17.2341 170.959,17.5674 169.5,17.5C 169.263,16.209 169.596,15.209 170.5,14.5C 171.117,14.3893 171.617,14.056 172,13.5C 172.278,14.4158 172.778,15.0825 173.5,15.5 Z"/></g>
<g><path style="opacity:0.004" fill="#363636" d="M 184.5,14.5 C 185.289,14.7828 185.956,15.2828 186.5,16C 185.184,16.5281 184.517,16.0281 184.5,14.5 Z"/></g>
<g><path style="opacity:0.004" fill="#3b3c3b" d="M 187.5,15.5 C 188.833,16.1667 188.833,16.1667 187.5,15.5 Z"/></g>
<g><path style="opacity:1" fill="#7a7a79" d="M 24.5,16.5 C 24.8333,16.5 25.1667,16.5 25.5,16.5C 25.5,17.1667 25.5,17.8333 25.5,18.5C 25.6716,19.4916 25.3382,20.1583 24.5,20.5C 23.4324,19.5655 22.099,19.2322 20.5,19.5C 20.3433,18.1266 20.51,16.7932 21,15.5C 22.0113,16.3366 23.1779,16.67 24.5,16.5 Z"/></g>
<g><path style="opacity:0.986" fill="#848484" d="M 25.5,10.5 C 25.8333,10.5 26.1667,10.5 26.5,10.5C 27.6005,11.6049 28.2671,12.9382 28.5,14.5C 29.2297,16.045 30.563,16.8784 32.5,17C 31.2264,17.9772 31.2264,18.8106 32.5,19.5C 32.5,20.1667 32.1667,20.5 31.5,20.5C 29.1635,19.5375 27.8302,20.5375 27.5,23.5C 27.0269,24.9063 26.0269,25.573 24.5,25.5C 23.448,25.6495 22.448,25.4828 21.5,25C 23.0664,24.3918 24.3998,23.5585 25.5,22.5C 25.5,22.1667 25.5,21.8333 25.5,21.5C 27.9845,20.2601 27.9845,19.2601 25.5,18.5C 25.5,17.8333 25.5,17.1667 25.5,16.5C 25.5,14.5 25.5,12.5 25.5,10.5 Z"/></g>
<g><path style="opacity:0.851" fill="#848483" d="M 43.5,13.5 C 43.5,14.1667 43.8333,14.5 44.5,14.5C 43.3748,15.9999 42.0414,17.3332 40.5,18.5C 40.1667,18.5 39.8333,18.5 39.5,18.5C 38.4324,17.5655 37.099,17.2322 35.5,17.5C 35.5,16.8333 35.5,16.1667 35.5,15.5C 35.5,15.1667 35.5,14.8333 35.5,14.5C 36.4822,15.1408 37.4822,15.8075 38.5,16.5C 39.9397,15.0476 41.6064,14.0476 43.5,13.5 Z"/></g>
<g><path style="opacity:0.963" fill="#7b7b7a" d="M 44.5,14.5 C 46.7379,15.8527 48.0713,17.8527 48.5,20.5C 48.1788,22.0481 47.1788,22.7148 45.5,22.5C 43.5,22.5 41.5,22.5 39.5,22.5C 39.5,21.1667 40.1667,20.5 41.5,20.5C 41.8333,21.8333 42.1667,21.8333 42.5,20.5C 42.5,19.1667 41.8333,18.5 40.5,18.5C 42.0414,17.3332 43.3748,15.9999 44.5,14.5 Z"/></g>
<g><path style="opacity:0.763" fill="#6c6c6b" d="M 65.5,14.5 C 67.1788,14.2852 68.1788,14.9519 68.5,16.5C 67.8826,16.3893 67.3826,16.056 67,15.5C 66.6481,17.2475 66.1481,18.9142 65.5,20.5C 64.8999,19.0998 63.8999,18.0998 62.5,17.5C 61.9569,17.44 61.6236,17.1067 61.5,16.5C 62.9492,15.8281 64.2825,15.1614 65.5,14.5 Z"/></g>
<g><path style="opacity:0.987" fill="#8a8a8a" d="M 74.5,14.5 C 75.2297,16.045 76.563,16.8784 78.5,17C 77.9205,18.3349 77.5872,19.5015 77.5,20.5C 75.1635,19.5375 73.8302,20.5375 73.5,23.5C 72.8333,23.5 72.1667,23.5 71.5,23.5C 71.5,23.1667 71.5,22.8333 71.5,22.5C 71.5,22.1667 71.5,21.8333 71.5,21.5C 74.3382,19.6941 74.0048,18.6941 70.5,18.5C 67.5426,20.0251 66.8759,19.3584 68.5,16.5C 69.6522,17.625 70.6522,17.625 71.5,16.5C 72.2223,15.4489 73.2223,14.7822 74.5,14.5 Z"/></g>
<g><path style="opacity:0.994" fill="#7d7d7c" d="M 89.5,14.5 C 91.0174,14.5106 92.1841,15.1772 93,16.5C 93.3661,18.4517 94.1995,20.1184 95.5,21.5C 92.3752,22.4794 89.0419,22.8128 85.5,22.5C 85.3284,21.5084 85.6618,20.8417 86.5,20.5C 86.8333,20.5 87.1667,20.5 87.5,20.5C 88.3382,20.1583 88.6716,19.4916 88.5,18.5C 88.67,17.1779 88.3366,16.0113 87.5,15C 88.0944,14.5357 88.7611,14.369 89.5,14.5 Z"/></g>
<g><path style="opacity:1" fill="#6c6c6b" d="M 105.5,15.5 C 106.12,17.9767 107.12,17.9767 108.5,15.5C 109.298,15.9569 109.631,16.6236 109.5,17.5C 108.833,18.8333 108.167,20.1667 107.5,21.5C 107.5,20.5 107.5,19.5 107.5,18.5C 106.041,18.5674 104.708,18.2341 103.5,17.5C 103.833,16.5 104.5,15.8333 105.5,15.5 Z"/></g>
<g><path style="opacity:0.914" fill="#686867" d="M 112.5,16.5 C 112.567,17.9587 112.234,19.2921 111.5,20.5C 110.833,19.5 110.167,18.5 109.5,17.5C 109.631,16.6236 109.298,15.9569 108.5,15.5C 107.12,17.9767 106.12,17.9767 105.5,15.5C 107.138,14.8411 108.805,14.1744 110.5,13.5C 111.176,14.6016 111.842,15.6016 112.5,16.5 Z"/></g>
<g><path style="opacity:1" fill="#7f7f7f" d="M 118.5,11.5 C 118.427,13.0269 119.094,14.0269 120.5,14.5C 120.5,14.8333 120.5,15.1667 120.5,15.5C 118.014,16.4616 118.014,17.2949 120.5,18C 120.272,18.3988 119.938,18.5654 119.5,18.5C 118.5,18.5 117.5,18.5 116.5,18.5C 114.877,19.4908 113.877,18.8241 113.5,16.5C 114.5,16.5 115.5,16.5 116.5,16.5C 117.289,16.2172 117.956,15.7172 118.5,15C 117.209,13.7083 117.209,12.5417 118.5,11.5 Z"/></g>
<g><path style="opacity:0.964" fill="#8d8d8d" d="M 120.5,15.5 C 121.568,16.4345 122.901,16.7678 124.5,16.5C 123.672,18.0749 123.338,19.4082 123.5,20.5C 121.164,19.5375 119.83,20.5375 119.5,23.5C 118.833,23.5 118.167,23.5 117.5,23.5C 117.5,23.1667 117.5,22.8333 117.5,22.5C 117.5,22.1667 117.5,21.8333 117.5,21.5C 118.906,21.0269 119.573,20.0269 119.5,18.5C 119.938,18.5654 120.272,18.3988 120.5,18C 118.014,17.2949 118.014,16.4616 120.5,15.5 Z"/></g>
<g><path style="opacity:0.989" fill="#7f7f7e" d="M 135.5,13.5 C 136.167,14.1667 136.833,14.8333 137.5,15.5C 137.657,16.8734 137.49,18.2068 137,19.5C 136.31,18.2617 135.81,18.2617 135.5,19.5C 134.292,18.7659 132.959,18.4326 131.5,18.5C 130.833,17.8333 130.167,17.1667 129.5,16.5C 130.791,16.7373 131.791,16.404 132.5,15.5C 133.5,14.8333 134.5,14.1667 135.5,13.5 Z"/></g>
<g><path style="opacity:0.004" fill="#373837" d="M 141.5,16.5 C 142.833,17.1667 142.833,17.1667 141.5,16.5 Z"/></g>
<g><path style="opacity:0.962" fill="#767776" d="M 154.5,13.5 C 154.833,14.1667 155.167,14.8333 155.5,15.5C 153.313,16.758 150.98,17.758 148.5,18.5C 148.5,17.8333 148.5,17.1667 148.5,16.5C 150.289,15.1228 152.289,14.1228 154.5,13.5 Z"/></g>
<g><path style="opacity:1" fill="#6a6969" d="M 155.5,15.5 C 155.279,16.7348 154.612,17.7348 153.5,18.5C 153.624,19.1067 153.957,19.44 154.5,19.5C 154.6,22.1085 153.933,24.4418 152.5,26.5C 151.609,25.8902 150.609,25.5569 149.5,25.5C 149.261,23.5328 149.594,21.6995 150.5,20C 149.584,19.7216 148.918,19.2216 148.5,18.5C 150.98,17.758 153.313,16.758 155.5,15.5 Z"/></g>
<g><path style="opacity:0.004" fill="#333333" d="M 189.5,17.5 C 189.897,16.475 190.563,16.3083 191.5,17C 190.906,17.4643 190.239,17.631 189.5,17.5 Z"/></g>
<g><path style="opacity:0.004" fill="#363736" d="M 49.5,17.5 C 50.8333,18.1667 50.8333,18.1667 49.5,17.5 Z"/></g>
<g><path style="opacity:1" fill="#7f7f7e" d="M 81.5,14.5 C 83.4456,15.0347 84.4456,16.368 84.5,18.5C 83.1667,19.1667 81.8333,19.8333 80.5,20.5C 80.1961,19.8501 79.8627,19.1835 79.5,18.5C 80.8532,17.4763 81.5198,16.143 81.5,14.5 Z"/></g>
<g><path style="opacity:0.004" fill="#323232" d="M 96.5,18.5 C 94.9719,18.4827 94.4719,17.816 95,16.5C 95.7172,17.0442 96.2172,17.7109 96.5,18.5 Z"/></g>
<g><path style="opacity:0.004" fill="#333433" d="M 98.5,18.5 C 97.8333,17.1667 97.8333,17.1667 98.5,18.5 Z"/></g>
<g><path style="opacity:0.965" fill="#787877" d="M 126.5,14.5 C 128.179,14.2852 129.179,14.9519 129.5,16.5C 130.167,17.1667 130.833,17.8333 131.5,18.5C 130.5,18.5 129.5,18.5 128.5,18.5C 125.987,17.7743 125.321,16.4409 126.5,14.5 Z"/></g>
<g><path style="opacity:0.773" fill="#696968" d="M 154.5,13.5 C 155.167,13.5 155.833,13.5 156.5,13.5C 157.36,15.2879 158.36,16.9545 159.5,18.5C 158.833,19.8333 158.167,21.1667 157.5,22.5C 156.9,21.0998 155.9,20.0998 154.5,19.5C 153.957,19.44 153.624,19.1067 153.5,18.5C 154.612,17.7348 155.279,16.7348 155.5,15.5C 155.167,14.8333 154.833,14.1667 154.5,13.5 Z"/></g>
<g><path style="opacity:1" fill="#8a8989" d="M 181.5,15.5 C 182.167,15.5 182.5,15.8333 182.5,16.5C 182.5,17.1667 182.5,17.8333 182.5,18.5C 180.41,17.2092 179.076,17.8758 178.5,20.5C 177.833,20.1667 177.167,19.8333 176.5,19.5C 175.833,19.5 175.5,19.1667 175.5,18.5C 177.672,17.7945 179.672,16.7945 181.5,15.5 Z"/></g>
<g><path style="opacity:0.004" fill="#2f302f" d="M 51.5,18.5 C 52.8333,19.1667 52.8333,19.1667 51.5,18.5 Z"/></g>
<g><path style="opacity:0.736" fill="#7f7e7e" d="M 68.5,16.5 C 66.8759,19.3584 67.5426,20.0251 70.5,18.5C 69.8888,20.7746 68.5554,22.4412 66.5,23.5C 65.8333,23.5 65.1667,23.5 64.5,23.5C 64.5569,22.391 64.8902,21.391 65.5,20.5C 66.1481,18.9142 66.6481,17.2475 67,15.5C 67.3826,16.056 67.8826,16.3893 68.5,16.5 Z"/></g>
<g><path style="opacity:0.004" fill="#343534" d="M 96.5,18.5 C 96.8333,18.5 97.1667,18.5 97.5,18.5C 97.3147,19.1701 96.9813,19.1701 96.5,18.5 Z"/></g>
<g><path style="opacity:0.004" fill="#2f302f" d="M 98.5,18.5 C 99.8333,19.1667 99.8333,19.1667 98.5,18.5 Z"/></g>
<g><path style="opacity:0.739" fill="#7f7f7e" d="M 113.5,16.5 C 113.877,18.8241 114.877,19.4908 116.5,18.5C 115.732,21.5616 113.732,23.2283 110.5,23.5C 110.557,22.391 110.89,21.391 111.5,20.5C 112.234,19.2921 112.567,17.9587 112.5,16.5C 112.833,15.1667 113.167,15.1667 113.5,16.5 Z"/></g>
<g><path style="opacity:0.004" fill="#313231" d="M 142.5,18.5 C 143.833,19.1667 143.833,19.1667 142.5,18.5 Z"/></g>
<g><path style="opacity:0.729" fill="#757575" d="M 166.5,16.5 C 167.391,17.1098 168.391,17.4431 169.5,17.5C 170.959,17.5674 172.292,17.2341 173.5,16.5C 173.473,18.1993 172.806,19.5326 171.5,20.5C 170.833,20.5 170.5,20.1667 170.5,19.5C 164.064,16.9323 163.397,17.9323 168.5,22.5C 167.833,22.5 167.5,22.8333 167.5,23.5C 167.167,24.5 166.5,25.1667 165.5,25.5C 165.414,24.5041 165.748,23.6708 166.5,23C 165.906,22.5357 165.239,22.369 164.5,22.5C 165.463,21.6365 165.463,20.9698 164.5,20.5C 163.735,21.6119 162.735,22.2786 161.5,22.5C 161.833,21.1667 162.167,19.8333 162.5,18.5C 163.79,17.9423 164.623,16.9423 165,15.5C 165.383,16.056 165.883,16.3893 166.5,16.5 Z"/></g>
<g><path style="opacity:0.976" fill="#8a8a8a" d="M 170.5,19.5 C 169.96,20.561 169.626,21.561 169.5,22.5C 169.167,22.5 168.833,22.5 168.5,22.5C 163.397,17.9323 164.064,16.9323 170.5,19.5 Z"/></g>
<g><path style="opacity:1" fill="#7d7d7d" d="M 173.5,16.5 C 174.833,16.5 175.5,17.1667 175.5,18.5C 175.5,19.1667 175.833,19.5 176.5,19.5C 176.5,20.1667 176.167,20.5 175.5,20.5C 174.039,21.6857 172.705,21.6857 171.5,20.5C 172.806,19.5326 173.473,18.1993 173.5,16.5 Z"/></g>
<g><path style="opacity:0.779" fill="#646464" d="M 9.5,16.5 C 11.0495,17.4408 12.7162,18.1075 14.5,18.5C 15.404,19.209 15.7373,20.209 15.5,21.5C 15.5,21.8333 15.5,22.1667 15.5,22.5C 14.2436,22.0962 13.0769,21.4295 12,20.5C 11.2352,20.5699 10.7352,20.9033 10.5,21.5C 9.54885,20.0813 9.21552,18.4147 9.5,16.5 Z"/></g>
<g><path style="opacity:0.712" fill="#7b7b7b" d="M 18.5,17.5 C 18.1307,19.9935 18.7973,20.6602 20.5,19.5C 22.099,19.2322 23.4324,19.5655 24.5,20.5C 22.9897,21.8361 21.3231,23.0027 19.5,24C 20.6843,25.1455 20.6843,26.3121 19.5,27.5C 18.8333,27.8333 18.1667,28.1667 17.5,28.5C 16.8333,28.5 16.5,28.1667 16.5,27.5C 16.5106,25.9826 17.1772,24.8159 18.5,24C 17.9056,23.5357 17.2389,23.369 16.5,23.5C 15.8333,23.5 15.5,23.1667 15.5,22.5C 15.5,22.1667 15.5,21.8333 15.5,21.5C 16.0221,19.7809 17.0221,18.4475 18.5,17.5 Z"/></g>
<g><path style="opacity:0.705" fill="#767676" d="M 62.5,17.5 C 63.8999,18.0998 64.8999,19.0998 65.5,20.5C 64.8902,21.391 64.5569,22.391 64.5,23.5C 63.1667,23.8333 61.8333,24.1667 60.5,24.5C 60.8333,23.8333 61.1667,23.1667 61.5,22.5C 61.6287,20.7839 61.962,19.1172 62.5,17.5 Z"/></g>
<g><path style="opacity:0.922" fill="#646464" d="M 102.5,17.5 C 102.833,17.5 103.167,17.5 103.5,17.5C 104.708,18.2341 106.041,18.5674 107.5,18.5C 107.5,19.5 107.5,20.5 107.5,21.5C 107.5,21.8333 107.5,22.1667 107.5,22.5C 106.21,20.86 104.543,20.36 102.5,21C 103.252,21.6708 103.586,22.5041 103.5,23.5C 101.271,21.9007 100.938,19.9007 102.5,17.5 Z"/></g>
<g><path style="opacity:0.716" fill="#777777" d="M 109.5,17.5 C 110.167,18.5 110.833,19.5 111.5,20.5C 110.89,21.391 110.557,22.391 110.5,23.5C 109.833,23.5 109.167,23.5 108.5,23.5C 107.833,23.5 107.5,23.1667 107.5,22.5C 107.5,22.1667 107.5,21.8333 107.5,21.5C 108.167,20.1667 108.833,18.8333 109.5,17.5 Z"/></g>
<g><path style="opacity:0.269" fill="#565656" d="M 128.5,18.5 C 129.5,18.5 130.5,18.5 131.5,18.5C 132.959,18.4326 134.292,18.7659 135.5,19.5C 135.672,20.4916 135.338,21.1583 134.5,21.5C 134.5,20.8333 134.167,20.5 133.5,20.5C 132.167,20.5 131.5,21.1667 131.5,22.5C 131.167,22.5 130.833,22.5 130.5,22.5C 130.5,21.8333 130.167,21.5 129.5,21.5C 128.833,21.5 128.167,21.5 127.5,21.5C 127.5,21.1667 127.5,20.8333 127.5,20.5C 128.338,20.1583 128.672,19.4916 128.5,18.5 Z"/></g>
<g><path style="opacity:1" fill="#7e7e7d" d="M 182.5,18.5 C 184.847,19.6069 185.18,21.2736 183.5,23.5C 181.735,24.4614 179.735,24.7947 177.5,24.5C 177.328,23.5084 177.662,22.8417 178.5,22.5C 179.492,22.6716 180.158,22.3382 180.5,21.5C 180.158,20.6618 179.492,20.3284 178.5,20.5C 179.076,17.8758 180.41,17.2092 182.5,18.5 Z"/></g>
<g><path style="opacity:0.004" fill="#363636" d="M 189.5,21.5 C 189.369,20.7611 189.536,20.0944 190,19.5C 190.692,20.4368 190.525,21.1034 189.5,21.5 Z"/></g>
<g><path style="opacity:0.357" fill="#545454" d="M 39.5,18.5 C 39.8333,18.5 40.1667,18.5 40.5,18.5C 41.8333,18.5 42.5,19.1667 42.5,20.5C 42.1667,20.5 41.8333,20.5 41.5,20.5C 40.1667,20.5 39.5,21.1667 39.5,22.5C 39.1667,22.5 38.8333,22.5 38.5,22.5C 38.5,21.8333 38.1667,21.5 37.5,21.5C 36.0857,19.4017 36.7524,18.4017 39.5,18.5 Z"/></g>
<g><path style="opacity:0.004" fill="#343534" d="M 51.5,20.5 C 52.8333,21.1667 52.8333,21.1667 51.5,20.5 Z"/></g>
<g><path style="opacity:0.373" fill="#545454" d="M 84.5,18.5 C 84.8333,18.5 85.1667,18.5 85.5,18.5C 86.5,18.5 87.5,18.5 88.5,18.5C 88.6716,19.4916 88.3382,20.1583 87.5,20.5C 87.1667,19.1667 86.8333,19.1667 86.5,20.5C 85.6618,20.8417 85.3284,21.5084 85.5,22.5C 85.1667,22.5 84.8333,22.5 84.5,22.5C 84.5,21.8333 84.1667,21.5 83.5,21.5C 82.5028,21.4701 81.8361,21.9701 81.5,23C 82.0556,24.0111 82.7222,24.8444 83.5,25.5C 82.8333,25.5 82.1667,25.5 81.5,25.5C 80.5987,24.7095 79.9321,23.7095 79.5,22.5C 80.8333,22.1667 80.8333,21.8333 79.5,21.5C 79.5,20.8333 79.8333,20.5 80.5,20.5C 81.8333,19.8333 83.1667,19.1667 84.5,18.5 Z"/></g>
<g><path style="opacity:0.004" fill="#323332" d="M 96.5,20.5 C 97.8333,21.1667 97.8333,21.1667 96.5,20.5 Z"/></g>
<g><path style="opacity:0.95" fill="#807f7e" d="M 137.5,15.5 C 139.396,17.8368 140.73,20.5035 141.5,23.5C 138.272,22.5863 134.939,22.2529 131.5,22.5C 131.5,21.1667 132.167,20.5 133.5,20.5C 134.167,20.5 134.5,20.8333 134.5,21.5C 135.338,21.1583 135.672,20.4916 135.5,19.5C 135.81,18.2617 136.31,18.2617 137,19.5C 137.49,18.2068 137.657,16.8734 137.5,15.5 Z"/></g>
<g><path style="opacity:0.004" fill="#353535" d="M 142.5,21.5 C 142.897,20.475 143.563,20.3083 144.5,21C 143.906,21.4643 143.239,21.631 142.5,21.5 Z"/></g>
<g><path style="opacity:0.735" fill="#656564" d="M 148.5,16.5 C 148.5,17.1667 148.5,17.8333 148.5,18.5C 148.918,19.2216 149.584,19.7216 150.5,20C 149.594,21.6995 149.261,23.5328 149.5,25.5C 147.777,23.22 147.111,20.5533 147.5,17.5C 147.5,16.8333 147.833,16.5 148.5,16.5 Z"/></g>
<g><path style="opacity:0.688" fill="#525252" d="M 176.5,19.5 C 177.167,19.8333 177.833,20.1667 178.5,20.5C 179.492,20.3284 180.158,20.6618 180.5,21.5C 179.508,21.3284 178.842,21.6618 178.5,22.5C 177.662,22.8417 177.328,23.5084 177.5,24.5C 177.167,24.5 176.833,24.5 176.5,24.5C 176.5,23.8333 176.167,23.5 175.5,23.5C 176.833,22.5 176.833,21.5 175.5,20.5C 176.167,20.5 176.5,20.1667 176.5,19.5 Z"/></g>
<g><path style="opacity:0.128" fill="#50504f" d="M 9.5,15.5 C 9.5,15.8333 9.5,16.1667 9.5,16.5C 9.21552,18.4147 9.54885,20.0813 10.5,21.5C 10.3284,22.4916 10.6618,23.1583 11.5,23.5C 11.8333,24.1667 12.1667,24.8333 12.5,25.5C 11.1779,25.67 10.0113,25.3366 9,24.5C 8.19549,21.3035 8.36216,18.3035 9.5,15.5 Z"/></g>
<g><path style="opacity:0.412" fill="#515152" d="M 31.5,20.5 C 31.6287,22.2161 31.962,23.8828 32.5,25.5C 31.2101,24.9423 30.3768,23.9423 30,22.5C 29.3292,23.2524 28.4959,23.5858 27.5,23.5C 27.8302,20.5375 29.1635,19.5375 31.5,20.5 Z"/></g>
<g><path style="opacity:0.244" fill="#5f5f5f" d="M 70.5,18.5 C 74.0048,18.6941 74.3382,19.6941 71.5,21.5C 70.1667,21.8333 70.1667,22.1667 71.5,22.5C 71.5,22.8333 71.5,23.1667 71.5,23.5C 70.1667,23.8333 68.8333,24.1667 67.5,24.5C 67.5,23.8333 67.1667,23.5 66.5,23.5C 68.5554,22.4412 69.8888,20.7746 70.5,18.5 Z"/></g>
<g><path style="opacity:0.384" fill="#515151" d="M 77.5,20.5 C 77.6287,22.2161 77.962,23.8828 78.5,25.5C 77.2101,24.9423 76.3768,23.9423 76,22.5C 75.3292,23.2524 74.4959,23.5858 73.5,23.5C 73.8302,20.5375 75.1635,19.5375 77.5,20.5 Z"/></g>
<g><path style="opacity:0.343" fill="#525252" d="M 123.5,20.5 C 123.629,22.2161 123.962,23.8828 124.5,25.5C 123.21,24.9423 122.377,23.9423 122,22.5C 121.329,23.2524 120.496,23.5858 119.5,23.5C 119.83,20.5375 121.164,19.5375 123.5,20.5 Z"/></g>
<g><path style="opacity:0.719" fill="#777777" d="M 154.5,19.5 C 155.9,20.0998 156.9,21.0998 157.5,22.5C 157.328,23.4916 157.662,24.1583 158.5,24.5C 158.158,25.3382 157.492,25.6716 156.5,25.5C 155.167,25.8333 153.833,26.1667 152.5,26.5C 153.933,24.4418 154.6,22.1085 154.5,19.5 Z"/></g>
<g><path style="opacity:0.801" fill="#818181" d="M 159.5,18.5 C 160.5,18.5 161.5,18.5 162.5,18.5C 162.167,19.8333 161.833,21.1667 161.5,22.5C 161.027,23.9063 160.027,24.573 158.5,24.5C 157.662,24.1583 157.328,23.4916 157.5,22.5C 158.167,21.1667 158.833,19.8333 159.5,18.5 Z"/></g>
<g><path style="opacity:0.004" fill="#353535" d="M 189.5,21.5 C 191.031,22.9245 190.698,23.5912 188.5,23.5C 188.328,22.5084 188.662,21.8417 189.5,21.5 Z"/></g>
<g><path style="opacity:0.004" fill="#363736" d="M 192.5,21.5 C 193.833,22.1667 193.833,22.1667 192.5,21.5 Z"/></g>
<g><path style="opacity:0.937" fill="#737373" d="M 15.5,22.5 C 15.5,23.1667 15.8333,23.5 16.5,23.5C 15.0011,24.494 13.3344,24.494 11.5,23.5C 10.6618,23.1583 10.3284,22.4916 10.5,21.5C 10.7352,20.9033 11.2352,20.5699 12,20.5C 13.0769,21.4295 14.2436,22.0962 15.5,22.5 Z"/></g>
<g><path style="opacity:0.741" fill="#757575" d="M 35.5,17.5 C 37.099,17.2322 38.4324,17.5655 39.5,18.5C 36.7524,18.4017 36.0857,19.4017 37.5,21.5C 37.5,21.8333 37.5,22.1667 37.5,22.5C 37.44,23.0431 37.1067,23.3764 36.5,23.5C 35.8333,22.5 35.1667,21.5 34.5,20.5C 33.8933,20.6236 33.56,20.9569 33.5,21.5C 33.5,21.8333 33.5,22.1667 33.5,22.5C 33.8333,23.1667 34.1667,23.8333 34.5,24.5C 33.596,25.209 33.2627,26.209 33.5,27.5C 32.6618,27.1583 32.3284,26.4916 32.5,25.5C 31.962,23.8828 31.6287,22.2161 31.5,20.5C 32.1667,20.5 32.5,20.1667 32.5,19.5C 32.9731,18.0937 33.9731,17.427 35.5,17.5 Z"/></g>
<g><path style="opacity:0.114" fill="#505050" d="M 54.5,19.5 C 55.6006,20.8484 56.6006,22.3484 57.5,24C 58.448,24.4828 59.448,24.6495 60.5,24.5C 61.8333,24.1667 63.1667,23.8333 64.5,23.5C 65.1667,23.5 65.8333,23.5 66.5,23.5C 67.1667,23.5 67.5,23.8333 67.5,24.5C 65.302,24.1201 63.6354,24.7868 62.5,26.5C 61.8333,26.5 61.1667,26.5 60.5,26.5C 58.7816,25.776 56.9483,25.1094 55,24.5C 54.5983,23.1279 54.0983,21.7946 53.5,20.5C 53.6236,19.8933 53.9569,19.56 54.5,19.5 Z"/></g>
<g><path style="opacity:0.409" fill="#565656" d="M 101.5,15.5 C 101.833,16.1667 102.167,16.8333 102.5,17.5C 100.938,19.9007 101.271,21.9007 103.5,23.5C 105.117,24.038 106.784,24.3713 108.5,24.5C 108.232,26.099 108.566,27.4324 109.5,28.5C 108.081,31.1004 106.415,33.6004 104.5,36C 103.517,36.5908 102.85,36.2575 102.5,35C 104.285,32.6028 105.951,30.1028 107.5,27.5C 105.667,25.95 103.501,24.95 101,24.5C 100.195,21.3035 100.362,18.3035 101.5,15.5 Z"/></g>
<g><path style="opacity:0.788" fill="#707070" d="M 107.5,22.5 C 107.5,23.1667 107.833,23.5 108.5,23.5C 108.5,23.8333 108.5,24.1667 108.5,24.5C 106.784,24.3713 105.117,24.038 103.5,23.5C 103.586,22.5041 103.252,21.6708 102.5,21C 104.543,20.36 106.21,20.86 107.5,22.5 Z"/></g>
<g><path style="opacity:0.059" fill="#5b5b5b" d="M 116.5,18.5 C 117.5,18.5 118.5,18.5 119.5,18.5C 119.573,20.0269 118.906,21.0269 117.5,21.5C 116.167,21.8333 116.167,22.1667 117.5,22.5C 117.5,22.8333 117.5,23.1667 117.5,23.5C 116.5,23.5 115.5,23.5 114.5,23.5C 112.452,24.77 110.452,25.1033 108.5,24.5C 108.5,24.1667 108.5,23.8333 108.5,23.5C 109.167,23.5 109.833,23.5 110.5,23.5C 113.732,23.2283 115.732,21.5616 116.5,18.5 Z"/></g>
<g><path style="opacity:0.384" fill="#474747" d="M 167.5,23.5 C 167.5,22.8333 167.833,22.5 168.5,22.5C 168.833,22.5 169.167,22.5 169.5,22.5C 169.629,24.2161 169.962,25.8828 170.5,27.5C 169.143,26.4097 168.143,25.0764 167.5,23.5 Z"/></g>
<g><path style="opacity:0.986" fill="#737372" d="M 182.5,16.5 C 184.727,18.6068 186.727,20.9401 188.5,23.5C 188.5,24.1667 188.167,24.5 187.5,24.5C 186.167,24.1667 184.833,23.8333 183.5,23.5C 185.18,21.2736 184.847,19.6069 182.5,18.5C 182.5,17.8333 182.5,17.1667 182.5,16.5 Z"/></g>
<g><path style="opacity:0.467" fill="#585857" d="M 33.5,21.5 C 33.56,20.9569 33.8933,20.6236 34.5,20.5C 35.1667,21.5 35.8333,22.5 36.5,23.5C 37.1067,23.3764 37.44,23.0431 37.5,22.5C 37.8333,22.5 38.1667,22.5 38.5,22.5C 38.5,23.1667 38.8333,23.5 39.5,23.5C 39.5,23.8333 39.5,24.1667 39.5,24.5C 38.9569,24.56 38.6236,24.8933 38.5,25.5C 39.2427,26.1818 39.9094,26.8485 40.5,27.5C 39.0413,27.5674 37.7079,27.2341 36.5,26.5C 36.5,25.8333 36.1667,25.5 35.5,25.5C 34.8333,25.5 34.5,25.1667 34.5,24.5C 34.1667,23.8333 33.8333,23.1667 33.5,22.5C 34.8333,22.1667 34.8333,21.8333 33.5,21.5 Z"/></g>
<g><path style="opacity:0.424" fill="#6d6c6c" d="M 39.5,23.5 C 39.5,23.1667 39.5,22.8333 39.5,22.5C 41.5,22.5 43.5,22.5 45.5,22.5C 45.5,23.1667 45.8333,23.5 46.5,23.5C 46.5,23.8333 46.5,24.1667 46.5,24.5C 46.6309,25.3764 46.2975,26.0431 45.5,26.5C 44.3578,25.1738 43.0245,24.1738 41.5,23.5C 40.8333,23.5 40.1667,23.5 39.5,23.5 Z"/></g>
<g><path style="opacity:0.004" fill="#363737" d="M 50.5,24.5 C 50.8966,23.475 51.5632,23.3083 52.5,24C 51.9056,24.4643 51.2389,24.631 50.5,24.5 Z"/></g>
<g><path style="opacity:0.549" fill="#606060" d="M 95.5,21.5 C 95.8333,21.5 96.1667,21.5 96.5,21.5C 96.5,22.1667 96.5,22.8333 96.5,23.5C 95.0857,25.918 93.0857,27.5847 90.5,28.5C 90.1667,28.5 89.8333,28.5 89.5,28.5C 89.5,27.5 89.5,26.5 89.5,25.5C 89.1583,24.6618 88.4916,24.3284 87.5,24.5C 87.1583,23.6618 86.4916,23.3284 85.5,23.5C 85.5,23.1667 85.5,22.8333 85.5,22.5C 89.0419,22.8128 92.3752,22.4794 95.5,21.5 Z"/></g>
<g><path style="opacity:0.004" fill="#373837" d="M 96.5,23.5 C 97.8333,24.1667 97.8333,24.1667 96.5,23.5 Z"/></g>
<g><path style="opacity:0.467" fill="#686868" d="M 114.5,23.5 C 115.5,23.5 116.5,23.5 117.5,23.5C 118.167,23.5 118.833,23.5 119.5,23.5C 117.65,25.5716 115.317,26.9049 112.5,27.5C 113.167,26.1667 113.833,24.8333 114.5,23.5 Z"/></g>
<g><path style="opacity:0.004" fill="#373938" d="M 142.5,23.5 C 143.833,24.1667 143.833,24.1667 142.5,23.5 Z"/></g>
<g><path style="opacity:0.148" fill="#515150" d="M 147.5,17.5 C 147.111,20.5533 147.777,23.22 149.5,25.5C 150.609,25.5569 151.609,25.8902 152.5,26.5C 153.833,26.1667 155.167,25.8333 156.5,25.5C 156.5,25.8333 156.5,26.1667 156.5,26.5C 155.833,26.5 155.5,26.8333 155.5,27.5C 155.167,27.5 154.833,27.5 154.5,27.5C 151.881,27.7683 149.381,27.435 147,26.5C 146.727,24.8988 146.227,23.3988 145.5,22C 146.099,20.3775 146.766,18.8775 147.5,17.5 Z"/></g>
<g><path style="opacity:0.004" fill="#353635" d="M 49.5,24.5 C 49.8333,24.5 50.1667,24.5 50.5,24.5C 50.3147,25.1701 49.9813,25.1701 49.5,24.5 Z"/></g>
<g><path style="opacity:0.657" fill="#70706f" d="M 71.5,23.5 C 72.1667,23.5 72.8333,23.5 73.5,23.5C 70.6271,25.9135 67.2937,27.5801 63.5,28.5C 61.3227,29.5042 60.9893,28.8375 62.5,26.5C 63.6354,24.7868 65.302,24.1201 67.5,24.5C 68.8333,24.1667 70.1667,23.8333 71.5,23.5 Z"/></g>
<g><path style="opacity:0.051" fill="#545454" d="M 127.5,20.5 C 127.5,20.8333 127.5,21.1667 127.5,21.5C 127.369,22.2389 127.536,22.9056 128,23.5C 130.071,25.4375 132.238,27.1041 134.5,28.5C 132.009,28.1712 129.843,27.1712 128,25.5C 127.53,26.5768 127.697,27.5768 128.5,28.5C 126.204,28.8041 125.871,29.8041 127.5,31.5C 125.621,30.1048 124.621,28.1048 124.5,25.5C 126.783,26.0764 127.117,25.0764 125.5,22.5C 126.167,22.5 126.5,22.1667 126.5,21.5C 126.5,20.8333 126.833,20.5 127.5,20.5 Z"/></g>
<g><path style="opacity:0.067" fill="#575656" d="M 131.5,23.5 C 131.5,23.1667 131.5,22.8333 131.5,22.5C 134.939,22.2529 138.272,22.5863 141.5,23.5C 140.953,26.2122 139.287,27.7122 136.5,28C 137.056,28.3826 137.389,28.8826 137.5,29.5C 137.062,29.4346 136.728,29.6012 136.5,30C 137.381,30.7083 138.047,31.5416 138.5,32.5C 136.167,32.1667 134.833,30.8333 134.5,28.5C 135.268,27.7375 135.768,26.7375 136,25.5C 137.579,26.7996 138.745,26.4663 139.5,24.5C 139.167,23.1667 138.833,23.1667 138.5,24.5C 137.167,24.5 135.833,24.5 134.5,24.5C 134.167,24.5 133.833,24.5 133.5,24.5C 133.158,23.6618 132.492,23.3284 131.5,23.5 Z"/></g>
<g><path style="opacity:0.016" fill="#595958" d="M 164.5,22.5 C 162.421,24.873 159.754,26.2064 156.5,26.5C 156.5,26.1667 156.5,25.8333 156.5,25.5C 157.492,25.6716 158.158,25.3382 158.5,24.5C 160.027,24.573 161.027,23.9063 161.5,22.5C 162.735,22.2786 163.735,21.6119 164.5,20.5C 165.463,20.9698 165.463,21.6365 164.5,22.5 Z"/></g>
<g><path style="opacity:0.843" fill="#777777" d="M 170.5,19.5 C 170.5,20.1667 170.833,20.5 171.5,20.5C 172.705,21.6857 174.039,21.6857 175.5,20.5C 176.833,21.5 176.833,22.5 175.5,23.5C 175.5,23.8333 175.5,24.1667 175.5,24.5C 175.44,25.0431 175.107,25.3764 174.5,25.5C 173.833,24.5 173.167,23.5 172.5,22.5C 171.893,22.6236 171.56,22.9569 171.5,23.5C 171.5,23.8333 171.5,24.1667 171.5,24.5C 171.932,25.7095 172.599,26.7095 173.5,27.5C 172.652,28.625 171.652,28.625 170.5,27.5C 169.962,25.8828 169.629,24.2161 169.5,22.5C 169.626,21.561 169.96,20.561 170.5,19.5 Z"/></g>
<g><path style="opacity:0.316" fill="#555555" d="M 183.5,23.5 C 184.833,23.8333 186.167,24.1667 187.5,24.5C 187.5,25.1667 187.5,25.8333 187.5,26.5C 186.728,27.6935 185.728,28.6935 184.5,29.5C 184.539,28.4168 184.873,27.4168 185.5,26.5C 184.675,25.6143 183.675,25.281 182.5,25.5C 182.433,26.9587 182.766,28.2921 183.5,29.5C 183.167,29.5 182.833,29.5 182.5,29.5C 181.599,28.7095 180.932,27.7095 180.5,26.5C 179.791,25.596 178.791,25.2627 177.5,25.5C 177.5,25.1667 177.5,24.8333 177.5,24.5C 179.735,24.7947 181.735,24.4614 183.5,23.5 Z"/></g>
<g><path style="opacity:0.016" fill="#515151" d="M 11.5,23.5 C 13.3344,24.494 15.0011,24.494 16.5,23.5C 17.2389,23.369 17.9056,23.5357 18.5,24C 17.1772,24.8159 16.5106,25.9826 16.5,27.5C 15.8333,28.1667 15.1667,28.8333 14.5,29.5C 14.8432,27.5168 14.1765,26.1834 12.5,25.5C 12.1667,24.8333 11.8333,24.1667 11.5,23.5 Z"/></g>
<g><path style="opacity:0.69" fill="#5a5a5a" d="M 25.5,18.5 C 27.9845,19.2601 27.9845,20.2601 25.5,21.5C 24.1667,21.8333 24.1667,22.1667 25.5,22.5C 24.3998,23.5585 23.0664,24.3918 21.5,25C 22.448,25.4828 23.448,25.6495 24.5,25.5C 23.0697,26.5375 21.403,27.2041 19.5,27.5C 20.6843,26.3121 20.6843,25.1455 19.5,24C 21.3231,23.0027 22.9897,21.8361 24.5,20.5C 25.3382,20.1583 25.6716,19.4916 25.5,18.5 Z"/></g>
<g><path style="opacity:0.59" fill="#797979" d="M 83.5,21.5 C 84.1667,21.5 84.5,21.8333 84.5,22.5C 84.5,23.1667 84.8333,23.5 85.5,23.5C 85.8417,24.3382 86.5084,24.6716 87.5,24.5C 87.8417,25.3382 88.5084,25.6716 89.5,25.5C 89.5,26.5 89.5,27.5 89.5,28.5C 89.1667,28.5 88.8333,28.5 88.5,28.5C 87.2318,26.953 85.5652,25.953 83.5,25.5C 82.7222,24.8444 82.0556,24.0111 81.5,23C 81.8361,21.9701 82.5028,21.4701 83.5,21.5 Z"/></g>
<g><path style="opacity:0.618" fill="#787877" d="M 114.5,23.5 C 113.833,24.8333 113.167,26.1667 112.5,27.5C 111.391,27.5569 110.391,27.8902 109.5,28.5C 108.566,27.4324 108.232,26.099 108.5,24.5C 110.452,25.1033 112.452,24.77 114.5,23.5 Z"/></g>
<g><path style="opacity:0.141" fill="#7a7a7b" d="M 127.5,21.5 C 128.167,21.5 128.833,21.5 129.5,21.5C 130.167,21.5 130.5,21.8333 130.5,22.5C 130.5,23.1667 130.833,23.5 131.5,23.5C 131.842,24.3382 132.508,24.6716 133.5,24.5C 133.833,25.8333 134.167,25.8333 134.5,24.5C 135.833,24.5 137.167,24.5 138.5,24.5C 138.833,24.5 139.167,24.5 139.5,24.5C 138.745,26.4663 137.579,26.7996 136,25.5C 135.768,26.7375 135.268,27.7375 134.5,28.5C 132.238,27.1041 130.071,25.4375 128,23.5C 127.536,22.9056 127.369,22.2389 127.5,21.5 Z"/></g>
<g><path style="opacity:0.449" fill="#575757" d="M 171.5,23.5 C 171.56,22.9569 171.893,22.6236 172.5,22.5C 173.167,23.5 173.833,24.5 174.5,25.5C 175.107,25.3764 175.44,25.0431 175.5,24.5C 175.833,24.5 176.167,24.5 176.5,24.5C 176.5,25.1667 176.833,25.5 177.5,25.5C 177.5,25.8333 177.5,26.1667 177.5,26.5C 176.957,26.56 176.624,26.8933 176.5,27.5C 177.602,28.1757 178.602,28.8423 179.5,29.5C 177.446,29.6347 175.779,28.968 174.5,27.5C 174.167,26.1667 173.833,26.1667 173.5,27.5C 172.599,26.7095 171.932,25.7095 171.5,24.5C 172.833,24.1667 172.833,23.8333 171.5,23.5 Z"/></g>
<g><path style="opacity:0.004" fill="#343434" d="M 187.5,26.5 C 188.363,25.537 189.03,25.537 189.5,26.5C 188.743,27.7733 188.077,27.7733 187.5,26.5 Z"/></g>
<g><path style="opacity:0.639" fill="#7e7d7c" d="M 34.5,24.5 C 34.5,25.1667 34.8333,25.5 35.5,25.5C 36.1667,25.5 36.5,25.8333 36.5,26.5C 36.5,27.1667 36.5,27.8333 36.5,28.5C 36.4142,29.4959 36.7476,30.3292 37.5,31C 36.9056,31.4643 36.2389,31.631 35.5,31.5C 35.0113,30.0048 34.3446,28.6715 33.5,27.5C 33.2627,26.209 33.596,25.209 34.5,24.5 Z"/></g>
<g><path style="opacity:0.204" fill="#515151" d="M 48.5,20.5 C 49.4345,21.5676 49.7678,22.901 49.5,24.5C 48.6255,26.69 46.9589,27.69 44.5,27.5C 43.5,27.1667 42.8333,26.5 42.5,25.5C 42.5,24.8333 42.1667,24.5 41.5,24.5C 41.5,24.1667 41.5,23.8333 41.5,23.5C 43.0245,24.1738 44.3578,25.1738 45.5,26.5C 46.2975,26.0431 46.6309,25.3764 46.5,24.5C 47.8333,24.1667 47.8333,23.8333 46.5,23.5C 45.8333,23.5 45.5,23.1667 45.5,22.5C 47.1788,22.7148 48.1788,22.0481 48.5,20.5 Z"/></g>
<g><path style="opacity:0.004" fill="#333332" d="M 51.5,26.5 C 52.8333,27.1667 52.8333,27.1667 51.5,26.5 Z"/></g>
<g><path style="opacity:0.71" fill="#565656" d="M 83.5,25.5 C 85.5652,25.953 87.2318,26.953 88.5,28.5C 86.1523,28.4077 84.4856,27.4077 83.5,25.5 Z"/></g>
<g><path style="opacity:0.004" fill="#333332" d="M 142.5,26.5 C 143.833,27.1667 143.833,27.1667 142.5,26.5 Z"/></g>
<g><path style="opacity:0.4" fill="#767674" d="M 184.5,29.5 C 184.167,29.5 183.833,29.5 183.5,29.5C 182.766,28.2921 182.433,26.9587 182.5,25.5C 183.675,25.281 184.675,25.6143 185.5,26.5C 184.873,27.4168 184.539,28.4168 184.5,29.5 Z"/></g>
<g><path style="opacity:0.004" fill="#333433" d="M 75.5,27.5 C 76.8333,28.1667 76.8333,28.1667 75.5,27.5 Z"/></g>
<g><path style="opacity:0.004" fill="#353535" d="M 121.5,28.5 C 121.897,27.475 122.563,27.3083 123.5,28C 122.906,28.4643 122.239,28.631 121.5,28.5 Z"/></g>
<g><path style="opacity:0.678" fill="#7c7c7b" d="M 164.5,22.5 C 165.239,22.369 165.906,22.5357 166.5,23C 165.748,23.6708 165.414,24.5041 165.5,25.5C 164.486,26.6737 163.153,27.3404 161.5,27.5C 159.62,27.2291 158.287,27.8958 157.5,29.5C 157.167,29.5 156.833,29.5 156.5,29.5C 155.508,29.6716 154.842,29.3382 154.5,28.5C 154.5,28.1667 154.5,27.8333 154.5,27.5C 154.833,27.5 155.167,27.5 155.5,27.5C 156.167,27.5 156.5,27.1667 156.5,26.5C 159.754,26.2064 162.421,24.873 164.5,22.5 Z"/></g>
<g><path style="opacity:0.461" fill="#474747" d="M 33.5,27.5 C 34.3446,28.6715 35.0113,30.0048 35.5,31.5C 33.8235,30.8166 33.1568,29.4832 33.5,27.5 Z"/></g>
<g><path style="opacity:0.004" fill="#363736" d="M 54.5,28.5 C 55.8333,29.1667 55.8333,29.1667 54.5,28.5 Z"/></g>
<g><path style="opacity:0.004" fill="#363736" d="M 99.5,28.5 C 100.833,29.1667 100.833,29.1667 99.5,28.5 Z"/></g>
<g><path style="opacity:0.81" fill="#828281" d="M 128.5,28.5 C 129.167,28.5 129.5,28.8333 129.5,29.5C 129.5,30.8333 128.833,31.5 127.5,31.5C 125.871,29.8041 126.204,28.8041 128.5,28.5 Z"/></g>
<g><path style="opacity:0.012" fill="#4b4b4a" d="M 161.5,27.5 C 160.486,28.6737 159.153,29.3404 157.5,29.5C 158.287,27.8958 159.62,27.2291 161.5,27.5 Z"/></g>
<g><path style="opacity:0.004" fill="#333433" d="M 167.5,28.5 C 168.833,29.1667 168.833,29.1667 167.5,28.5 Z"/></g>
<g><path style="opacity:0.806" fill="#5a5a59" d="M 170.5,27.5 C 171.652,28.625 172.652,28.625 173.5,27.5C 173.833,27.5 174.167,27.5 174.5,27.5C 174.5,28.5 174.5,29.5 174.5,30.5C 173.167,30.5 172.5,31.1667 172.5,32.5C 171.463,31.0697 170.796,29.403 170.5,27.5 Z"/></g>
<g><path style="opacity:0.004" fill="#343534" d="M 189.5,29.5 C 189.897,28.475 190.563,28.3083 191.5,29C 190.906,29.4643 190.239,29.631 189.5,29.5 Z"/></g>
<g><path style="opacity:0.29" fill="#515151" d="M 79.5,27.5 C 80.2832,29.0758 81.4499,30.4092 83,31.5C 83.4643,30.9056 83.631,30.2389 83.5,29.5C 84.5,29.8333 85.1667,30.5 85.5,31.5C 84.6618,31.8417 84.3284,32.5084 84.5,33.5C 82.6137,32.6394 80.7804,31.6394 79,30.5C 78.5304,29.4232 78.6971,28.4232 79.5,27.5 Z"/></g>
<g><path style="opacity:0.706" fill="#6e6e6e" d="M 88.5,28.5 C 88.8333,28.5 89.1667,28.5 89.5,28.5C 89.8333,28.5 90.1667,28.5 90.5,28.5C 91.8853,29.6138 93.3853,30.6138 95,31.5C 95.6877,32.3317 95.521,32.9984 94.5,33.5C 91.2418,33.2167 89.2418,31.5501 88.5,28.5 Z"/></g>
<g><path style="opacity:0.612" fill="#70706f" d="M 39.5,24.5 C 40.1667,24.5 40.8333,24.5 41.5,24.5C 42.1667,24.5 42.5,24.8333 42.5,25.5C 42.8333,26.5 43.5,27.1667 44.5,27.5C 45.4006,29.7271 47.0672,30.7271 49.5,30.5C 49.5,31.5 49.5,32.5 49.5,33.5C 45.4103,33.0681 42.4103,31.0681 40.5,27.5C 39.9094,26.8485 39.2427,26.1818 38.5,25.5C 38.6236,24.8933 38.9569,24.56 39.5,24.5 Z"/></g>
<g><path style="opacity:0.339" fill="#797979" d="M 137.5,29.5 C 139.703,30.0516 140.536,31.3849 140,33.5C 139.617,32.944 139.117,32.6107 138.5,32.5C 138.047,31.5416 137.381,30.7083 136.5,30C 136.728,29.6012 137.062,29.4346 137.5,29.5 Z"/></g>
<g><path style="opacity:0.839" fill="#727171" d="M 177.5,26.5 C 178.5,26.5 179.5,26.5 180.5,26.5C 180.932,27.7095 181.599,28.7095 182.5,29.5C 183.622,30.9473 185.122,31.9473 187,32.5C 187.432,33.6001 186.932,34.2668 185.5,34.5C 182.28,34.232 180.28,32.5653 179.5,29.5C 178.602,28.8423 177.602,28.1757 176.5,27.5C 176.624,26.8933 176.957,26.56 177.5,26.5 Z"/></g>
<g><path style="opacity:0.753" fill="#696968" d="M 16.5,27.5 C 16.5,28.1667 16.8333,28.5 17.5,28.5C 16.7515,30.3325 15.7515,31.9991 14.5,33.5C 13.5084,33.6716 12.8417,33.3382 12.5,32.5C 12.9321,31.2905 13.5987,30.2905 14.5,29.5C 15.1667,28.8333 15.8333,28.1667 16.5,27.5 Z"/></g>
<g><path style="opacity:0.459" fill="#676766" d="M 36.5,28.5 C 38.6279,30.4025 40.9613,32.0692 43.5,33.5C 44.3857,34.325 44.719,35.325 44.5,36.5C 41.0516,35.6099 38.0516,33.9432 35.5,31.5C 36.2389,31.631 36.9056,31.4643 37.5,31C 36.7476,30.3292 36.4142,29.4959 36.5,28.5 Z"/></g>
<g><path style="opacity:0.714" fill="#595959" d="M 60.5,26.5 C 61.1667,26.5 61.8333,26.5 62.5,26.5C 60.9893,28.8375 61.3227,29.5042 63.5,28.5C 62.4803,31.8603 60.4803,34.527 57.5,36.5C 57.1667,36 56.8333,35.5 56.5,35C 58.7739,32.6184 60.1073,29.7851 60.5,26.5 Z"/></g>
<g><path style="opacity:0.463" fill="#656565" d="M 129.5,29.5 C 132.9,30.8997 135.233,33.2331 136.5,36.5C 133.052,35.6099 130.052,33.9432 127.5,31.5C 128.833,31.5 129.5,30.8333 129.5,29.5 Z"/></g>
<g><path style="opacity:0.004" fill="#3a3b3a" d="M 195.5,33.5 C 196.833,34.1667 196.833,34.1667 195.5,33.5 Z"/></g>
<g><path style="opacity:0.478" fill="#616161" d="M 85.5,31.5 C 88.3345,32.0695 90.0012,33.7361 90.5,36.5C 88.0301,36.3465 86.0301,35.3465 84.5,33.5C 84.3284,32.5084 84.6618,31.8417 85.5,31.5 Z"/></g>
<g><path style="opacity:0.753" fill="#626261" d="M 154.5,28.5 C 154.842,29.3382 155.508,29.6716 156.5,29.5C 154.851,32.6432 152.684,35.3098 150,37.5C 149.5,37.1667 149,36.8333 148.5,36.5C 150.544,33.6872 152.544,31.0206 154.5,28.5 Z"/></g>
<g><path style="opacity:0.722" fill="#6d6d6c" d="M 174.5,30.5 C 177.137,32.491 179.804,34.491 182.5,36.5C 178.636,36.9148 175.302,35.5815 172.5,32.5C 172.5,31.1667 173.167,30.5 174.5,30.5 Z"/></g>
<g><path style="opacity:0.022" fill="#4a4a49" d="M 12.5,32.5 C 12.8417,33.3382 13.5084,33.6716 14.5,33.5C 13.5346,36.0848 12.2012,36.5848 10.5,35C 10.6387,33.699 11.3054,32.8656 12.5,32.5 Z"/></g>
</svg>
