<?xml version="1.0" encoding="UTF-8"?>
<!DOCTYPE svg PUBLIC "-//W3C//DTD SVG 1.1//EN" "http://www.w3.org/Graphics/SVG/1.1/DTD/svg11.dtd">
<svg xmlns="http://www.w3.org/2000/svg" version="1.1" width="130px" height="25px" style="shape-rendering:geometricPrecision; text-rendering:geometricPrecision; image-rendering:optimizeQuality; fill-rule:evenodd; clip-rule:evenodd" xmlns:xlink="http://www.w3.org/1999/xlink">
<g><path style="opacity:0.88" fill="#010101" d="M 9.5,-0.5 C 10.8333,-0.5 12.1667,-0.5 13.5,-0.5C 24.0115,3.20749 26.8448,10.2075 22,20.5C 20.1879,21.9771 18.3545,23.3104 16.5,24.5C 13.5,24.5 10.5,24.5 7.5,24.5C 4.09299,22.0967 1.42632,19.0967 -0.5,15.5C -0.5,13.5 -0.5,11.5 -0.5,9.5C 1.16667,4.5 4.5,1.16667 9.5,-0.5 Z"/></g>
<g><path style="opacity:1" fill="#999a9b" d="M 16.5,9.5 C 14.9397,9.48091 13.4397,9.14758 12,8.5C 10.6998,9.70728 9.19981,10.3739 7.5,10.5C 7.5,9.16667 7.5,7.83333 7.5,6.5C 10.1873,6.33591 12.854,6.50258 15.5,7C 16.2524,7.67076 16.5858,8.5041 16.5,9.5 Z"/></g>
<g><path style="opacity:0.764" fill="#e9e9e9" d="M 27.5,6.5 C 31.9536,5.6171 35.4536,6.95043 38,10.5C 42.6667,10.5 47.3333,10.5 52,10.5C 52.779,9.27181 53.779,8.27181 55,7.5C 58.156,8.67601 61.156,10.0093 64,11.5C 66.718,8.92993 69.3847,8.92993 72,11.5C 74.718,8.92993 77.3847,8.92993 80,11.5C 83.8362,9.61118 88.0029,8.94451 92.5,9.5C 93.0916,12.1272 93.4249,14.7938 93.5,17.5C 92.1667,17.5 90.8333,17.5 89.5,17.5C 89.1667,10.8333 88.8333,10.8333 88.5,17.5C 87.5,17.5 86.5,17.5 85.5,17.5C 85.1667,13.5 84.8333,13.5 84.5,17.5C 77.6344,17.3661 70.9678,17.0327 64.5,16.5C 62.8623,11.414 61.8623,11.7474 61.5,17.5C 58.8333,17.5 56.1667,17.5 53.5,17.5C 53.1667,10.8333 52.8333,10.8333 52.5,17.5C 46.802,16.9549 41.1354,16.9549 35.5,17.5C 33.9707,17.4712 32.804,16.8045 32,15.5C 30.951,17.1066 29.451,17.7733 27.5,17.5C 27.5,13.8333 27.5,10.1667 27.5,6.5 Z"/></g>
<g><path style="opacity:1" fill="#163c68" d="M 16.5,9.5 C 16.3713,11.2161 16.038,12.8828 15.5,14.5C 14.5,14.5 13.5,14.5 12.5,14.5C 11.8333,14.5 11.5,14.8333 11.5,15.5C 10.1667,15.5 8.83333,15.5 7.5,15.5C 7.5,13.8333 7.5,12.1667 7.5,10.5C 9.19981,10.3739 10.6998,9.70728 12,8.5C 13.4397,9.14758 14.9397,9.48091 16.5,9.5 Z"/></g>
<g><path style="opacity:1" fill="#ca1524" d="M 12.5,14.5 C 13.5,14.5 14.5,14.5 15.5,14.5C 16.1408,15.4822 16.8075,16.4822 17.5,17.5C 14.6878,18.7195 13.0211,17.7195 12.5,14.5 Z"/></g>
<g><path style="opacity:1" fill="#900c16" d="M 7.5,15.5 C 8.83333,15.5 10.1667,15.5 11.5,15.5C 11.3059,17.9118 9.97259,18.9118 7.5,18.5C 7.5,17.5 7.5,16.5 7.5,15.5 Z"/></g>
</svg>
