<?xml version="1.0" encoding="UTF-8"?>
<!DOCTYPE svg PUBLIC "-//W3C//DTD SVG 1.1//EN" "http://www.w3.org/Graphics/SVG/1.1/DTD/svg11.dtd">
<svg xmlns="http://www.w3.org/2000/svg" version="1.1" width="120px" height="120px" style="shape-rendering:geometricPrecision; text-rendering:geometricPrecision; image-rendering:optimizeQuality; fill-rule:evenodd; clip-rule:evenodd" xmlns:xlink="http://www.w3.org/1999/xlink">
<g><path style="opacity:0.969" fill="#070707" d="M 42.5,-0.5 C 45.5,-0.5 48.5,-0.5 51.5,-0.5C 44.7286,2.41995 39.2286,7.08662 35,13.5C 32.8689,19.9735 33.0356,26.3069 35.5,32.5C 34.3659,34.9664 34.1993,37.633 35,40.5C 36.3295,43.829 38.1628,46.829 40.5,49.5C 40.523,51.9267 41.023,54.26 42,56.5C 45.5668,63.2977 49.4001,69.9644 53.5,76.5C 52.8118,77.8549 51.8118,78.8549 50.5,79.5C 45.8969,80.2579 45.2302,82.2579 48.5,85.5C 48.8333,85.5 49.1667,85.5 49.5,85.5C 44.6326,95.7691 40.966,106.436 38.5,117.5C 25.9455,113.125 15.7788,105.458 8,94.5C 5.13935,89.4375 2.30602,84.4375 -0.5,79.5C -0.5,66.5 -0.5,53.5 -0.5,40.5C 7.65417,20.3457 21.9875,6.67901 42.5,-0.5 Z"/></g>
<g><path style="opacity:1" fill="#271f1b" d="M 51.5,-0.5 C 56.5,-0.5 61.5,-0.5 66.5,-0.5C 72.1481,3.58395 77.3148,8.25062 82,13.5C 84.3143,18.0095 84.8143,22.6762 83.5,27.5C 82.6816,24.8929 82.1816,22.2263 82,19.5C 81.51,20.7932 81.3433,22.1266 81.5,23.5C 80.6981,22.0484 80.1981,20.3817 80,18.5C 78.7453,17.7894 77.5786,16.956 76.5,16C 69.4878,16.4057 62.8211,17.5724 56.5,19.5C 54.4527,17.9848 52.1193,17.1515 49.5,17C 45.0757,12.8836 41.2423,13.717 38,19.5C 37.6692,26.5177 37.6692,33.5177 38,40.5C 37.454,37.6209 36.6206,34.9542 35.5,32.5C 33.0356,26.3069 32.8689,19.9735 35,13.5C 39.2286,7.08662 44.7286,2.41995 51.5,-0.5 Z"/></g>
<g><path style="opacity:1" fill="#f7bb83" d="M 81.5,23.5 C 81.5,25.1667 81.5,26.8333 81.5,28.5C 80.7021,31.1711 80.0354,34.0044 79.5,37C 79.6301,38.0588 80.1301,38.8921 81,39.5C 81.4955,37.5273 81.6621,35.5273 81.5,33.5C 82.5754,32.4376 83.5754,32.4376 84.5,33.5C 84.133,38.4819 82.7996,43.1486 80.5,47.5C 78.8235,48.1834 78.1568,49.5168 78.5,51.5C 78.1631,55.836 76.4965,59.5026 73.5,62.5C 71.2733,64.6068 69.2733,66.9401 67.5,69.5C 62.2545,72.3452 57.2545,72.0119 52.5,68.5C 50.8968,67.4036 49.3968,66.0703 48,64.5C 47.3333,61.1667 46.6667,57.8333 46,54.5C 44.1706,52.8442 42.8372,50.8442 42,48.5C 41.6174,49.056 41.1174,49.3893 40.5,49.5C 38.1628,46.829 36.3295,43.829 35,40.5C 34.1993,37.633 34.3659,34.9664 35.5,32.5C 36.6206,34.9542 37.454,37.6209 38,40.5C 37.6692,33.5177 37.6692,26.5177 38,19.5C 41.2423,13.717 45.0757,12.8836 49.5,17C 52.1193,17.1515 54.4527,17.9848 56.5,19.5C 62.8211,17.5724 69.4878,16.4057 76.5,16C 77.5786,16.956 78.7453,17.7894 80,18.5C 80.1981,20.3817 80.6981,22.0484 81.5,23.5 Z"/></g>
<g><path style="opacity:1" fill="#6f553f" d="M 65.5,33.5 C 66.964,32.8401 68.6307,32.5068 70.5,32.5C 72.7125,32.4123 74.7125,32.9123 76.5,34C 72.7446,34.7554 69.0779,34.5887 65.5,33.5 Z"/></g>
<g><path style="opacity:1" fill="#644d39" d="M 45.5,32.5 C 47.8568,32.3367 50.1902,32.5034 52.5,33C 49.6443,34.153 46.6443,34.9863 43.5,35.5C 43.1667,35.1667 42.8333,34.8333 42.5,34.5C 43.6016,33.8243 44.6016,33.1577 45.5,32.5 Z"/></g>
<g><path style="opacity:1" fill="#3d3228" d="M 67.5,35.5 C 70.4822,35.1044 73.1489,35.7711 75.5,37.5C 74.132,38.5937 72.9653,38.2603 72,36.5C 71.51,37.7932 71.3433,39.1266 71.5,40.5C 69.857,40.5198 68.5237,39.8532 67.5,38.5C 66.914,38.7093 66.414,39.0426 66,39.5C 65.516,37.8067 66.016,36.4733 67.5,35.5 Z"/></g>
<g><path style="opacity:1" fill="#735842" d="M 81.5,28.5 C 81.5,30.1667 81.5,31.8333 81.5,33.5C 81.6621,35.5273 81.4955,37.5273 81,39.5C 80.1301,38.8921 79.6301,38.0588 79.5,37C 80.0354,34.0044 80.7021,31.1711 81.5,28.5 Z"/></g>
<g><path style="opacity:1" fill="#242220" d="M 46.5,36.5 C 48.7505,36.1814 50.7505,36.6814 52.5,38C 51.6921,39.7058 50.3588,40.5391 48.5,40.5C 48.5983,37.7524 47.5983,37.0857 45.5,38.5C 45.3284,37.5084 45.6618,36.8417 46.5,36.5 Z"/></g>
<g><path style="opacity:1" fill="#9e7e63" d="M 46.5,36.5 C 50.7089,34.8263 54.3755,35.8263 57.5,39.5C 56.3504,42.3205 55.1838,42.6538 54,40.5C 51.5991,41.6023 49.0991,41.769 46.5,41C 45.7476,40.3292 45.4142,39.4959 45.5,38.5C 47.5983,37.0857 48.5983,37.7524 48.5,40.5C 50.3588,40.5391 51.6921,39.7058 52.5,38C 50.7505,36.6814 48.7505,36.1814 46.5,36.5 Z"/></g>
<g><path style="opacity:0.998" fill="#040303" d="M 66.5,-0.5 C 69.1667,-0.5 71.8333,-0.5 74.5,-0.5C 96.5,7.5 111.5,22.5 119.5,44.5C 119.5,54.5 119.5,64.5 119.5,74.5C 112.151,94.1819 99.151,108.849 80.5,118.5C 81.3201,114.721 79.9867,112.388 76.5,111.5C 76.8333,111.5 77.1667,111.5 77.5,111.5C 78.9931,110.688 79.6598,109.355 79.5,107.5C 78.9343,101.704 77.7676,96.0376 76,90.5C 74.8549,91.6364 73.6883,92.6364 72.5,93.5C 71.8333,93.5 71.1667,93.5 70.5,93.5C 70.552,91.0971 70.2186,88.7638 69.5,86.5C 69.5,86.1667 69.5,85.8333 69.5,85.5C 72.1667,84.5 72.1667,83.5 69.5,82.5C 71.662,76.0539 72.9953,69.3873 73.5,62.5C 76.4965,59.5026 78.1631,55.836 78.5,51.5C 79.2679,50.7375 79.7679,49.7375 80,48.5C 80.3333,52.5 80.6667,56.5 81,60.5C 81.5,60 82,59.5 82.5,59C 80.9469,56.1631 81.2802,53.6631 83.5,51.5C 85.68,54.329 87.3467,57.4956 88.5,61C 92.1667,61.6667 95.8333,61.6667 99.5,61C 97.5864,59.5867 96.2531,57.7534 95.5,55.5C 97.6114,54.1515 99.4447,54.4848 101,56.5C 101.36,58.4211 102.194,60.0878 103.5,61.5C 104.192,60.9747 104.692,60.3081 105,59.5C 105.638,65.5955 106.638,71.5955 108,77.5C 109.562,75.0427 110.562,72.376 111,69.5C 111.167,70.5 111.333,71.5 111.5,72.5C 109.945,77.7131 108.945,83.0464 108.5,88.5C 109.822,88.67 110.989,88.3366 112,87.5C 113.108,83.5088 114.608,79.6754 116.5,76C 113.049,71.1264 111.215,65.6264 111,59.5C 108.463,56.628 105.63,54.128 102.5,52C 95.245,50.1016 87.9117,48.6016 80.5,47.5C 82.7996,43.1486 84.133,38.4819 84.5,33.5C 83.5754,32.4376 82.5754,32.4376 81.5,33.5C 81.5,31.8333 81.5,30.1667 81.5,28.5C 81.5,26.8333 81.5,25.1667 81.5,23.5C 81.3433,22.1266 81.51,20.7932 82,19.5C 82.1816,22.2263 82.6816,24.8929 83.5,27.5C 84.8143,22.6762 84.3143,18.0095 82,13.5C 77.3148,8.25062 72.1481,3.58395 66.5,-0.5 Z"/></g>
<g><path style="opacity:1" fill="#1c1c1c" d="M 28.5,47.5 C 31.6928,47.5241 35.0262,48.0241 38.5,49C 34.5404,49.562 33.7071,51.3953 36,54.5C 37.0437,53.3774 37.7104,52.0441 38,50.5C 38.8545,53.4066 38.0212,55.7399 35.5,57.5C 31.4551,58.3457 27.6218,58.3457 24,57.5C 23.4892,64.431 22.8225,71.431 22,78.5C 23.1245,75.2165 24.1245,71.8831 25,68.5C 25.3333,69.8333 25.6667,71.1667 26,72.5C 27.1244,69.5576 27.4577,66.5576 27,63.5C 26.7811,64.938 26.2811,66.2713 25.5,67.5C 25.1667,67.1667 24.8333,66.8333 24.5,66.5C 25.3742,64.2534 25.7076,61.9201 25.5,59.5C 28.8984,59.1796 32.2317,59.513 35.5,60.5C 33.5134,63.9499 33.18,67.6165 34.5,71.5C 34.4,76.777 33.2334,81.777 31,86.5C 29.8289,87.8932 28.3289,88.7265 26.5,89C 27.4581,90.1475 27.1247,91.1475 25.5,92C 26.8333,93.3333 26.8333,94.6667 25.5,96C 23.6332,96.7112 22.1332,96.2112 21,94.5C 20.8275,90.1289 20.3275,85.7956 19.5,81.5C 17.3173,79.2931 15.9839,76.6264 15.5,73.5C 14.354,74.1449 13.354,74.9783 12.5,76C 14.9221,78.0027 15.7554,80.5027 15,83.5C 11.3894,80.6144 7.55608,78.1144 3.5,76C 4.41623,75.6258 5.24956,75.1258 6,74.5C 9.82813,68.1947 12.4948,61.5281 14,54.5C 18.2528,50.77 23.0862,48.4367 28.5,47.5 Z"/></g>
<g><path style="opacity:1" fill="#b0836a" d="M 64.5,48.5 C 66.2726,49.3143 66.7726,50.6476 66,52.5C 60.5777,54.3971 60.2444,56.7305 65,59.5C 65.6667,60.5 65.6667,61.5 65,62.5C 60.1964,65.5604 56.0297,64.8937 52.5,60.5C 54.6797,58.9098 57.013,57.5765 59.5,56.5C 56.5677,55.2003 54.2344,53.2003 52.5,50.5C 52.8333,50.1667 53.1667,49.8333 53.5,49.5C 56.9792,54.0954 60.9792,54.5954 65.5,51C 64.7476,50.3292 64.4142,49.4959 64.5,48.5 Z"/></g>
<g><path style="opacity:1" fill="#e0a673" d="M 52.5,68.5 C 51.6676,69.3285 52.001,70.1618 53.5,71C 57.0387,72.5039 60.7054,72.8372 64.5,72C 65.9423,71.6232 66.9423,70.7899 67.5,69.5C 69.2733,66.9401 71.2733,64.6068 73.5,62.5C 72.9953,69.3873 71.662,76.0539 69.5,82.5C 66.4516,83.7935 63.2849,84.7935 60,85.5C 55.9622,84.6793 52.7955,82.6793 50.5,79.5C 51.8118,78.8549 52.8118,77.8549 53.5,76.5C 49.4001,69.9644 45.5668,63.2977 42,56.5C 41.023,54.26 40.523,51.9267 40.5,49.5C 41.1174,49.3893 41.6174,49.056 42,48.5C 42.8372,50.8442 44.1706,52.8442 46,54.5C 46.6667,57.8333 47.3333,61.1667 48,64.5C 49.3968,66.0703 50.8968,67.4036 52.5,68.5 Z"/></g>
<g><path style="opacity:1" fill="#8a674b" d="M 52.5,68.5 C 57.2545,72.0119 62.2545,72.3452 67.5,69.5C 66.9423,70.7899 65.9423,71.6232 64.5,72C 60.7054,72.8372 57.0387,72.5039 53.5,71C 52.001,70.1618 51.6676,69.3285 52.5,68.5 Z"/></g>
<g><path style="opacity:1" fill="#202020" d="M 80.5,47.5 C 87.9117,48.6016 95.245,50.1016 102.5,52C 105.63,54.128 108.463,56.628 111,59.5C 111.215,65.6264 113.049,71.1264 116.5,76C 114.608,79.6754 113.108,83.5088 112,87.5C 110.989,88.3366 109.822,88.67 108.5,88.5C 108.945,83.0464 109.945,77.7131 111.5,72.5C 111.333,71.5 111.167,70.5 111,69.5C 110.562,72.376 109.562,75.0427 108,77.5C 106.638,71.5955 105.638,65.5955 105,59.5C 104.692,60.3081 104.192,60.9747 103.5,61.5C 102.194,60.0878 101.36,58.4211 101,56.5C 99.4447,54.4848 97.6114,54.1515 95.5,55.5C 96.2531,57.7534 97.5864,59.5867 99.5,61C 95.8333,61.6667 92.1667,61.6667 88.5,61C 87.3467,57.4956 85.68,54.329 83.5,51.5C 81.2802,53.6631 80.9469,56.1631 82.5,59C 82,59.5 81.5,60 81,60.5C 80.6667,56.5 80.3333,52.5 80,48.5C 79.7679,49.7375 79.2679,50.7375 78.5,51.5C 78.1568,49.5168 78.8235,48.1834 80.5,47.5 Z"/></g>
<g><path style="opacity:1" fill="#2c2b2c" d="M 50.5,79.5 C 52.7955,82.6793 55.9622,84.6793 60,85.5C 63.2849,84.7935 66.4516,83.7935 69.5,82.5C 72.1667,83.5 72.1667,84.5 69.5,85.5C 66.4516,86.7935 63.2849,87.7935 60,88.5C 56.1963,87.2279 52.5297,85.5612 49,83.5C 48.5357,84.0944 48.369,84.7611 48.5,85.5C 45.2302,82.2579 45.8969,80.2579 50.5,79.5 Z"/></g>
<g><path style="opacity:1" fill="#686868" d="M 69.5,86.5 C 70.2186,88.7638 70.552,91.0971 70.5,93.5C 69.8386,92.2825 69.1719,90.9492 68.5,89.5C 66.9222,90.6405 65.2555,91.1405 63.5,91C 65.66,89.668 67.66,88.168 69.5,86.5 Z"/></g>
<g><path style="opacity:1" fill="#cccbcc" d="M 69.5,85.5 C 69.5,85.8333 69.5,86.1667 69.5,86.5C 67.66,88.168 65.66,89.668 63.5,91C 65.2555,91.1405 66.9222,90.6405 68.5,89.5C 69.1719,90.9492 69.8386,92.2825 70.5,93.5C 71.1667,93.5 71.8333,93.5 72.5,93.5C 74.6727,96.2222 75.0061,99.2222 73.5,102.5C 73.8333,103.833 74.1667,105.167 74.5,106.5C 73.8333,106.5 73.1667,106.5 72.5,106.5C 72.7778,104.654 72.1112,103.32 70.5,102.5C 69.0815,103.005 68.4148,104.005 68.5,105.5C 68.1667,105.5 67.8333,105.5 67.5,105.5C 67.1788,103.952 66.1788,103.285 64.5,103.5C 64.6567,102.127 64.49,100.793 64,99.5C 63.3076,100.025 62.8076,100.692 62.5,101.5C 63.2618,105.111 63.7618,108.778 64,112.5C 64.6708,113.252 65.5041,113.586 66.5,113.5C 70.226,113.177 73.8927,113.511 77.5,114.5C 78.2458,115.736 78.5792,117.07 78.5,118.5C 78.1667,118.5 77.8333,118.5 77.5,118.5C 65.6737,117.669 53.6737,117.169 41.5,117C 40.2613,114.882 40.5946,113.049 42.5,111.5C 44.1587,114.139 45.992,114.139 48,111.5C 50.2396,114.293 51.7396,113.96 52.5,110.5C 53.1667,110.833 53.8333,111.167 54.5,111.5C 54.62,112.586 55.2867,113.253 56.5,113.5C 58.4743,113.12 60.4743,112.787 62.5,112.5C 61.7565,109.557 61.2565,106.557 61,103.5C 59.7844,105.962 59.1177,108.629 59,111.5C 58.6667,107.5 58.3333,103.5 58,99.5C 56.3117,100.325 56.1451,101.325 57.5,102.5C 56.0065,103.141 55.0065,104.141 54.5,105.5C 53.8333,104.833 53.1667,104.167 52.5,103.5C 52.2942,101.451 51.4609,101.117 50,102.5C 49.3811,105.032 48.3811,107.365 47,109.5C 46.5172,108.552 46.3505,107.552 46.5,106.5C 47.4343,105.228 48.101,103.728 48.5,102C 48.1639,100.97 47.4972,100.47 46.5,100.5C 46.6294,97.2341 47.6294,94.2341 49.5,91.5C 51.5,91.5 53.5,91.5 55.5,91.5C 54.0921,90.7568 52.7588,89.9234 51.5,89C 52.1667,88.6667 52.8333,88.3333 53.5,88C 52.3066,86.9054 50.9733,86.072 49.5,85.5C 49.1667,85.5 48.8333,85.5 48.5,85.5C 48.369,84.7611 48.5357,84.0944 49,83.5C 52.5297,85.5612 56.1963,87.2279 60,88.5C 63.2849,87.7935 66.4516,86.7935 69.5,85.5 Z"/></g>
<g><path style="opacity:1" fill="#5f5e5e" d="M 49.5,85.5 C 50.9733,86.072 52.3066,86.9054 53.5,88C 52.8333,88.3333 52.1667,88.6667 51.5,89C 52.7588,89.9234 54.0921,90.7568 55.5,91.5C 53.5,91.5 51.5,91.5 49.5,91.5C 47.6294,94.2341 46.6294,97.2341 46.5,100.5C 46.6143,102.348 46.2809,104.348 45.5,106.5C 44.7368,108.368 43.7368,110.035 42.5,111.5C 40.5946,113.049 40.2613,114.882 41.5,117C 53.6737,117.169 65.6737,117.669 77.5,118.5C 76.8333,118.5 76.5,118.833 76.5,119.5C 64.5,119.5 52.5,119.5 40.5,119.5C 39.8333,118.833 39.1667,118.167 38.5,117.5C 40.966,106.436 44.6326,95.7691 49.5,85.5 Z"/></g>
<g><path style="opacity:1" fill="#f1d221" d="M 46.5,100.5 C 47.4972,100.47 48.1639,100.97 48.5,102C 48.101,103.728 47.4343,105.228 46.5,106.5C 46.1667,106.5 45.8333,106.5 45.5,106.5C 46.2809,104.348 46.6143,102.348 46.5,100.5 Z"/></g>
<g><path style="opacity:1" fill="#e3c646" d="M 60.5,99.5 C 61.7759,100.386 61.7759,101.386 60.5,102.5C 59.4376,101.575 59.4376,100.575 60.5,99.5 Z"/></g>
<g><path style="opacity:1" fill="#e3c221" d="M 67.5,105.5 C 67.7214,108.279 67.388,110.946 66.5,113.5C 65.5041,113.586 64.6708,113.252 64,112.5C 63.7618,108.778 63.2618,105.111 62.5,101.5C 62.8076,100.692 63.3076,100.025 64,99.5C 64.49,100.793 64.6567,102.127 64.5,103.5C 66.1788,103.285 67.1788,103.952 67.5,105.5 Z"/></g>
<g><path style="opacity:1" fill="#e7c928" d="M 72.5,106.5 C 70.8706,104.94 69.704,105.273 69,107.5C 68.5357,106.906 68.369,106.239 68.5,105.5C 68.4148,104.005 69.0815,103.005 70.5,102.5C 72.1112,103.32 72.7778,104.654 72.5,106.5 Z"/></g>
<g><path style="opacity:1" fill="#eac611" d="M 73.5,102.5 C 75.1207,102.787 76.1207,103.787 76.5,105.5C 76.0431,106.298 75.3764,106.631 74.5,106.5C 74.1667,105.167 73.8333,103.833 73.5,102.5 Z"/></g>
<g><path style="opacity:1" fill="#a7934a" d="M 52.5,103.5 C 53.1667,104.167 53.8333,104.833 54.5,105.5C 54.5,107.5 54.5,109.5 54.5,111.5C 53.8333,111.167 53.1667,110.833 52.5,110.5C 52.2792,107.903 51.7792,107.903 51,110.5C 50.8333,109.5 50.6667,108.5 50.5,107.5C 51.1821,106.183 51.8487,104.85 52.5,103.5 Z"/></g>
<g><path style="opacity:1" fill="#696150" d="M 77.5,111.5 C 77.5042,107.67 75.8375,106.67 72.5,108.5C 71.7784,108.918 71.2784,109.584 71,110.5C 70.2825,109.549 69.4491,109.383 68.5,110C 69.3079,111.706 70.6412,112.539 72.5,112.5C 73.8333,112.167 75.1667,111.833 76.5,111.5C 79.9867,112.388 81.3201,114.721 80.5,118.5C 79.8333,118.5 79.1667,118.5 78.5,118.5C 78.5792,117.07 78.2458,115.736 77.5,114.5C 73.8927,113.511 70.226,113.177 66.5,113.5C 67.388,110.946 67.7214,108.279 67.5,105.5C 67.8333,105.5 68.1667,105.5 68.5,105.5C 68.369,106.239 68.5357,106.906 69,107.5C 69.704,105.273 70.8706,104.94 72.5,106.5C 73.1667,106.5 73.8333,106.5 74.5,106.5C 75.3764,106.631 76.0431,106.298 76.5,105.5C 76.1207,103.787 75.1207,102.787 73.5,102.5C 75.0061,99.2222 74.6727,96.2222 72.5,93.5C 73.6883,92.6364 74.8549,91.6364 76,90.5C 77.7676,96.0376 78.9343,101.704 79.5,107.5C 79.6598,109.355 78.9931,110.688 77.5,111.5 Z"/></g>
<g><path style="opacity:1" fill="#b8ac7e" d="M 64.5,106.5 C 66.3003,107.895 66.6336,109.561 65.5,111.5C 64.5481,109.955 64.2148,108.288 64.5,106.5 Z"/></g>
<g><path style="opacity:1" fill="#bea967" d="M 77.5,111.5 C 77.1667,111.5 76.8333,111.5 76.5,111.5C 75.1667,111.833 73.8333,112.167 72.5,112.5C 72.5,111.167 72.5,109.833 72.5,108.5C 75.8375,106.67 77.5042,107.67 77.5,111.5 Z"/></g>
<g><path style="opacity:1" fill="#ddbf33" d="M 52.5,103.5 C 51.8487,104.85 51.1821,106.183 50.5,107.5C 50.6667,108.5 50.8333,109.5 51,110.5C 51.7792,107.903 52.2792,107.903 52.5,110.5C 51.7396,113.96 50.2396,114.293 48,111.5C 45.992,114.139 44.1587,114.139 42.5,111.5C 43.7368,110.035 44.7368,108.368 45.5,106.5C 45.8333,106.5 46.1667,106.5 46.5,106.5C 46.3505,107.552 46.5172,108.552 47,109.5C 48.3811,107.365 49.3811,105.032 50,102.5C 51.4609,101.117 52.2942,101.451 52.5,103.5 Z"/></g>
<g><path style="opacity:1" fill="#e2c235" d="M 54.5,111.5 C 54.5,109.5 54.5,107.5 54.5,105.5C 55.0065,104.141 56.0065,103.141 57.5,102.5C 56.1451,101.325 56.3117,100.325 58,99.5C 58.3333,103.5 58.6667,107.5 59,111.5C 59.1177,108.629 59.7844,105.962 61,103.5C 61.2565,106.557 61.7565,109.557 62.5,112.5C 60.4743,112.787 58.4743,113.12 56.5,113.5C 55.2867,113.253 54.62,112.586 54.5,111.5 Z"/></g>
<g><path style="opacity:1" fill="#b2ab97" d="M 55.5,105.5 C 56.3764,105.369 57.0431,105.702 57.5,106.5C 56.011,111.646 55.3443,111.313 55.5,105.5 Z"/></g>
<g><path style="opacity:1" fill="#f1d121" d="M 72.5,108.5 C 72.5,109.833 72.5,111.167 72.5,112.5C 70.6412,112.539 69.3079,111.706 68.5,110C 69.4491,109.383 70.2825,109.549 71,110.5C 71.2784,109.584 71.7784,108.918 72.5,108.5 Z"/></g>
</svg>
