<?xml version="1.0" encoding="UTF-8"?>
<!DOCTYPE svg PUBLIC "-//W3C//DTD SVG 1.1//EN" "http://www.w3.org/Graphics/SVG/1.1/DTD/svg11.dtd">
<svg xmlns="http://www.w3.org/2000/svg" version="1.1" width="440px" height="440px" style="shape-rendering:geometricPrecision; text-rendering:geometricPrecision; image-rendering:optimizeQuality; fill-rule:evenodd; clip-rule:evenodd" xmlns:xlink="http://www.w3.org/1999/xlink">
<g><path style="opacity:0.998" fill="#f15f2c" d="M 125.5,-0.5 C 188.167,-0.5 250.833,-0.5 313.5,-0.5C 334.028,0.560005 354.361,3.72667 374.5,9C 402.333,18.1667 420.833,36.6667 430,64.5C 435.273,84.6386 438.44,104.972 439.5,125.5C 439.5,188.167 439.5,250.833 439.5,313.5C 438.44,334.028 435.273,354.361 430,374.5C 420.833,402.333 402.333,420.833 374.5,430C 354.361,435.273 334.028,438.44 313.5,439.5C 250.833,439.5 188.167,439.5 125.5,439.5C 104.972,438.44 84.6386,435.273 64.5,430C 36.6667,420.833 18.1667,402.333 9,374.5C 3.72667,354.361 0.560005,334.028 -0.5,313.5C -0.5,250.833 -0.5,188.167 -0.5,125.5C 0.560005,104.972 3.72667,84.6386 9,64.5C 18.1667,36.6667 36.6667,18.1667 64.5,9C 84.6386,3.72667 104.972,0.560005 125.5,-0.5 Z"/></g>
<g><path style="opacity:1" fill="#fffefd" d="M 176.5,270.5 C 175.957,270.56 175.624,270.893 175.5,271.5C 188.483,272.499 201.483,272.832 214.5,272.5C 201.768,303.698 189.435,335.032 177.5,366.5C 173.265,367.436 168.931,367.769 164.5,367.5C 123.761,363.925 100.927,341.925 96,301.5C 94.9084,289.001 95.9084,276.668 99,264.5C 117.506,200.473 136.006,136.473 154.5,72.5C 180.825,71.5002 207.158,71.1669 233.5,71.5C 214.603,137.914 195.603,204.247 176.5,270.5 Z"/></g>
<g><path style="opacity:1" fill="#fffefd" d="M 191.5,367.5 C 186.637,367.819 181.97,367.486 177.5,366.5C 208.478,321.9 239.478,277.233 270.5,232.5C 257.5,231.833 244.5,231.167 231.5,230.5C 242.833,202.167 254.167,173.833 265.5,145.5C 298.613,146.452 322.446,161.785 337,191.5C 345.882,220.358 343.548,248.358 330,275.5C 298.991,328.626 252.824,359.293 191.5,367.5 Z"/></g>
<g><path style="opacity:1" fill="#f3784d" d="M 176.5,270.5 C 189.167,271.167 201.833,271.833 214.5,272.5C 201.483,272.832 188.483,272.499 175.5,271.5C 175.624,270.893 175.957,270.56 176.5,270.5 Z"/></g>
<g><path style="opacity:1" fill="#f7a082" d="M 177.5,366.5 C 181.97,367.486 186.637,367.819 191.5,367.5C 182.5,368.833 173.5,368.833 164.5,367.5C 168.931,367.769 173.265,367.436 177.5,366.5 Z"/></g>
</svg>
