<?xml version="1.0" encoding="UTF-8"?>
<!DOCTYPE svg PUBLIC "-//W3C//DTD SVG 1.1//EN" "http://www.w3.org/Graphics/SVG/1.1/DTD/svg11.dtd">
<svg xmlns="http://www.w3.org/2000/svg" version="1.1" width="300px" height="168px" style="shape-rendering:geometricPrecision; text-rendering:geometricPrecision; image-rendering:optimizeQuality; fill-rule:evenodd; clip-rule:evenodd" xmlns:xlink="http://www.w3.org/1999/xlink">
<g><path style="opacity:1" fill="#010101" d="M -0.5,-0.5 C 99.5,-0.5 199.5,-0.5 299.5,-0.5C 299.5,55.5 299.5,111.5 299.5,167.5C 199.5,167.5 99.5,167.5 -0.5,167.5C -0.5,111.5 -0.5,55.5 -0.5,-0.5 Z"/></g>
<g><path style="opacity:1" fill="#fdfdfd" d="M 43.5,49.5 C 51.1667,49.5 58.8333,49.5 66.5,49.5C 66.5,54.5 66.5,59.5 66.5,64.5C 68.8333,64.5 71.1667,64.5 73.5,64.5C 74.4682,62.3926 74.8016,60.0593 74.5,57.5C 77.0593,57.8016 79.3926,57.4682 81.5,56.5C 81.5,54.1667 81.5,51.8333 81.5,49.5C 89.1667,49.5 96.8333,49.5 104.5,49.5C 104.5,56.8333 104.5,64.1667 104.5,71.5C 101.941,71.1984 99.6074,71.5318 97.5,72.5C 96.5318,74.6074 96.1984,76.9407 96.5,79.5C 93.9407,79.1984 91.6074,79.5318 89.5,80.5C 89.5,82.8333 89.5,85.1667 89.5,87.5C 91.8333,87.5 94.1667,87.5 96.5,87.5C 96.5,90.1667 96.5,92.8333 96.5,95.5C 99.1667,95.5 101.833,95.5 104.5,95.5C 104.5,102.833 104.5,110.167 104.5,117.5C 96.8333,117.5 89.1667,117.5 81.5,117.5C 81.5,115.167 81.5,112.833 81.5,110.5C 79.3926,109.532 77.0593,109.198 74.5,109.5C 74.8016,106.941 74.4682,104.607 73.5,102.5C 71.1667,102.5 68.8333,102.5 66.5,102.5C 66.5,107.5 66.5,112.5 66.5,117.5C 58.8333,117.5 51.1667,117.5 43.5,117.5C 43.5,94.8333 43.5,72.1667 43.5,49.5 Z"/></g>
<g><path style="opacity:1" fill="#fefefe" d="M 112.5,49.5 C 120.167,49.5 127.833,49.5 135.5,49.5C 135.5,72.1667 135.5,94.8333 135.5,117.5C 127.833,117.5 120.167,117.5 112.5,117.5C 112.5,94.8333 112.5,72.1667 112.5,49.5 Z"/></g>
<g><path style="opacity:1" fill="#fefefe" d="M 151.5,49.5 C 164.167,49.5 176.833,49.5 189.5,49.5C 189.5,56.8333 189.5,64.1667 189.5,71.5C 181.648,71.1746 173.982,71.508 166.5,72.5C 166.5,79.8333 166.5,87.1667 166.5,94.5C 173.982,95.492 181.648,95.8254 189.5,95.5C 189.5,102.833 189.5,110.167 189.5,117.5C 176.833,117.5 164.167,117.5 151.5,117.5C 151.5,114.833 151.5,112.167 151.5,109.5C 148.833,109.5 146.167,109.5 143.5,109.5C 143.5,92.1667 143.5,74.8333 143.5,57.5C 146.167,57.5 148.833,57.5 151.5,57.5C 151.5,54.8333 151.5,52.1667 151.5,49.5 Z"/></g>
<g><path style="opacity:1" fill="#fdfdfd" d="M 228.5,57.5 C 231.167,57.5 233.833,57.5 236.5,57.5C 236.5,54.8333 236.5,52.1667 236.5,49.5C 243.833,49.5 251.167,49.5 258.5,49.5C 258.5,56.8333 258.5,64.1667 258.5,71.5C 255.941,71.1984 253.607,71.5318 251.5,72.5C 251.5,74.8333 251.5,77.1667 251.5,79.5C 248.833,79.5 246.167,79.5 243.5,79.5C 243.5,82.1667 243.5,84.8333 243.5,87.5C 246.167,87.5 248.833,87.5 251.5,87.5C 251.5,89.8333 251.5,92.1667 251.5,94.5C 253.607,95.4682 255.941,95.8016 258.5,95.5C 258.5,102.833 258.5,110.167 258.5,117.5C 251.167,117.5 243.833,117.5 236.5,117.5C 236.5,114.833 236.5,112.167 236.5,109.5C 233.833,109.5 231.167,109.5 228.5,109.5C 228.5,107.167 228.5,104.833 228.5,102.5C 225.833,102.5 223.167,102.5 220.5,102.5C 220.5,107.5 220.5,112.5 220.5,117.5C 212.833,117.5 205.167,117.5 197.5,117.5C 197.5,94.8333 197.5,72.1667 197.5,49.5C 205.167,49.5 212.833,49.5 220.5,49.5C 220.5,54.5 220.5,59.5 220.5,64.5C 223.167,64.5 225.833,64.5 228.5,64.5C 228.5,62.1667 228.5,59.8333 228.5,57.5 Z"/></g>
<g><path style="opacity:1" fill="#cecece" d="M 258.5,49.5 C 259.492,56.9818 259.825,64.6484 259.5,72.5C 256.833,72.5 254.167,72.5 251.5,72.5C 253.607,71.5318 255.941,71.1984 258.5,71.5C 258.5,64.1667 258.5,56.8333 258.5,49.5 Z"/></g>
<g><path style="opacity:1" fill="#6c6c6c" d="M 104.5,49.5 C 105.492,56.9818 105.825,64.6484 105.5,72.5C 102.833,72.5 100.167,72.5 97.5,72.5C 99.6074,71.5318 101.941,71.1984 104.5,71.5C 104.5,64.1667 104.5,56.8333 104.5,49.5 Z"/></g>
<g><path style="opacity:1" fill="#a7a7a7" d="M 81.5,56.5 C 79.3926,57.4682 77.0593,57.8016 74.5,57.5C 74.8016,60.0593 74.4682,62.3926 73.5,64.5C 73.5,61.8333 73.5,59.1667 73.5,56.5C 76.1667,56.5 78.8333,56.5 81.5,56.5 Z"/></g>
<g><path style="opacity:1" fill="#919191" d="M 151.5,49.5 C 151.5,52.1667 151.5,54.8333 151.5,57.5C 148.833,57.5 146.167,57.5 143.5,57.5C 145.607,56.5318 147.941,56.1984 150.5,56.5C 150.198,53.9407 150.532,51.6074 151.5,49.5 Z"/></g>
<g><path style="opacity:1" fill="#979797" d="M 236.5,49.5 C 236.5,52.1667 236.5,54.8333 236.5,57.5C 233.833,57.5 231.167,57.5 228.5,57.5C 230.607,56.5318 232.941,56.1984 235.5,56.5C 235.198,53.9407 235.532,51.6074 236.5,49.5 Z"/></g>
<g><path style="opacity:1" fill="#8b8b8b" d="M 189.5,49.5 C 190.492,56.9818 190.825,64.6484 190.5,72.5C 182.5,72.5 174.5,72.5 166.5,72.5C 173.982,71.508 181.648,71.1746 189.5,71.5C 189.5,64.1667 189.5,56.8333 189.5,49.5 Z"/></g>
<g><path style="opacity:1" fill="#707070" d="M 97.5,72.5 C 97.5,75.1667 97.5,77.8333 97.5,80.5C 94.8333,80.5 92.1667,80.5 89.5,80.5C 91.6074,79.5318 93.9407,79.1984 96.5,79.5C 96.1984,76.9407 96.5318,74.6074 97.5,72.5 Z"/></g>
<g><path style="opacity:1" fill="#6e6e6e" d="M 251.5,79.5 C 249.393,80.4682 247.059,80.8016 244.5,80.5C 244.5,82.5 244.5,84.5 244.5,86.5C 247.059,86.1984 249.393,86.5318 251.5,87.5C 248.833,87.5 246.167,87.5 243.5,87.5C 243.5,84.8333 243.5,82.1667 243.5,79.5C 246.167,79.5 248.833,79.5 251.5,79.5 Z"/></g>
<g><path style="opacity:1" fill="#c9c9c9" d="M 251.5,94.5 C 254.167,94.5 256.833,94.5 259.5,94.5C 259.825,102.352 259.492,110.018 258.5,117.5C 258.5,110.167 258.5,102.833 258.5,95.5C 255.941,95.8016 253.607,95.4682 251.5,94.5 Z"/></g>
<g><path style="opacity:1" fill="#787878" d="M 166.5,94.5 C 174.5,94.5 182.5,94.5 190.5,94.5C 190.825,102.352 190.492,110.018 189.5,117.5C 189.5,110.167 189.5,102.833 189.5,95.5C 181.648,95.8254 173.982,95.492 166.5,94.5 Z"/></g>
<g><path style="opacity:1" fill="#707070" d="M 96.5,87.5 C 97.4682,89.6074 97.8016,91.9407 97.5,94.5C 100.167,94.5 102.833,94.5 105.5,94.5C 105.825,102.352 105.492,110.018 104.5,117.5C 104.5,110.167 104.5,102.833 104.5,95.5C 101.833,95.5 99.1667,95.5 96.5,95.5C 96.5,92.8333 96.5,90.1667 96.5,87.5 Z"/></g>
<g><path style="opacity:1" fill="#2b2b2b" d="M 228.5,109.5 C 228.5,109.833 228.5,110.167 228.5,110.5C 227.532,108.393 227.198,106.059 227.5,103.5C 225.5,103.5 223.5,103.5 221.5,103.5C 221.819,108.363 221.486,113.03 220.5,117.5C 220.5,112.5 220.5,107.5 220.5,102.5C 223.167,102.5 225.833,102.5 228.5,102.5C 228.5,104.833 228.5,107.167 228.5,109.5 Z"/></g>
<g><path style="opacity:1" fill="#a5a5a5" d="M 73.5,102.5 C 74.4682,104.607 74.8016,106.941 74.5,109.5C 77.0593,109.198 79.3926,109.532 81.5,110.5C 78.8333,110.5 76.1667,110.5 73.5,110.5C 73.5,107.833 73.5,105.167 73.5,102.5 Z"/></g>
<g><path style="opacity:1" fill="#8f8f8f" d="M 143.5,109.5 C 146.167,109.5 148.833,109.5 151.5,109.5C 151.5,112.167 151.5,114.833 151.5,117.5C 150.532,115.393 150.198,113.059 150.5,110.5C 147.941,110.802 145.607,110.468 143.5,109.5 Z"/></g>
<g><path style="opacity:1" fill="#949494" d="M 228.5,110.5 C 228.5,110.167 228.5,109.833 228.5,109.5C 231.167,109.5 233.833,109.5 236.5,109.5C 236.5,112.167 236.5,114.833 236.5,117.5C 235.532,115.393 235.198,113.059 235.5,110.5C 233.167,110.5 230.833,110.5 228.5,110.5 Z"/></g>
<g><path style="opacity:1" fill="#707070" d="M 43.5,49.5 C 43.5,72.1667 43.5,94.8333 43.5,117.5C 51.1667,117.5 58.8333,117.5 66.5,117.5C 58.6841,118.492 50.6841,118.826 42.5,118.5C 42.1692,95.3273 42.5025,72.3273 43.5,49.5 Z"/></g>
</svg>
