<?xml version="1.0" encoding="UTF-8"?>
<!DOCTYPE svg PUBLIC "-//W3C//DTD SVG 1.1//EN" "http://www.w3.org/Graphics/SVG/1.1/DTD/svg11.dtd">
<svg xmlns="http://www.w3.org/2000/svg" version="1.1" width="368px" height="368px" style="shape-rendering:geometricPrecision; text-rendering:geometricPrecision; image-rendering:optimizeQuality; fill-rule:evenodd; clip-rule:evenodd" xmlns:xlink="http://www.w3.org/1999/xlink">
<g><path style="opacity:0.987" fill="#0075fc" d="M 161.5,-0.5 C 176.167,-0.5 190.833,-0.5 205.5,-0.5C 278.264,11.4344 328.764,51.4344 357,119.5C 361.47,133.381 364.97,147.381 367.5,161.5C 367.5,176.167 367.5,190.833 367.5,205.5C 355.595,278.24 315.595,328.74 247.5,357C 233.619,361.47 219.619,364.97 205.5,367.5C 190.833,367.5 176.167,367.5 161.5,367.5C 84.963,354.461 33.463,311.461 7,238.5C 3.77627,227.531 1.27627,216.531 -0.5,205.5C -0.5,190.833 -0.5,176.167 -0.5,161.5C 11.4594,88.7155 51.4594,38.2155 119.5,10C 133.385,5.52815 147.385,2.02815 161.5,-0.5 Z"/></g>
<g><path style="opacity:1" fill="#030cb2" d="M 121.5,46.5 C 130.328,46.5442 139.328,48.3776 148.5,52C 157.622,56.0608 166.622,60.3942 175.5,65C 216.854,89.3685 256.854,115.702 295.5,144C 317.989,164.564 321.822,187.731 307,213.5C 298.419,223.083 288.919,231.583 278.5,239C 242.701,262.79 206.368,285.79 169.5,308C 155.876,316.153 141.209,320.986 125.5,322.5C 99.8879,320.28 84.3879,306.614 79,281.5C 76.7635,269.761 75.2635,258.261 74.5,247C 74.5,205.333 74.5,163.667 74.5,122C 75.4608,110.483 76.9608,98.9829 79,87.5C 84.2196,64.4454 98.3862,50.7788 121.5,46.5 Z"/></g>
<g><path style="opacity:1" fill="#fbfbfd" d="M 117.5,144.5 C 124.48,151.145 131.48,157.812 138.5,164.5C 145.221,157.942 152.054,151.609 159,145.5C 165.624,151.122 171.957,157.122 178,163.5C 178.667,164.167 178.667,164.833 178,165.5C 171.478,172.022 164.978,178.522 158.5,185C 165.326,191.66 171.993,198.493 178.5,205.5C 172.476,212.704 165.809,218.871 158.5,224C 151.986,217.319 145.319,210.819 138.5,204.5C 132.138,211.696 125.305,218.363 118,224.5C 111.376,218.878 105.043,212.878 99,206.5C 98.3333,205.833 98.3333,205.167 99,204.5C 105.627,198.039 112.127,191.372 118.5,184.5C 112.015,177.514 105.348,170.681 98.5,164C 105.036,157.631 111.369,151.131 117.5,144.5 Z"/></g>
<g><path style="opacity:1" fill="#fbfbfe" d="M 228.5,144.5 C 252.397,143.263 267.897,153.93 275,176.5C 277.542,202.271 266.375,218.437 241.5,225C 223.732,226.185 209.899,219.352 200,204.5C 190.605,183.469 194.771,165.636 212.5,151C 217.779,148.523 223.113,146.356 228.5,144.5 Z"/></g>
<g><path style="opacity:1" fill="#1113b4" d="M 230.5,172.5 C 243.819,171.319 249.319,177.319 247,190.5C 239.333,199.833 231.667,199.833 224,190.5C 221.719,182.708 223.885,176.708 230.5,172.5 Z"/></g>
</svg>
