<?xml version="1.0" encoding="UTF-8"?>
<!DOCTYPE svg PUBLIC "-//W3C//DTD SVG 1.1//EN" "http://www.w3.org/Graphics/SVG/1.1/DTD/svg11.dtd">
<svg xmlns="http://www.w3.org/2000/svg" version="1.1" width="150px" height="150px" style="shape-rendering:geometricPrecision; text-rendering:geometricPrecision; image-rendering:optimizeQuality; fill-rule:evenodd; clip-rule:evenodd" xmlns:xlink="http://www.w3.org/1999/xlink">
<g><path style="opacity:0.976" fill="#493f9e" d="M 11.5,-0.5 C 53.5,-0.5 95.5,-0.5 137.5,-0.5C 142.833,2.16667 146.833,6.16667 149.5,11.5C 149.5,18.5 149.5,25.5 149.5,32.5C 148.391,32.4431 147.391,32.1098 146.5,31.5C 146.757,25.1021 146.257,18.7688 145,12.5C 142.615,8.75175 140.448,5.41841 138.5,2.5C 119.486,2.20335 100.486,2.53668 81.5,3.5C 81.1667,3.5 80.8333,3.5 80.5,3.5C 58.1642,3.33337 35.8308,3.50004 13.5,4C 12.5,4.33333 11.5,4.66667 10.5,5C 7.06729,8.04217 4.23396,11.5422 2,15.5C 1.53566,14.9056 1.36899,14.2389 1.5,13.5C 1.5,12.1667 1.5,10.8333 1.5,9.5C 3.86096,5.13901 7.19429,1.80568 11.5,-0.5 Z"/></g>
<g><path style="opacity:1" fill="#32288f" d="M 81.5,3.5 C 100.486,2.53668 119.486,2.20335 138.5,2.5C 140.448,5.41841 142.615,8.75175 145,12.5C 146.257,18.7688 146.757,25.1021 146.5,31.5C 146.631,32.2389 146.464,32.9056 146,33.5C 145.027,31.6079 144.36,29.6079 144,27.5C 143.781,28.938 143.281,30.2713 142.5,31.5C 141.575,30.3595 140.741,30.3595 140,31.5C 139.333,28.8333 138.667,28.8333 138,31.5C 137.667,30.8333 137.333,30.1667 137,29.5C 136.261,30.5742 135.261,31.2409 134,31.5C 131.243,31.4342 128.577,31.1009 126,30.5C 119.667,31.1667 113.333,31.8333 107,32.5C 98.3603,32.2682 89.3603,31.6015 80,30.5C 78.2859,31.9255 76.9525,31.5922 76,29.5C 75.6924,30.3081 75.1924,30.9747 74.5,31.5C 74.0894,30.7376 73.9227,29.7376 74,28.5C 72.0355,27.115 70.2021,27.2816 68.5,29C 69.9597,29.8113 70.293,30.6446 69.5,31.5C 66.6711,30.4991 63.6711,30.4991 60.5,31.5C 60.762,30.0222 60.4287,28.6888 59.5,27.5C 58.2679,28.1445 56.9346,28.3112 55.5,28C 54.6634,29.0113 54.33,30.1779 54.5,31.5C 51.9208,31.9167 49.7542,31.25 48,29.5C 47.6667,30.1667 47.3333,30.8333 47,31.5C 44.2288,31.281 41.3954,31.281 38.5,31.5C 36.9707,31.4712 35.804,30.8045 35,29.5C 34.6667,30.1667 34.3333,30.8333 34,31.5C 33.3333,30.1667 32.6667,30.1667 32,31.5C 31.3333,26.1667 30.6667,26.1667 30,31.5C 23.8733,31.0274 17.8733,31.0274 12,31.5C 10.2894,31.5607 8.95603,30.8941 8,29.5C 7.04746,31.5922 5.71413,31.9255 4,30.5C 3.50051,36.4908 3.33385,42.4908 3.5,48.5C 3.66582,53.1785 3.49915,57.8452 3,62.5C 2.2917,63.3805 1.45837,64.0472 0.5,64.5C 0.17008,47.3251 0.503414,30.3251 1.5,13.5C 1.36899,14.2389 1.53566,14.9056 2,15.5C 4.23396,11.5422 7.06729,8.04217 10.5,5C 11.5,4.66667 12.5,4.33333 13.5,4C 35.8308,3.50004 58.1642,3.33337 80.5,3.5C 78.7511,10.4033 78.2511,17.4033 79,24.5C 80.3333,27.1667 81.6667,27.1667 83,24.5C 83.3589,27.5443 84.0255,27.8776 85,25.5C 87.0748,26.8952 88.9081,26.5619 90.5,24.5C 91.8139,25.3128 92.9805,26.3128 94,27.5C 96.6667,24.8333 99.3333,24.8333 102,27.5C 104,26.8333 106,26.1667 108,25.5C 108.667,26.1667 109.333,26.8333 110,27.5C 113.556,26.2644 117.056,25.7644 120.5,26C 121.059,25.2753 121.392,24.4419 121.5,23.5C 119.81,16.8029 118.143,10.1362 116.5,3.5C 104.833,3.5 93.1667,3.5 81.5,3.5 Z"/></g>
<g><path style="opacity:1" fill="#2d238f" d="M 80.5,3.5 C 80.8333,3.5 81.1667,3.5 81.5,3.5C 93.1667,3.5 104.833,3.5 116.5,3.5C 118.143,10.1362 119.81,16.8029 121.5,23.5C 121.392,24.4419 121.059,25.2753 120.5,26C 117.056,25.7644 113.556,26.2644 110,27.5C 109.333,26.8333 108.667,26.1667 108,25.5C 106,26.1667 104,26.8333 102,27.5C 99.3333,24.8333 96.6667,24.8333 94,27.5C 92.9805,26.3128 91.8139,25.3128 90.5,24.5C 88.9081,26.5619 87.0748,26.8952 85,25.5C 84.0255,27.8776 83.3589,27.5443 83,24.5C 81.6667,27.1667 80.3333,27.1667 79,24.5C 78.2511,17.4033 78.7511,10.4033 80.5,3.5 Z"/></g>
<g><path style="opacity:0.635" fill="#635893" d="M 1.5,9.5 C 1.5,10.8333 1.5,12.1667 1.5,13.5C 0.503414,30.3251 0.17008,47.3251 0.5,64.5C 0.5,70.8333 0.5,77.1667 0.5,83.5C 0.5,91.8333 0.5,100.167 0.5,108.5C 0.5,117.833 0.5,127.167 0.5,136.5C 0.166667,136.5 -0.166667,136.5 -0.5,136.5C -0.5,95.1667 -0.5,53.8333 -0.5,12.5C 0.166667,11.5 0.833333,10.5 1.5,9.5 Z"/></g>
<g><path style="opacity:1" fill="#2b227f" d="M 146.5,31.5 C 147.391,32.1098 148.391,32.4431 149.5,32.5C 149.5,41.5 149.5,50.5 149.5,59.5C 148.504,59.4142 147.671,59.7476 147,60.5C 142.76,58.5891 138.427,58.5891 134,60.5C 131.149,59.7561 128.483,59.7561 126,60.5C 125.261,59.4258 124.261,58.7591 123,58.5C 120.758,58.6089 118.591,58.9422 116.5,59.5C 116.407,58.5281 116.074,57.5281 115.5,56.5C 116.061,53.538 117.061,50.7047 118.5,48C 117.083,43.2916 114.083,41.7916 109.5,43.5C 107.26,46.2606 105.593,49.2606 104.5,52.5C 103.531,51.6906 102.698,50.6906 102,49.5C 101.581,50.6721 100.915,51.6721 100,52.5C 96.2891,51.9183 92.7891,51.9183 89.5,52.5C 88.1166,49.9244 87.2833,50.2577 87,53.5C 85.8829,51.8757 84.3829,50.8757 82.5,50.5C 81.81,51.488 80.6433,52.488 79,53.5C 78.0853,52.6721 77.4186,51.6721 77,50.5C 76.6667,51.1667 76.3333,51.8333 76,52.5C 75.3109,51.6433 74.4776,50.9767 73.5,50.5C 71.0801,53.3579 68.5801,53.6912 66,51.5C 64.8869,52.7111 63.7202,52.7111 62.5,51.5C 61.5224,51.9767 60.6891,52.6433 60,53.5C 57.0572,52.6842 53.8906,52.3509 50.5,52.5C 50.6495,51.448 50.4828,50.448 50,49.5C 49.6232,50.9423 48.7899,51.9423 47.5,52.5C 46.3192,49.1618 44.6525,45.9951 42.5,43C 39.2253,42.0182 36.5586,42.8515 34.5,45.5C 31.0601,46.0906 27.7268,47.0906 24.5,48.5C 23.914,48.2907 23.414,47.9574 23,47.5C 22.6322,48.91 21.7989,49.91 20.5,50.5C 19.4717,48.6385 17.9717,47.3052 16,46.5C 15.0186,49.6545 13.6852,49.9878 12,47.5C 10.7964,48.4706 10.2964,49.4706 10.5,50.5C 8.83333,45.1667 7.16667,45.1667 5.5,50.5C 5.0894,49.7376 4.92273,48.7376 5,47.5C 4.61742,48.056 4.11742,48.3893 3.5,48.5C 3.33385,42.4908 3.50051,36.4908 4,30.5C 5.71413,31.9255 7.04746,31.5922 8,29.5C 8.95603,30.8941 10.2894,31.5607 12,31.5C 17.8733,31.0274 23.8733,31.0274 30,31.5C 30.6667,26.1667 31.3333,26.1667 32,31.5C 32.6667,30.1667 33.3333,30.1667 34,31.5C 34.3333,30.8333 34.6667,30.1667 35,29.5C 35.804,30.8045 36.9707,31.4712 38.5,31.5C 41.3954,31.281 44.2288,31.281 47,31.5C 47.3333,30.8333 47.6667,30.1667 48,29.5C 49.7542,31.25 51.9208,31.9167 54.5,31.5C 54.33,30.1779 54.6634,29.0113 55.5,28C 56.9346,28.3112 58.2679,28.1445 59.5,27.5C 60.4287,28.6888 60.762,30.0222 60.5,31.5C 63.6711,30.4991 66.6711,30.4991 69.5,31.5C 70.293,30.6446 69.9597,29.8113 68.5,29C 70.2021,27.2816 72.0355,27.115 74,28.5C 73.9227,29.7376 74.0894,30.7376 74.5,31.5C 75.1924,30.9747 75.6924,30.3081 76,29.5C 76.9525,31.5922 78.2859,31.9255 80,30.5C 89.3603,31.6015 98.3603,32.2682 107,32.5C 113.333,31.8333 119.667,31.1667 126,30.5C 128.577,31.1009 131.243,31.4342 134,31.5C 135.261,31.2409 136.261,30.5742 137,29.5C 137.333,30.1667 137.667,30.8333 138,31.5C 138.667,28.8333 139.333,28.8333 140,31.5C 140.741,30.3595 141.575,30.3595 142.5,31.5C 143.281,30.2713 143.781,28.938 144,27.5C 144.36,29.6079 145.027,31.6079 146,33.5C 146.464,32.9056 146.631,32.2389 146.5,31.5 Z"/></g>
<g><path style="opacity:1" fill="#f8f8fa" d="M 47.5,52.5 C 50.8431,63.6969 54.6764,74.6969 59,85.5C 61.7289,76.6376 65.2289,68.1376 69.5,60C 76,58.5 78.5,61 77,67.5C 75.8638,69.743 75.0305,72.0763 74.5,74.5C 70.4,83.948 66.5667,93.6147 63,103.5C 58.0799,107.893 54.5799,106.893 52.5,100.5C 49.8333,92.5 47.1667,84.5 44.5,76.5C 40.3602,66.4144 37.0269,56.0811 34.5,45.5C 36.5586,42.8515 39.2253,42.0182 42.5,43C 44.6525,45.9951 46.3192,49.1618 47.5,52.5 Z"/></g>
<g><path style="opacity:1" fill="#f8f8fa" d="M 115.5,56.5 C 112.574,62.6094 110.241,68.9427 108.5,75.5C 105.993,80.5369 103.993,85.8702 102.5,91.5C 100.399,95.6102 98.566,99.9435 97,104.5C 93.6258,107.405 90.6258,107.072 88,103.5C 85.4786,97.1317 82.9786,90.7984 80.5,84.5C 81.8045,80.081 84.8045,78.4143 89.5,79.5C 90.2371,81.3046 91.2371,82.9713 92.5,84.5C 97.0638,74.04 101.064,63.3734 104.5,52.5C 105.593,49.2606 107.26,46.2606 109.5,43.5C 114.083,41.7916 117.083,43.2916 118.5,48C 117.061,50.7047 116.061,53.538 115.5,56.5 Z"/></g>
<g><path style="opacity:1" fill="#231b6e" d="M 104.5,52.5 C 101.064,63.3734 97.0638,74.04 92.5,84.5C 91.2371,82.9713 90.2371,81.3046 89.5,79.5C 88.8658,78.0532 87.6991,77.3866 86,77.5C 82.369,77.7765 78.5356,78.1098 74.5,78.5C 74.5,77.1667 74.5,75.8333 74.5,74.5C 75.0305,72.0763 75.8638,69.743 77,67.5C 78.5,61 76,58.5 69.5,60C 65.2289,68.1376 61.7289,76.6376 59,85.5C 54.6764,74.6969 50.8431,63.6969 47.5,52.5C 48.7899,51.9423 49.6232,50.9423 50,49.5C 50.4828,50.448 50.6495,51.448 50.5,52.5C 53.8906,52.3509 57.0572,52.6842 60,53.5C 60.6891,52.6433 61.5224,51.9767 62.5,51.5C 63.7202,52.7111 64.8869,52.7111 66,51.5C 68.5801,53.6912 71.0801,53.3579 73.5,50.5C 74.4776,50.9767 75.3109,51.6433 76,52.5C 76.3333,51.8333 76.6667,51.1667 77,50.5C 77.4186,51.6721 78.0853,52.6721 79,53.5C 80.6433,52.488 81.81,51.488 82.5,50.5C 84.3829,50.8757 85.8829,51.8757 87,53.5C 87.2833,50.2577 88.1166,49.9244 89.5,52.5C 92.7891,51.9183 96.2891,51.9183 100,52.5C 100.915,51.6721 101.581,50.6721 102,49.5C 102.698,50.6906 103.531,51.6906 104.5,52.5 Z"/></g>
<g><path style="opacity:1" fill="#231b6b" d="M 34.5,45.5 C 37.0269,56.0811 40.3602,66.4144 44.5,76.5C 42.6687,77.9949 40.502,78.6616 38,78.5C 29.3783,78.0721 20.8783,78.0721 12.5,78.5C 10.9707,78.4712 9.80399,77.8045 9,76.5C 7,79.1667 5,79.1667 3,76.5C 1.95701,78.8329 1.12368,81.1663 0.5,83.5C 0.5,77.1667 0.5,70.8333 0.5,64.5C 1.45837,64.0472 2.2917,63.3805 3,62.5C 3.49915,57.8452 3.66582,53.1785 3.5,48.5C 4.11742,48.3893 4.61742,48.056 5,47.5C 4.92273,48.7376 5.0894,49.7376 5.5,50.5C 7.16667,45.1667 8.83333,45.1667 10.5,50.5C 10.2964,49.4706 10.7964,48.4706 12,47.5C 13.6852,49.9878 15.0186,49.6545 16,46.5C 17.9717,47.3052 19.4717,48.6385 20.5,50.5C 21.7989,49.91 22.6322,48.91 23,47.5C 23.414,47.9574 23.914,48.2907 24.5,48.5C 27.7268,47.0906 31.0601,46.0906 34.5,45.5 Z"/></g>
<g><path style="opacity:1" fill="#261d6c" d="M 115.5,56.5 C 116.074,57.5281 116.407,58.5281 116.5,59.5C 118.591,58.9422 120.758,58.6089 123,58.5C 124.261,58.7591 125.261,59.4258 126,60.5C 128.483,59.7561 131.149,59.7561 134,60.5C 138.427,58.5891 142.76,58.5891 147,60.5C 147.671,59.7476 148.504,59.4142 149.5,59.5C 149.5,63.5 149.5,67.5 149.5,71.5C 148.603,70.4019 147.77,70.4019 147,71.5C 146.667,72.8333 146.333,74.1667 146,75.5C 145,72.8333 144,72.8333 143,75.5C 142.667,74.1667 142.333,72.8333 142,71.5C 141.683,73.3008 141.016,73.6341 140,72.5C 138.333,73.1667 136.667,73.8333 135,74.5C 134.333,73.8333 133.667,73.1667 133,72.5C 130.931,73.2638 128.764,73.7638 126.5,74C 125.853,75.6095 125.02,77.1095 124,78.5C 119.045,78.3984 113.878,78.3984 108.5,78.5C 108.5,77.5 108.5,76.5 108.5,75.5C 110.241,68.9427 112.574,62.6094 115.5,56.5 Z"/></g>
<g><path style="opacity:1" fill="#261e63" d="M 149.5,71.5 C 149.5,80.8333 149.5,90.1667 149.5,99.5C 148.542,99.9528 147.708,100.619 147,101.5C 146.689,99.444 146.189,97.444 145.5,95.5C 139.02,93.128 132.52,93.128 126,95.5C 123.358,93.9414 121.025,94.2747 119,96.5C 117.667,95.8333 116.667,94.8333 116,93.5C 115.275,95.158 114.108,95.658 112.5,95C 114.158,94.2747 114.658,93.108 114,91.5C 113.667,92.1667 113.333,92.8333 113,93.5C 111.817,92.269 110.651,92.269 109.5,93.5C 110.894,94.6869 110.727,95.3535 109,95.5C 107.296,95.026 105.462,94.8593 103.5,95C 103.957,94.586 104.291,94.086 104.5,93.5C 103.757,92.8182 103.091,92.1515 102.5,91.5C 103.993,85.8702 105.993,80.5369 108.5,75.5C 108.5,76.5 108.5,77.5 108.5,78.5C 113.878,78.3984 119.045,78.3984 124,78.5C 125.02,77.1095 125.853,75.6095 126.5,74C 128.764,73.7638 130.931,73.2638 133,72.5C 133.667,73.1667 134.333,73.8333 135,74.5C 136.667,73.8333 138.333,73.1667 140,72.5C 141.016,73.6341 141.683,73.3008 142,71.5C 142.333,72.8333 142.667,74.1667 143,75.5C 144,72.8333 145,72.8333 146,75.5C 146.333,74.1667 146.667,72.8333 147,71.5C 147.77,70.4019 148.603,70.4019 149.5,71.5 Z"/></g>
<g><path style="opacity:1" fill="#1f175b" d="M 44.5,76.5 C 47.1667,84.5 49.8333,92.5 52.5,100.5C 52.2792,103.097 51.7792,103.097 51,100.5C 49,101.167 47,101.833 45,102.5C 31.1334,101.599 17.3,101.266 3.5,101.5C 3.5,103.5 3.5,105.5 3.5,107.5C 2.73209,108.263 2.23209,109.263 2,110.5C 1.72158,109.584 1.22158,108.918 0.5,108.5C 0.5,100.167 0.5,91.8333 0.5,83.5C 1.12368,81.1663 1.95701,78.8329 3,76.5C 5,79.1667 7,79.1667 9,76.5C 9.80399,77.8045 10.9707,78.4712 12.5,78.5C 20.8783,78.0721 29.3783,78.0721 38,78.5C 40.502,78.6616 42.6687,77.9949 44.5,76.5 Z"/></g>
<g><path style="opacity:1" fill="#1c1651" d="M 74.5,74.5 C 74.5,75.8333 74.5,77.1667 74.5,78.5C 78.5356,78.1098 82.369,77.7765 86,77.5C 87.6991,77.3866 88.8658,78.0532 89.5,79.5C 84.8045,78.4143 81.8045,80.081 80.5,84.5C 82.9786,90.7984 85.4786,97.1317 88,103.5C 90.6258,107.072 93.6258,107.405 97,104.5C 98.566,99.9435 100.399,95.6102 102.5,91.5C 103.091,92.1515 103.757,92.8182 104.5,93.5C 104.291,94.086 103.957,94.586 103.5,95C 105.462,94.8593 107.296,95.026 109,95.5C 110.727,95.3535 110.894,94.6869 109.5,93.5C 110.651,92.269 111.817,92.269 113,93.5C 113.333,92.8333 113.667,92.1667 114,91.5C 114.658,93.108 114.158,94.2747 112.5,95C 114.108,95.658 115.275,95.158 116,93.5C 116.667,94.8333 117.667,95.8333 119,96.5C 121.025,94.2747 123.358,93.9414 126,95.5C 132.52,93.128 139.02,93.128 145.5,95.5C 146.189,97.444 146.689,99.444 147,101.5C 147.708,100.619 148.542,99.9528 149.5,99.5C 149.5,104.833 149.5,110.167 149.5,115.5C 148.5,115.5 147.5,115.5 146.5,115.5C 146.824,111.445 146.491,107.445 145.5,103.5C 141.808,106.862 138.141,110.195 134.5,113.5C 133.575,112.359 132.741,112.359 132,113.5C 130.428,111.411 128.595,111.411 126.5,113.5C 125.808,112.975 125.308,112.308 125,111.5C 123.488,113.957 122.154,113.957 121,111.5C 120.333,114.167 119.667,114.167 119,111.5C 117.84,113.797 116.84,113.464 116,110.5C 115.16,113.464 114.16,113.797 113,111.5C 111.333,112.5 109.667,113.5 108,114.5C 108.333,112.833 108.667,111.167 109,109.5C 101.486,109.86 94.1531,109.86 87,109.5C 86.1247,111.513 84.7913,111.513 83,109.5C 77.1448,110.58 71.4781,110.58 66,109.5C 65.6667,110.167 65.3333,110.833 65,111.5C 61.6667,110.833 58.3333,110.167 55,109.5C 53,109.5 51,109.5 49,109.5C 48.6667,110.167 48.3333,110.833 48,111.5C 41.625,109.436 35.625,109.436 30,111.5C 29.6667,110.833 29.3333,110.167 29,109.5C 24.3661,109.566 19.6994,109.566 15,109.5C 13.6667,110.167 12.3333,110.833 11,111.5C 10.6667,110.833 10.3333,110.167 10,109.5C 8.16667,109.667 6.33333,109.833 4.5,110C 3.74756,109.329 3.41423,108.496 3.5,107.5C 3.5,105.5 3.5,103.5 3.5,101.5C 17.3,101.266 31.1334,101.599 45,102.5C 47,101.833 49,101.167 51,100.5C 51.7792,103.097 52.2792,103.097 52.5,100.5C 54.5799,106.893 58.0799,107.893 63,103.5C 66.5667,93.6147 70.4,83.948 74.5,74.5 Z"/></g>
<g><path style="opacity:1" fill="#1b144a" d="M 149.5,115.5 C 149.5,118.5 149.5,121.5 149.5,124.5C 148.883,124.611 148.383,124.944 148,125.5C 147.163,123.649 146.329,121.816 145.5,120C 142.242,119.788 139.076,119.288 136,118.5C 133.765,119.239 131.765,119.239 130,118.5C 128.289,121.255 126.122,123.589 123.5,125.5C 119.556,125.049 115.389,124.715 111,124.5C 108.12,126.714 105.12,126.714 102,124.5C 101,125.833 100,125.833 99,124.5C 97.2361,126.259 95.0694,126.426 92.5,125C 95.0094,123.579 97.3428,121.912 99.5,120C 97.236,119.764 95.0693,119.264 93,118.5C 63.1433,119.087 33.3099,119.42 3.5,119.5C 3.13036,125.925 3.63036,132.258 5,138.5C 7.68673,142.194 11.1867,144.694 15.5,146C 29.1667,146.333 42.8333,146.667 56.5,147C 41.4558,147.198 26.4558,147.698 11.5,148.5C 5.54715,146.593 1.88048,142.593 0.5,136.5C 0.5,127.167 0.5,117.833 0.5,108.5C 1.22158,108.918 1.72158,109.584 2,110.5C 2.23209,109.263 2.73209,108.263 3.5,107.5C 3.41423,108.496 3.74756,109.329 4.5,110C 6.33333,109.833 8.16667,109.667 10,109.5C 10.3333,110.167 10.6667,110.833 11,111.5C 12.3333,110.833 13.6667,110.167 15,109.5C 19.6994,109.566 24.3661,109.566 29,109.5C 29.3333,110.167 29.6667,110.833 30,111.5C 35.625,109.436 41.625,109.436 48,111.5C 48.3333,110.833 48.6667,110.167 49,109.5C 51,109.5 53,109.5 55,109.5C 58.3333,110.167 61.6667,110.833 65,111.5C 65.3333,110.833 65.6667,110.167 66,109.5C 71.4781,110.58 77.1448,110.58 83,109.5C 84.7913,111.513 86.1247,111.513 87,109.5C 94.1531,109.86 101.486,109.86 109,109.5C 108.667,111.167 108.333,112.833 108,114.5C 109.667,113.5 111.333,112.5 113,111.5C 114.16,113.797 115.16,113.464 116,110.5C 116.84,113.464 117.84,113.797 119,111.5C 119.667,114.167 120.333,114.167 121,111.5C 122.154,113.957 123.488,113.957 125,111.5C 125.308,112.308 125.808,112.975 126.5,113.5C 128.595,111.411 130.428,111.411 132,113.5C 132.741,112.359 133.575,112.359 134.5,113.5C 138.141,110.195 141.808,106.862 145.5,103.5C 146.491,107.445 146.824,111.445 146.5,115.5C 147.5,115.5 148.5,115.5 149.5,115.5 Z"/></g>
<g><path style="opacity:1" fill="#1a1441" d="M 149.5,124.5 C 149.5,128.833 149.5,133.167 149.5,137.5C 147.141,143.192 143.141,147.192 137.5,149.5C 95.5,149.5 53.5,149.5 11.5,149.5C 11.5,149.167 11.5,148.833 11.5,148.5C 26.4558,147.698 41.4558,147.198 56.5,147C 42.8333,146.667 29.1667,146.333 15.5,146C 11.1867,144.694 7.68673,142.194 5,138.5C 3.63036,132.258 3.13036,125.925 3.5,119.5C 33.3099,119.42 63.1433,119.087 93,118.5C 95.0693,119.264 97.236,119.764 99.5,120C 97.3428,121.912 95.0094,123.579 92.5,125C 95.0694,126.426 97.2361,126.259 99,124.5C 100,125.833 101,125.833 102,124.5C 105.12,126.714 108.12,126.714 111,124.5C 115.389,124.715 119.556,125.049 123.5,125.5C 126.122,123.589 128.289,121.255 130,118.5C 131.765,119.239 133.765,119.239 136,118.5C 139.076,119.288 142.242,119.788 145.5,120C 146.329,121.816 147.163,123.649 148,125.5C 148.383,124.944 148.883,124.611 149.5,124.5 Z"/></g>
</svg>
