<?xml version="1.0" encoding="UTF-8"?>
<!DOCTYPE svg PUBLIC "-//W3C//DTD SVG 1.1//EN" "http://www.w3.org/Graphics/SVG/1.1/DTD/svg11.dtd">
<svg xmlns="http://www.w3.org/2000/svg" version="1.1" width="500px" height="270px" style="shape-rendering:geometricPrecision; text-rendering:geometricPrecision; image-rendering:optimizeQuality; fill-rule:evenodd; clip-rule:evenodd" xmlns:xlink="http://www.w3.org/1999/xlink">
<g><path style="opacity:0.369" fill="#99abed" d="M 140.5,87.5 C 136.566,86.6403 132.566,86.307 128.5,86.5C 114.833,86.5 101.167,86.5 87.5,86.5C 74.4506,86.2041 61.4506,86.5374 48.5,87.5C 49.347,86.0337 50.6803,85.2004 52.5,85C 80.5,84.3333 108.5,84.3333 136.5,85C 138.32,85.2004 139.653,86.0337 140.5,87.5 Z"/></g>
<g><path style="opacity:0.369" fill="#97a9ed" d="M 246.5,93.5 C 245.536,90.9255 244.036,88.5922 242,86.5C 241.617,87.056 241.117,87.3893 240.5,87.5C 232.35,86.5073 224.017,86.1739 215.5,86.5C 205.833,86.5 196.167,86.5 186.5,86.5C 175.828,86.3335 165.161,86.5002 154.5,87C 153.295,88.3756 151.962,89.5423 150.5,90.5C 151.353,87.4821 153.353,85.6488 156.5,85C 184.5,84.3333 212.5,84.3333 240.5,85C 244.823,86.1341 246.823,88.9674 246.5,93.5 Z"/></g>
<g><path style="opacity:0.369" fill="#91a8ed" d="M 344.5,85.5 C 339.36,86.4881 334.026,86.8214 328.5,86.5C 319.167,86.5 309.833,86.5 300.5,86.5C 294.5,86.5 288.5,86.5 282.5,86.5C 274.493,86.3336 266.493,86.5003 258.5,87C 256.922,88.0945 255.255,88.9278 253.5,89.5C 254.771,87.0661 256.771,85.5661 259.5,85C 288.003,84.1696 316.336,84.3363 344.5,85.5 Z"/></g>
<g><path style="opacity:0.369" fill="#91a7ed" d="M 450.5,86.5 C 449.833,86.5 449.167,86.5 448.5,86.5C 444.833,86.5 441.167,86.5 437.5,86.5C 425.167,86.5 412.833,86.5 400.5,86.5C 393.167,86.5 385.833,86.5 378.5,86.5C 372.409,86.2114 366.409,86.5447 360.5,87.5C 360.5,87.1667 360.5,86.8333 360.5,86.5C 361.263,85.7321 362.263,85.2321 363.5,85C 391.833,84.3333 420.167,84.3333 448.5,85C 449.416,85.2784 450.082,85.7784 450.5,86.5 Z"/></g>
<g><path style="opacity:1" fill="#4f27fc" d="M 87.5,86.5 C 88.0283,87.7206 88.695,88.8873 89.5,90C 88.1667,92.3333 88.1667,94.6667 89.5,97C 88.8333,97.3333 88.1667,97.6667 87.5,98C 88.1667,103 88.8333,108 89.5,113C 86.8333,113.667 86.8333,114.333 89.5,115C 89.0794,119.211 89.0794,123.211 89.5,127C 86.9289,129.256 86.9289,131.422 89.5,133.5C 88.5646,137.306 87.2313,140.972 85.5,144.5C 80.9983,134.504 77.1649,124.17 74,113.5C 72.9938,110.11 70.9938,109.11 68,110.5C 67.3333,112.5 67.3333,114.5 68,116.5C 72.2002,127.435 76.2002,138.435 80,149.5C 81.0574,152.272 82.5574,154.605 84.5,156.5C 85.4687,157.309 86.3021,158.309 87,159.5C 87.3333,159.167 87.6667,158.833 88,158.5C 88.2178,161.426 88.7178,164.26 89.5,167C 88.1667,169 88.1667,171 89.5,173C 86.8333,173.667 86.8333,174.333 89.5,175C 89.5,176.333 89.5,177.667 89.5,179C 87.3808,179.342 87.0474,180.175 88.5,181.5C 76.5,181.5 64.5,181.5 52.5,181.5C 50.525,180.354 49.025,178.687 48,176.5C 47.1904,146.804 47.3571,117.137 48.5,87.5C 61.4506,86.5374 74.4506,86.2041 87.5,86.5 Z"/></g>
<g><path style="opacity:1" fill="#4732fc" d="M 87.5,86.5 C 101.167,86.5 114.833,86.5 128.5,86.5C 126.782,87.224 124.948,87.8906 123,88.5C 122.667,88.1667 122.333,87.8333 122,87.5C 121.626,88.4162 121.126,89.2496 120.5,90C 121.793,96.4217 121.793,102.422 120.5,108C 125.466,107.631 127.633,109.798 127,114.5C 126.601,114.272 126.435,113.938 126.5,113.5C 125.364,109.287 123.197,108.62 120,111.5C 116.118,122.319 111.951,132.985 107.5,143.5C 106.816,138.732 104.316,137.399 100,139.5C 101.3,144.898 103.134,150.232 105.5,155.5C 107.167,156.833 108.833,156.833 110.5,155.5C 113.799,145.92 117.466,136.587 121.5,127.5C 121.348,133.909 121.348,139.743 121.5,145C 121,145.5 120.5,146 120,146.5C 118.956,145.377 118.29,144.044 118,142.5C 116.257,146.751 115.09,151.251 114.5,156C 115.833,163.333 115.833,170.667 114.5,178C 115.362,180.734 116.195,180.901 117,178.5C 117.667,181.167 118.333,181.167 119,178.5C 119.667,181.167 120.333,181.167 121,178.5C 121.317,180.301 121.984,180.634 123,179.5C 124.948,180.109 126.782,180.776 128.5,181.5C 115.167,181.5 101.833,181.5 88.5,181.5C 87.0474,180.175 87.3808,179.342 89.5,179C 89.5,177.667 89.5,176.333 89.5,175C 86.8333,174.333 86.8333,173.667 89.5,173C 88.1667,171 88.1667,169 89.5,167C 88.7178,164.26 88.2178,161.426 88,158.5C 87.6667,158.833 87.3333,159.167 87,159.5C 86.3021,158.309 85.4687,157.309 84.5,156.5C 85.675,156.719 86.675,156.386 87.5,155.5C 91.4809,146.596 95.3143,137.596 99,128.5C 100.583,123.9 99.0833,122.066 94.5,123C 92.9122,126.628 91.2456,130.128 89.5,133.5C 86.9289,131.422 86.9289,129.256 89.5,127C 89.0794,123.211 89.0794,119.211 89.5,115C 86.8333,114.333 86.8333,113.667 89.5,113C 88.8333,108 88.1667,103 87.5,98C 88.1667,97.6667 88.8333,97.3333 89.5,97C 88.1667,94.6667 88.1667,92.3333 89.5,90C 88.695,88.8873 88.0283,87.7206 87.5,86.5 Z"/></g>
<g><path style="opacity:1" fill="#433bfd" d="M 128.5,86.5 C 132.566,86.307 136.566,86.6403 140.5,87.5C 140.709,88.9217 141.209,90.255 142,91.5C 142.667,119.833 142.667,148.167 142,176.5C 140.198,177.789 139.031,179.456 138.5,181.5C 135.167,181.5 131.833,181.5 128.5,181.5C 126.782,180.776 124.948,180.109 123,179.5C 121.984,180.634 121.317,180.301 121,178.5C 120.333,181.167 119.667,181.167 119,178.5C 118.333,181.167 117.667,181.167 117,178.5C 116.195,180.901 115.362,180.734 114.5,178C 115.833,170.667 115.833,163.333 114.5,156C 115.09,151.251 116.257,146.751 118,142.5C 118.29,144.044 118.956,145.377 120,146.5C 120.5,146 121,145.5 121.5,145C 121.348,139.743 121.348,133.909 121.5,127.5C 122.398,122.466 124.065,117.799 126.5,113.5C 126.435,113.938 126.601,114.272 127,114.5C 127.633,109.798 125.466,107.631 120.5,108C 121.793,102.422 121.793,96.4217 120.5,90C 121.126,89.2496 121.626,88.4162 122,87.5C 122.333,87.8333 122.667,88.1667 123,88.5C 124.948,87.8906 126.782,87.224 128.5,86.5 Z"/></g>
<g><path style="opacity:1" fill="#404afe" d="M 186.5,86.5 C 186.611,88.6477 185.944,88.981 184.5,87.5C 181.035,88.4336 180.702,89.9336 183.5,92C 181.145,95.502 181.145,99.3353 183.5,103.5C 180.956,105.611 180.956,107.778 183.5,110C 182.643,110.689 181.977,111.522 181.5,112.5C 181.421,114.929 181.755,117.429 182.5,120C 180.032,122.716 180.032,125.549 182.5,128.5C 182.273,130.671 181.94,132.838 181.5,135C 182.332,135.688 182.998,135.521 183.5,134.5C 185.724,128.385 188.224,122.385 191,116.5C 191.464,117.094 191.631,117.761 191.5,118.5C 187.155,129.041 182.989,139.708 179,150.5C 178.211,152.712 178.378,154.712 179.5,156.5C 180.263,157.268 181.263,157.768 182.5,158C 177.929,158.439 175.429,156.272 175,151.5C 174.833,152.333 174.667,153.167 174.5,154C 175.541,156.723 177.041,159.223 179,161.5C 180.583,159.007 182.083,159.174 183.5,162C 182.167,164 182.167,166 183.5,168C 182.428,169.284 181.095,169.617 179.5,169C 180.278,172.225 181.612,175.225 183.5,178C 183.167,178.333 182.833,178.667 182.5,179C 188.175,180.121 193.842,180.955 199.5,181.5C 184.5,181.5 169.5,181.5 154.5,181.5C 152.156,180.653 150.656,178.986 150,176.5C 149.176,147.761 149.342,119.095 150.5,90.5C 151.962,89.5423 153.295,88.3756 154.5,87C 165.161,86.5002 175.828,86.3335 186.5,86.5 Z"/></g>
<g><path style="opacity:1" fill="#3650fe" d="M 186.5,86.5 C 196.167,86.5 205.833,86.5 215.5,86.5C 214.469,87.2485 213.302,87.9152 212,88.5C 210.989,87.6634 209.822,87.33 208.5,87.5C 208.5,100.5 208.5,113.5 208.5,126.5C 205.414,120.427 202.414,114.261 199.5,108C 198.365,107.251 197.365,107.417 196.5,108.5C 194.814,111.937 193.147,115.271 191.5,118.5C 191.631,117.761 191.464,117.094 191,116.5C 188.224,122.385 185.724,128.385 183.5,134.5C 182.998,135.521 182.332,135.688 181.5,135C 181.94,132.838 182.273,130.671 182.5,128.5C 180.032,125.549 180.032,122.716 182.5,120C 181.755,117.429 181.421,114.929 181.5,112.5C 181.977,111.522 182.643,110.689 183.5,110C 180.956,107.778 180.956,105.611 183.5,103.5C 181.145,99.3353 181.145,95.502 183.5,92C 180.702,89.9336 181.035,88.4336 184.5,87.5C 185.944,88.981 186.611,88.6477 186.5,86.5 Z"/></g>
<g><path style="opacity:1" fill="#2e59fe" d="M 215.5,86.5 C 224.017,86.1739 232.35,86.5073 240.5,87.5C 238.507,118.482 237.841,149.816 238.5,181.5C 226.5,181.5 214.5,181.5 202.5,181.5C 202.783,180.711 203.283,180.044 204,179.5C 205.117,179.665 206.284,179.998 207.5,180.5C 208.332,170.183 208.832,159.849 209,149.5C 209.383,150.056 209.883,150.389 210.5,150.5C 211.771,152.109 212.771,153.942 213.5,156C 216.567,157.164 218.233,156.164 218.5,153C 215.019,144.307 211.686,135.473 208.5,126.5C 208.5,113.5 208.5,100.5 208.5,87.5C 209.822,87.33 210.989,87.6634 212,88.5C 213.302,87.9152 214.469,87.2485 215.5,86.5 Z"/></g>
<g><path style="opacity:1" fill="#2566fd" d="M 282.5,86.5 C 281.448,88.256 279.781,88.9227 277.5,88.5C 277.182,119.544 277.515,150.544 278.5,181.5C 271.825,181.666 265.158,181.5 258.5,181C 257.473,180.487 256.473,179.987 255.5,179.5C 254.5,179.167 253.833,178.5 253.5,177.5C 254.833,148.5 254.833,119.5 253.5,90.5C 253.5,90.1667 253.5,89.8333 253.5,89.5C 255.255,88.9278 256.922,88.0945 258.5,87C 266.493,86.5003 274.493,86.3336 282.5,86.5 Z"/></g>
<g><path style="opacity:1" fill="#206ffd" d="M 282.5,86.5 C 288.5,86.5 294.5,86.5 300.5,86.5C 303.287,87.4767 306.287,87.81 309.5,87.5C 309.199,95.5856 309.533,103.586 310.5,111.5C 298.978,106.932 291.311,110.432 287.5,122C 288.333,126.683 290.666,130.516 294.5,133.5C 299.991,136.042 305.157,139.042 310,142.5C 310.496,149.861 306.996,153.028 299.5,152C 293.684,150.729 290.684,147.062 290.5,141C 287.741,140.023 285.741,140.856 284.5,143.5C 287.252,155.886 294.918,160.719 307.5,158C 309.193,157.153 310.86,156.32 312.5,155.5C 313.493,163.65 313.826,171.983 313.5,180.5C 316.385,180.194 319.052,180.527 321.5,181.5C 307.167,181.5 292.833,181.5 278.5,181.5C 277.515,150.544 277.182,119.544 277.5,88.5C 279.781,88.9227 281.448,88.256 282.5,86.5 Z"/></g>
<g><path style="opacity:1" fill="#1d78fe" d="M 300.5,86.5 C 309.833,86.5 319.167,86.5 328.5,86.5C 328.502,90.5411 329.835,91.2077 332.5,88.5C 333.696,89.5594 334.363,90.8927 334.5,92.5C 333.833,94.1667 333.167,95.8333 332.5,97.5C 333.027,100.308 333.027,102.975 332.5,105.5C 336.139,107.276 336.472,109.61 333.5,112.5C 334.04,113.748 334.707,114.915 335.5,116C 336.022,118.289 335.355,120.456 333.5,122.5C 335.781,124.674 335.781,126.674 333.5,128.5C 334.833,129.833 334.833,131.167 333.5,132.5C 335.994,135.08 335.994,137.747 333.5,140.5C 335.294,143.44 335.294,146.107 333.5,148.5C 335.965,152.322 335.799,156.322 333,160.5C 332.581,159.328 331.915,158.328 331,157.5C 330.833,157.833 330.667,158.167 330.5,158.5C 332.45,161.515 334.116,164.681 335.5,168C 336.022,170.289 335.355,172.456 333.5,174.5C 336.092,176.855 335.925,178.855 333,180.5C 332.085,179.672 331.419,178.672 331,177.5C 330.086,178.654 329.253,178.487 328.5,177C 329.451,176.282 329.617,175.449 329,174.5C 327.648,176.594 327.148,178.927 327.5,181.5C 325.5,181.5 323.5,181.5 321.5,181.5C 319.052,180.527 316.385,180.194 313.5,180.5C 313.826,171.983 313.493,163.65 312.5,155.5C 317.736,148.929 317.736,142.429 312.5,136C 307.399,132.561 302.066,129.561 296.5,127C 293.833,123.667 293.833,120.333 296.5,117C 304.163,114.323 308.663,116.823 310,124.5C 311.133,126.211 312.633,126.711 314.5,126C 315.61,123.263 315.777,120.429 315,117.5C 312.898,115.905 311.398,113.905 310.5,111.5C 309.533,103.586 309.199,95.5856 309.5,87.5C 306.287,87.81 303.287,87.4767 300.5,86.5 Z"/></g>
<g><path style="opacity:1" fill="#1880fe" d="M 344.5,85.5 C 347.81,86.1435 349.81,88.1435 350.5,91.5C 349.818,120.372 349.151,149.372 348.5,178.5C 348.167,180.833 346.833,182.167 344.5,182.5C 338.925,181.548 333.259,181.214 327.5,181.5C 327.148,178.927 327.648,176.594 329,174.5C 329.617,175.449 329.451,176.282 328.5,177C 329.253,178.487 330.086,178.654 331,177.5C 331.419,178.672 332.085,179.672 333,180.5C 335.925,178.855 336.092,176.855 333.5,174.5C 335.355,172.456 336.022,170.289 335.5,168C 334.116,164.681 332.45,161.515 330.5,158.5C 330.667,158.167 330.833,157.833 331,157.5C 331.915,158.328 332.581,159.328 333,160.5C 335.799,156.322 335.965,152.322 333.5,148.5C 335.294,146.107 335.294,143.44 333.5,140.5C 335.994,137.747 335.994,135.08 333.5,132.5C 334.833,131.167 334.833,129.833 333.5,128.5C 335.781,126.674 335.781,124.674 333.5,122.5C 335.355,120.456 336.022,118.289 335.5,116C 334.707,114.915 334.04,113.748 333.5,112.5C 336.472,109.61 336.139,107.276 332.5,105.5C 333.027,102.975 333.027,100.308 332.5,97.5C 333.167,95.8333 333.833,94.1667 334.5,92.5C 334.363,90.8927 333.696,89.5594 332.5,88.5C 329.835,91.2077 328.502,90.5411 328.5,86.5C 334.026,86.8214 339.36,86.4881 344.5,85.5 Z"/></g>
<g><path style="opacity:1" fill="#0f87fe" d="M 378.5,86.5 C 378.5,117.833 378.5,149.167 378.5,180.5C 381.907,179.732 385.24,180.066 388.5,181.5C 379.983,181.174 371.65,181.507 363.5,182.5C 363.167,182.5 362.833,182.5 362.5,182.5C 361.167,180.833 359.833,179.167 358.5,177.5C 358.333,148.165 358.5,118.831 359,89.5C 359.717,88.9558 360.217,88.2891 360.5,87.5C 366.409,86.5447 372.409,86.2114 378.5,86.5 Z"/></g>
<g><path style="opacity:1" fill="#1690ff" d="M 378.5,86.5 C 385.833,86.5 393.167,86.5 400.5,86.5C 400.217,87.2891 399.717,87.9558 399,88.5C 398.333,94.8333 398.333,101.167 399,107.5C 400.38,108.256 400.547,108.922 399.5,109.5C 397.399,107.891 395.065,107.391 392.5,108C 391.483,109.049 391.316,110.216 392,111.5C 401.869,118.666 411.369,126.166 420.5,134C 413.061,140.093 405.561,146.26 398,152.5C 397.667,144.167 397.333,135.833 397,127.5C 395.542,126.253 394.042,126.253 392.5,127.5C 391.334,138.151 391.168,148.818 392,159.5C 393.588,161.968 395.422,162.134 397.5,160C 404.837,153.672 412.504,147.839 420.5,142.5C 421.239,142.369 421.906,142.536 422.5,143C 419.319,145.092 416.319,147.425 413.5,150C 414.32,159.756 414.82,169.59 415,179.5C 419.005,179.995 423.171,180.661 427.5,181.5C 414.5,181.5 401.5,181.5 388.5,181.5C 385.24,180.066 381.907,179.732 378.5,180.5C 378.5,149.167 378.5,117.833 378.5,86.5 Z"/></g>
<g><path style="opacity:1" fill="#0e98ff" d="M 400.5,86.5 C 412.833,86.5 425.167,86.5 437.5,86.5C 437.631,87.3764 437.298,88.0431 436.5,88.5C 434.674,88.0798 432.674,88.0798 430.5,88.5C 430.382,103.891 430.549,119.224 431,134.5C 430.722,133.584 430.222,132.918 429.5,132.5C 419.5,124.833 409.5,117.167 399.5,109.5C 400.547,108.922 400.38,108.256 399,107.5C 398.333,101.167 398.333,94.8333 399,88.5C 399.717,87.9558 400.217,87.2891 400.5,86.5 Z"/></g>
<g><path style="opacity:1" fill="#049ffe" d="M 437.5,86.5 C 441.167,86.5 444.833,86.5 448.5,86.5C 449.458,87.9616 450.624,89.2949 452,90.5C 452.168,119.67 452.668,148.67 453.5,177.5C 452.69,180.646 450.69,182.313 447.5,182.5C 447.5,181.833 447.167,181.5 446.5,181.5C 441.142,180.313 435.809,179.647 430.5,179.5C 430.829,164.657 430.496,149.99 429.5,135.5C 429.5,134.5 429.5,133.5 429.5,132.5C 430.222,132.918 430.722,133.584 431,134.5C 430.549,119.224 430.382,103.891 430.5,88.5C 432.674,88.0798 434.674,88.0798 436.5,88.5C 437.298,88.0431 437.631,87.3764 437.5,86.5 Z"/></g>
<g><path style="opacity:1" fill="#3862fe" d="M 246.5,93.5 C 246.667,121.835 246.5,150.169 246,178.5C 244.961,179.71 243.794,180.71 242.5,181.5C 241.167,181.5 239.833,181.5 238.5,181.5C 237.841,149.816 238.507,118.482 240.5,87.5C 241.117,87.3893 241.617,87.056 242,86.5C 244.036,88.5922 245.536,90.9255 246.5,93.5 Z"/></g>
<g><path style="opacity:0.078" fill="#677ef2" d="M 140.5,87.5 C 141.79,88.0577 142.623,89.0577 143,90.5C 143.667,119.5 143.667,148.5 143,177.5C 142.252,179.751 140.752,181.084 138.5,181.5C 139.031,179.456 140.198,177.789 142,176.5C 142.667,148.167 142.667,119.833 142,91.5C 141.209,90.255 140.709,88.9217 140.5,87.5 Z"/></g>
<g><path style="opacity:0.078" fill="#6b82f0" d="M 357.5,90.5 C 357.169,119.671 357.502,148.671 358.5,177.5C 359.833,179.167 361.167,180.833 362.5,182.5C 359.464,181.638 357.131,179.805 355.5,177C 356.163,148.069 356.829,119.236 357.5,90.5 Z"/></g>
<g><path style="opacity:0.694" fill="#5742fc" d="M 48.5,87.5 C 47.3571,117.137 47.1904,146.804 48,176.5C 49.025,178.687 50.525,180.354 52.5,181.5C 51.8333,181.5 51.1667,181.5 50.5,181.5C 48.665,180.878 47.4983,179.544 47,177.5C 46.3333,148.167 46.3333,118.833 47,89.5C 47.2784,88.5842 47.7784,87.9175 48.5,87.5 Z"/></g>
<g><path style="opacity:0.369" fill="#8aaffe" d="M 350.5,91.5 C 350.667,120.169 350.5,148.835 350,177.5C 349.617,178.056 349.117,178.389 348.5,178.5C 349.151,149.372 349.818,120.372 350.5,91.5 Z"/></g>
<g><path style="opacity:0.624" fill="#559efe" d="M 360.5,86.5 C 360.5,86.8333 360.5,87.1667 360.5,87.5C 360.217,88.2891 359.717,88.9558 359,89.5C 358.5,118.831 358.333,148.165 358.5,177.5C 357.502,148.671 357.169,119.671 357.5,90.5C 357.389,89.8826 357.056,89.3826 356.5,89C 357.984,88.3378 359.317,87.5045 360.5,86.5 Z"/></g>
<g><path style="opacity:0.871" fill="#208cfe" d="M 448.5,86.5 C 449.167,86.5 449.833,86.5 450.5,86.5C 451.79,87.0577 452.623,88.0577 453,89.5C 453.5,118.831 453.667,148.165 453.5,177.5C 452.668,148.67 452.168,119.67 452,90.5C 450.624,89.2949 449.458,87.9616 448.5,86.5 Z"/></g>
<g><path style="opacity:0.369" fill="#8cb0fd" d="M 253.5,90.5 C 254.833,119.5 254.833,148.5 253.5,177.5C 252.884,176.798 252.884,175.798 253.5,174.5C 253.5,147.833 253.5,121.167 253.5,94.5C 253.165,92.9974 253.165,91.664 253.5,90.5 Z"/></g>
<g><path style="opacity:0.02" fill="#9899cc" d="M 253.5,94.5 C 253.5,121.167 253.5,147.833 253.5,174.5C 252.711,174.217 252.044,173.717 251.5,173C 252.237,146.772 252.237,120.772 251.5,95C 252.094,94.5357 252.761,94.369 253.5,94.5 Z"/></g>
<g><path style="opacity:1" fill="#f3f4ff" d="M 208.5,126.5 C 211.686,135.473 215.019,144.307 218.5,153C 218.233,156.164 216.567,157.164 213.5,156C 212.771,153.942 211.771,152.109 210.5,150.5C 210.5,149.5 210.5,148.5 210.5,147.5C 205.57,147.803 200.737,147.469 196,146.5C 195.257,144.559 195.424,142.726 196.5,141C 199.882,140.824 203.215,140.324 206.5,139.5C 203.667,133.167 200.833,126.833 198,120.5C 193.345,131.788 188.678,143.122 184,154.5C 182.89,156.037 181.39,156.703 179.5,156.5C 178.378,154.712 178.211,152.712 179,150.5C 182.989,139.708 187.155,129.041 191.5,118.5C 193.147,115.271 194.814,111.937 196.5,108.5C 197.365,107.417 198.365,107.251 199.5,108C 202.414,114.261 205.414,120.427 208.5,126.5 Z"/></g>
<g><path style="opacity:1" fill="#f7f9ff" d="M 399.5,109.5 C 409.5,117.167 419.5,124.833 429.5,132.5C 429.5,133.5 429.5,134.5 429.5,135.5C 426.19,137.482 423.19,139.815 420.5,142.5C 412.504,147.839 404.837,153.672 397.5,160C 395.422,162.134 393.588,161.968 392,159.5C 391.168,148.818 391.334,138.151 392.5,127.5C 394.042,126.253 395.542,126.253 397,127.5C 397.333,135.833 397.667,144.167 398,152.5C 405.561,146.26 413.061,140.093 420.5,134C 411.369,126.166 401.869,118.666 392,111.5C 391.316,110.216 391.483,109.049 392.5,108C 395.065,107.391 397.399,107.891 399.5,109.5 Z"/></g>
<g><path style="opacity:1" fill="#f0f1ff" d="M 89.5,133.5 C 91.2456,130.128 92.9122,126.628 94.5,123C 99.0833,122.066 100.583,123.9 99,128.5C 95.3143,137.596 91.4809,146.596 87.5,155.5C 86.675,156.386 85.675,156.719 84.5,156.5C 82.5574,154.605 81.0574,152.272 80,149.5C 76.2002,138.435 72.2002,127.435 68,116.5C 67.3333,114.5 67.3333,112.5 68,110.5C 70.9938,109.11 72.9938,110.11 74,113.5C 77.1649,124.17 80.9983,134.504 85.5,144.5C 87.2313,140.972 88.5646,137.306 89.5,133.5 Z"/></g>
<g><path style="opacity:1" fill="#f2f3ff" d="M 126.5,113.5 C 124.065,117.799 122.398,122.466 121.5,127.5C 117.466,136.587 113.799,145.92 110.5,155.5C 108.833,156.833 107.167,156.833 105.5,155.5C 103.134,150.232 101.3,144.898 100,139.5C 104.316,137.399 106.816,138.732 107.5,143.5C 111.951,132.985 116.118,122.319 120,111.5C 123.197,108.62 125.364,109.287 126.5,113.5 Z"/></g>
<g><path style="opacity:1" fill="#eff2ff" d="M 310.5,111.5 C 311.398,113.905 312.898,115.905 315,117.5C 315.777,120.429 315.61,123.263 314.5,126C 312.633,126.711 311.133,126.211 310,124.5C 308.663,116.823 304.163,114.323 296.5,117C 293.833,120.333 293.833,123.667 296.5,127C 302.066,129.561 307.399,132.561 312.5,136C 317.736,142.429 317.736,148.929 312.5,155.5C 310.86,156.32 309.193,157.153 307.5,158C 294.918,160.719 287.252,155.886 284.5,143.5C 285.741,140.856 287.741,140.023 290.5,141C 290.684,147.062 293.684,150.729 299.5,152C 306.996,153.028 310.496,149.861 310,142.5C 305.157,139.042 299.991,136.042 294.5,133.5C 290.666,130.516 288.333,126.683 287.5,122C 291.311,110.432 298.978,106.932 310.5,111.5 Z"/></g>
<g><path style="opacity:0.02" fill="#9496d0" d="M 499.5,119.5 C 499.5,120.167 499.5,120.833 499.5,121.5C 492.167,121.5 484.833,121.5 477.5,121.5C 477.688,123.103 477.188,124.437 476,125.5C 475.257,123.559 475.424,121.726 476.5,120C 484.159,119.5 491.826,119.334 499.5,119.5 Z"/></g>
<g><path style="opacity:0.02" fill="#9899cc" d="M 499.5,123.5 C 499.5,124.167 499.5,124.833 499.5,125.5C 498.167,124.833 498.167,124.167 499.5,123.5 Z"/></g>
<g><path style="opacity:1" fill="#3750fe" d="M 210.5,150.5 C 209.883,150.389 209.383,150.056 209,149.5C 208.832,159.849 208.332,170.183 207.5,180.5C 206.284,179.998 205.117,179.665 204,179.5C 203.283,180.044 202.783,180.711 202.5,181.5C 201.5,181.5 200.5,181.5 199.5,181.5C 193.842,180.955 188.175,180.121 182.5,179C 182.833,178.667 183.167,178.333 183.5,178C 181.612,175.225 180.278,172.225 179.5,169C 181.095,169.617 182.428,169.284 183.5,168C 182.167,166 182.167,164 183.5,162C 182.083,159.174 180.583,159.007 179,161.5C 177.041,159.223 175.541,156.723 174.5,154C 174.667,153.167 174.833,152.333 175,151.5C 175.429,156.272 177.929,158.439 182.5,158C 181.263,157.768 180.263,157.268 179.5,156.5C 181.39,156.703 182.89,156.037 184,154.5C 188.678,143.122 193.345,131.788 198,120.5C 200.833,126.833 203.667,133.167 206.5,139.5C 203.215,140.324 199.882,140.824 196.5,141C 195.424,142.726 195.257,144.559 196,146.5C 200.737,147.469 205.57,147.803 210.5,147.5C 210.5,148.5 210.5,149.5 210.5,150.5 Z"/></g>
<g><path style="opacity:0.02" fill="#9798cd" d="M 484.5,124.5 C 486.467,132.097 487.134,140.097 486.5,148.5C 487.822,148.67 488.989,148.337 490,147.5C 490.169,139.812 490.669,132.145 491.5,124.5C 492.802,132.528 492.802,140.528 491.5,148.5C 489.287,151.08 487.12,151.08 485,148.5C 484.5,140.507 484.334,132.507 484.5,124.5 Z"/></g>
<g><path style="opacity:1" fill="#089aff" d="M 429.5,135.5 C 430.496,149.99 430.829,164.657 430.5,179.5C 435.809,179.647 441.142,180.313 446.5,181.5C 440.167,181.5 433.833,181.5 427.5,181.5C 423.171,180.661 419.005,179.995 415,179.5C 414.82,169.59 414.32,159.756 413.5,150C 416.319,147.425 419.319,145.092 422.5,143C 421.906,142.536 421.239,142.369 420.5,142.5C 423.19,139.815 426.19,137.482 429.5,135.5 Z"/></g>
<g><path style="opacity:0.078" fill="#7e89e2" d="M 471.5,144.5 C 470.022,144.762 468.689,144.429 467.5,143.5C 468.167,143.167 468.833,142.833 469.5,142.5C 470.713,142.747 471.38,143.414 471.5,144.5 Z"/></g>
<g><path style="opacity:0.02" fill="#888edb" d="M 471.5,144.5 C 472.586,144.62 473.253,145.287 473.5,146.5C 471.752,150.589 469.252,151.255 466,148.5C 465.333,147.167 465.333,145.833 466,144.5C 467.487,145.253 467.654,146.086 466.5,147C 469.686,149.324 471.352,148.491 471.5,144.5 Z"/></g>
<g><path style="opacity:0.212" fill="#a5b9f8" d="M 50.5,181.5 C 51.1667,181.5 51.8333,181.5 52.5,181.5C 64.5,181.5 76.5,181.5 88.5,181.5C 101.833,181.5 115.167,181.5 128.5,181.5C 131.833,181.5 135.167,181.5 138.5,181.5C 127.431,182.177 116.265,182.843 105,183.5C 89.5391,182.546 72.2057,182.546 53,183.5C 52.0053,182.934 51.172,182.267 50.5,181.5 Z"/></g>
<g><path style="opacity:0.212" fill="#a3b6f5" d="M 154.5,181.5 C 169.5,181.5 184.5,181.5 199.5,181.5C 200.5,181.5 201.5,181.5 202.5,181.5C 214.5,181.5 226.5,181.5 238.5,181.5C 239.833,181.5 241.167,181.5 242.5,181.5C 239.437,182.201 236.27,182.868 233,183.5C 210.681,183.446 184.515,182.779 154.5,181.5 Z"/></g>
<g><path style="opacity:0.212" fill="#a1b0ed" d="M 255.5,179.5 C 256.473,179.987 257.473,180.487 258.5,181C 265.158,181.5 271.825,181.666 278.5,181.5C 292.833,181.5 307.167,181.5 321.5,181.5C 323.5,181.5 325.5,181.5 327.5,181.5C 333.259,181.214 338.925,181.548 344.5,182.5C 317.336,183.664 290.003,183.83 262.5,183C 259.768,182.587 257.101,181.92 254.5,181C 255.056,180.617 255.389,180.117 255.5,179.5 Z"/></g>
<g><path style="opacity:0.212" fill="#a0ade7" d="M 388.5,181.5 C 401.5,181.5 414.5,181.5 427.5,181.5C 433.833,181.5 440.167,181.5 446.5,181.5C 447.167,181.5 447.5,181.833 447.5,182.5C 447.389,183.117 447.056,183.617 446.5,184C 440.833,184.667 435.167,184.667 429.5,184C 429,183.5 428.5,183 428,182.5C 421.362,182.556 414.362,182.556 407,182.5C 406.667,183.167 406.333,183.833 406,184.5C 403,183.833 400,183.167 397,182.5C 396.333,183.167 395.667,183.833 395,184.5C 384.402,183.844 373.902,183.177 363.5,182.5C 371.65,181.507 379.983,181.174 388.5,181.5 Z"/></g>
</svg>
