<?xml version="1.0" encoding="UTF-8"?>
<svg width="512px" height="512px" viewBox="0 0 512 512" version="1.1" xmlns="http://www.w3.org/2000/svg" xmlns:xlink="http://www.w3.org/1999/xlink">
    <!-- Generator: Sketch 52.4 (67378) - http://www.bohemiancoding.com/sketch -->
    <title>icon</title>
    <desc>Created with Sketch.</desc>
    <g id="Page-1" stroke="none" stroke-width="1" fill="none" fill-rule="evenodd">
        <g id="icon">
            <g id="Group">
                <rect id="Rectangle" fill="#0B1D38" x="0" y="0" width="511.998" height="511.998" rx="108.623"></rect>
                <circle id="Oval" fill="#F41240" cx="419.52" cy="110" r="32.3481"></circle>
                <path d="M323.396,138.772 L96.0543,138.772 L96.0543,391.5 L159.331,391.5 L159.331,309.278 L280.58,309.278 L335.9,391.5 L406.755,391.5 L345.751,308.899 C364.696,305.868 378.337,298.669 386.673,287.302 C395.009,275.935 399.177,257.747 399.177,233.498 L399.177,214.552 C399.177,200.154 397.661,188.787 395.009,180.072 C392.356,171.358 387.809,163.779 381.368,156.959 C374.548,150.518 366.97,145.971 357.876,142.94 C348.782,140.287 337.415,138.772 323.396,138.772 Z M313.166,253.579 L159.331,253.579 L159.331,194.471 L313.166,194.471 C321.88,194.471 327.943,195.986 330.974,198.639 C334.005,201.291 335.9,206.217 335.9,213.416 L335.9,234.634 C335.9,242.212 334.005,247.138 330.974,249.79 C327.943,252.443 321.88,253.579 313.166,253.579 Z" id="Shape" fill="#FFFFFF" fill-rule="nonzero"></path>
            </g>
        </g>
    </g>
</svg>