<?xml version="1.0" encoding="UTF-8"?>
<!DOCTYPE svg PUBLIC "-//W3C//DTD SVG 1.1//EN" "http://www.w3.org/Graphics/SVG/1.1/DTD/svg11.dtd">
<svg xmlns="http://www.w3.org/2000/svg" version="1.1" width="700px" height="700px" style="shape-rendering:geometricPrecision; text-rendering:geometricPrecision; image-rendering:optimizeQuality; fill-rule:evenodd; clip-rule:evenodd" xmlns:xlink="http://www.w3.org/1999/xlink">
<g><path style="opacity:0.998" fill="#fe2b42" d="M 309.5,13.5 C 315.567,14.1847 321.734,14.8514 328,15.5C 330.472,15.0166 332.972,14.6833 335.5,14.5C 352.48,15.2689 369.48,15.9356 386.5,16.5C 397.833,17.1667 409.167,17.8333 420.5,18.5C 426.91,20.2812 433.576,21.2812 440.5,21.5C 447.519,23.7086 454.852,25.3752 462.5,26.5C 465.801,28.5845 469.468,29.9178 473.5,30.5C 512.184,44.0132 539.017,70.0132 554,108.5C 557.98,122.078 561.146,135.745 563.5,149.5C 564.405,158.033 565.738,166.366 567.5,174.5C 567.833,182.5 568.167,190.5 568.5,198.5C 568.983,209.329 569.65,219.996 570.5,230.5C 570.5,238.5 570.5,246.5 570.5,254.5C 570.745,325.838 570.412,397.172 569.5,468.5C 569.547,481.845 569.214,495.179 568.5,508.5C 566.822,513.568 566.156,518.902 566.5,524.5C 565.64,528.434 565.307,532.434 565.5,536.5C 564.518,540.316 563.851,544.316 563.5,548.5C 563.5,549.833 563.5,551.167 563.5,552.5C 561.96,554.838 561.294,557.505 561.5,560.5C 560.325,564.042 559.659,567.709 559.5,571.5C 557.432,574.763 556.432,578.43 556.5,582.5C 543.13,624.871 515.464,653.538 473.5,668.5C 469.468,669.082 465.801,670.416 462.5,672.5C 457.418,673.586 452.418,674.586 447.5,675.5C 444.772,675.171 442.438,675.837 440.5,677.5C 431.808,678.003 423.142,678.836 414.5,680C 413.263,680.232 412.263,680.732 411.5,681.5C 405.143,681.476 398.81,681.81 392.5,682.5C 372.666,682.921 353,683.587 333.5,684.5C 330.972,684.317 328.472,683.983 326,683.5C 319.734,684.149 313.567,684.815 307.5,685.5C 275.752,685.461 244.085,685.461 212.5,685.5C 188.714,684.268 165.047,681.768 141.5,678C 73.2039,665.94 33.0373,625.773 21,557.5C 16.5999,531.712 14.2665,505.712 14,479.5C 13.3333,392.833 13.3333,306.167 14,219.5C 14.3034,192.975 16.6367,166.641 21,140.5C 32.9197,74.58 71.7531,35.08 137.5,22C 162.189,17.4818 187.022,14.6485 212,13.5C 244.075,13.5414 276.575,13.5414 309.5,13.5 Z"/></g>
<g><path style="opacity:0.992" fill="#ce3965" d="M 309.5,13.5 C 318.167,13.5 326.833,13.5 335.5,13.5C 335.5,13.8333 335.5,14.1667 335.5,14.5C 332.972,14.6833 330.472,15.0166 328,15.5C 321.734,14.8514 315.567,14.1847 309.5,13.5 Z"/></g>
<g><path style="opacity:0.995" fill="#0476fe" d="M 356.5,13.5 C 402.701,13.5441 448.201,13.5441 493,13.5C 514.566,15.0374 536.066,17.5374 557.5,21C 628.247,34.0809 668.747,76.2476 679,147.5C 682.795,172.677 684.795,198.01 685,223.5C 685.667,307.5 685.667,391.5 685,475.5C 684.431,508.857 680.764,541.857 674,574.5C 662.348,621.482 633.848,653.315 588.5,670C 571.531,674.86 554.364,678.693 537,681.5C 536.586,681.043 536.086,680.709 535.5,680.5C 519.651,682.885 503.984,684.552 488.5,685.5C 444.266,685.478 399.933,685.478 355.5,685.5C 367.848,684.711 380.181,683.711 392.5,682.5C 398.81,681.81 405.143,681.476 411.5,681.5C 421.43,681.096 431.097,679.763 440.5,677.5C 443.067,677.279 445.401,676.612 447.5,675.5C 452.418,674.586 457.418,673.586 462.5,672.5C 465.89,671.977 469.223,671.143 472.5,670C 473.056,669.617 473.389,669.117 473.5,668.5C 515.464,653.538 543.13,624.871 556.5,582.5C 558.258,579.146 559.258,575.479 559.5,571.5C 559.659,567.709 560.325,564.042 561.5,560.5C 562.768,558.095 563.435,555.428 563.5,552.5C 563.5,551.167 563.5,549.833 563.5,548.5C 565.25,544.817 565.917,540.817 565.5,536.5C 565.307,532.434 565.64,528.434 566.5,524.5C 567.806,519.384 568.473,514.051 568.5,508.5C 569.214,495.179 569.547,481.845 569.5,468.5C 570.329,460.677 570.829,452.677 571,444.5C 571.832,380.999 571.665,317.665 570.5,254.5C 570.5,246.5 570.5,238.5 570.5,230.5C 570.666,221.494 570.5,212.494 570,203.5C 569.802,201.618 569.302,199.952 568.5,198.5C 568.167,190.5 567.833,182.5 567.5,174.5C 567.017,167.655 566.351,160.822 565.5,154C 565.431,152.014 564.765,150.514 563.5,149.5C 561.146,135.745 557.98,122.078 554,108.5C 539.017,70.0132 512.184,44.0132 473.5,30.5C 470.374,28.0103 466.708,26.677 462.5,26.5C 454.852,25.3752 447.519,23.7086 440.5,21.5C 434.066,19.85 427.4,18.85 420.5,18.5C 409.167,17.8333 397.833,17.1667 386.5,16.5C 376.539,15.0777 366.539,14.0777 356.5,13.5 Z"/></g>
<g><path style="opacity:1" fill="#ae4580" d="M 335.5,14.5 C 335.5,14.1667 335.5,13.8333 335.5,13.5C 342.5,13.5 349.5,13.5 356.5,13.5C 366.539,14.0777 376.539,15.0777 386.5,16.5C 369.48,15.9356 352.48,15.2689 335.5,14.5 Z"/></g>
<g><path style="opacity:1" fill="#7f56aa" d="M 420.5,18.5 C 427.4,18.85 434.066,19.85 440.5,21.5C 433.576,21.2812 426.91,20.2812 420.5,18.5 Z"/></g>
<g><path style="opacity:1" fill="#8a54a3" d="M 462.5,26.5 C 466.708,26.677 470.374,28.0103 473.5,30.5C 469.468,29.9178 465.801,28.5845 462.5,26.5 Z"/></g>
<g><path style="opacity:0.945" fill="#6d5dbd" d="M 563.5,149.5 C 564.765,150.514 565.431,152.014 565.5,154C 566.351,160.822 567.017,167.655 567.5,174.5C 565.738,166.366 564.405,158.033 563.5,149.5 Z"/></g>
<g><path style="opacity:1" fill="#ffbfc4" d="M 255.5,180.5 C 241.218,178.317 226.885,177.984 212.5,179.5C 226.956,175.264 241.289,175.598 255.5,180.5 Z"/></g>
<g><path style="opacity:1" fill="#fffdfe" d="M 255.5,180.5 C 326.448,204.617 388.948,242.617 443,294.5C 451.364,303.735 457.197,314.402 460.5,326.5C 460.42,329.781 461.087,332.781 462.5,335.5C 463.639,344.773 463.639,354.107 462.5,363.5C 460.898,367.239 459.898,371.239 459.5,375.5C 456.311,385.874 451.145,395.207 444,403.5C 393.001,452.065 334.834,489.065 269.5,514.5C 266.008,514.446 263.008,515.446 260.5,517.5C 215.076,529.398 180.909,515.065 158,474.5C 152.406,460.037 148.906,445.037 147.5,429.5C 147.038,424.838 146.538,420.171 146,415.5C 145.722,414.584 145.222,413.918 144.5,413.5C 144.5,411.833 144.5,410.167 144.5,408.5C 144.024,401.005 143.358,393.671 142.5,386.5C 142.5,385.833 142.5,385.167 142.5,384.5C 142.248,356.82 142.581,329.153 143.5,301.5C 143.878,285.144 145.878,269.144 149.5,253.5C 150.709,249.382 151.376,245.049 151.5,240.5C 160.86,209.14 181.193,188.807 212.5,179.5C 226.885,177.984 241.218,178.317 255.5,180.5 Z"/></g>
<g><path style="opacity:1" fill="#655bba" d="M 568.5,198.5 C 569.302,199.952 569.802,201.618 570,203.5C 570.5,212.494 570.666,221.494 570.5,230.5C 569.65,219.996 568.983,209.329 568.5,198.5 Z"/></g>
<g><path style="opacity:1" fill="#ff7f89" d="M 151.5,240.5 C 151.376,245.049 150.709,249.382 149.5,253.5C 149.28,248.9 149.946,244.567 151.5,240.5 Z"/></g>
<g><path style="opacity:1" fill="#ffa4ad" d="M 237.5,246.5 C 233.295,246.191 229.295,246.857 225.5,248.5C 225.881,247.069 226.881,246.236 228.5,246C 231.696,245.195 234.696,245.362 237.5,246.5 Z"/></g>
<g><path style="opacity:1" fill="#ff2c42" d="M 237.5,246.5 C 293.338,267.5 343.672,297.666 388.5,337C 390.439,338.432 391.772,340.265 392.5,342.5C 393.36,346.434 393.693,350.434 393.5,354.5C 390.134,359.377 386.134,363.877 381.5,368C 338.248,404.452 290.248,432.618 237.5,452.5C 233.802,452.448 230.135,452.114 226.5,451.5C 223.413,449.579 221.246,446.913 220,443.5C 217.558,433.228 215.725,422.895 214.5,412.5C 214.473,406.949 213.806,401.616 212.5,396.5C 211.866,390.855 211.532,385.189 211.5,379.5C 210.654,363.516 210.321,347.516 210.5,331.5C 211.979,321.704 212.646,311.704 212.5,301.5C 213.752,291.579 215.086,281.579 216.5,271.5C 218.138,266.752 219.138,261.752 219.5,256.5C 220.053,252.721 222.053,250.054 225.5,248.5C 229.295,246.857 233.295,246.191 237.5,246.5 Z"/></g>
<g><path style="opacity:1" fill="#ff7d89" d="M 219.5,256.5 C 219.138,261.752 218.138,266.752 216.5,271.5C 216.678,266.205 217.678,261.205 219.5,256.5 Z"/></g>
<g><path style="opacity:1" fill="#ff717c" d="M 212.5,301.5 C 212.646,311.704 211.979,321.704 210.5,331.5C 210.5,328.5 210.5,325.5 210.5,322.5C 210.768,315.317 211.435,308.317 212.5,301.5 Z"/></g>
<g><path style="opacity:1" fill="#ff9ca5" d="M 460.5,326.5 C 461.913,329.219 462.58,332.219 462.5,335.5C 461.087,332.781 460.42,329.781 460.5,326.5 Z"/></g>
<g><path style="opacity:1" fill="#ffb8bf" d="M 210.5,322.5 C 210.5,325.5 210.5,328.5 210.5,331.5C 210.321,347.516 210.654,363.516 211.5,379.5C 210.698,378.048 210.198,376.382 210,374.5C 209.171,356.995 209.338,339.662 210.5,322.5 Z"/></g>
<g><path style="opacity:1" fill="#ffbfc4" d="M 143.5,301.5 C 142.581,329.153 142.248,356.82 142.5,384.5C 140.559,363.36 140.059,342.026 141,320.5C 141.151,313.932 141.985,307.599 143.5,301.5 Z"/></g>
<g><path style="opacity:1" fill="#ff8893" d="M 392.5,342.5 C 393.117,342.611 393.617,342.944 394,343.5C 394.81,347.358 394.643,351.024 393.5,354.5C 393.693,350.434 393.36,346.434 392.5,342.5 Z"/></g>
<g><path style="opacity:1" fill="#ff929c" d="M 462.5,363.5 C 462.416,367.837 461.416,371.837 459.5,375.5C 459.898,371.239 460.898,367.239 462.5,363.5 Z"/></g>
<g><path style="opacity:1" fill="#ff7580" d="M 142.5,386.5 C 143.358,393.671 144.024,401.005 144.5,408.5C 143.778,408.082 143.278,407.416 143,406.5C 142.5,399.842 142.334,393.175 142.5,386.5 Z"/></g>
<g><path style="opacity:1" fill="#ff98a1" d="M 212.5,396.5 C 213.806,401.616 214.473,406.949 214.5,412.5C 213.043,407.402 212.376,402.069 212.5,396.5 Z"/></g>
<g><path style="opacity:1" fill="#ffa1aa" d="M 144.5,413.5 C 145.222,413.918 145.722,414.584 146,415.5C 146.538,420.171 147.038,424.838 147.5,429.5C 145.779,424.438 144.779,419.105 144.5,413.5 Z"/></g>
<g><path style="opacity:1" fill="#ffa0a9" d="M 226.5,451.5 C 230.135,452.114 233.802,452.448 237.5,452.5C 233.71,453.902 230.044,453.569 226.5,451.5 Z"/></g>
<g><path style="opacity:1" fill="#a44786" d="M 570.5,254.5 C 571.665,317.665 571.832,380.999 571,444.5C 570.829,452.677 570.329,460.677 569.5,468.5C 570.412,397.172 570.745,325.838 570.5,254.5 Z"/></g>
<g><path style="opacity:1" fill="#ff9fa7" d="M 269.5,514.5 C 266.746,515.946 263.746,516.946 260.5,517.5C 263.008,515.446 266.008,514.446 269.5,514.5 Z"/></g>
<g><path style="opacity:1" fill="#ad4580" d="M 568.5,508.5 C 568.473,514.051 567.806,519.384 566.5,524.5C 566.156,518.902 566.822,513.568 568.5,508.5 Z"/></g>
<g><path style="opacity:1" fill="#91529e" d="M 565.5,536.5 C 565.917,540.817 565.25,544.817 563.5,548.5C 563.851,544.316 564.518,540.316 565.5,536.5 Z"/></g>
<g><path style="opacity:0.996" fill="#954b92" d="M 563.5,552.5 C 563.435,555.428 562.768,558.095 561.5,560.5C 561.294,557.505 561.96,554.838 563.5,552.5 Z"/></g>
<g><path style="opacity:1" fill="#8156aa" d="M 559.5,571.5 C 559.258,575.479 558.258,579.146 556.5,582.5C 556.432,578.43 557.432,574.763 559.5,571.5 Z"/></g>
<g><path style="opacity:0.996" fill="#8d519e" d="M 473.5,668.5 C 473.389,669.117 473.056,669.617 472.5,670C 469.223,671.143 465.89,671.977 462.5,672.5C 465.801,670.416 469.468,669.082 473.5,668.5 Z"/></g>
<g><path style="opacity:1" fill="#ac4580" d="M 447.5,675.5 C 445.401,676.612 443.067,677.279 440.5,677.5C 442.438,675.837 444.772,675.171 447.5,675.5 Z"/></g>
<g><path style="opacity:1" fill="#8d53a1" d="M 440.5,677.5 C 431.097,679.763 421.43,681.096 411.5,681.5C 412.263,680.732 413.263,680.232 414.5,680C 423.142,678.836 431.808,678.003 440.5,677.5 Z"/></g>
<g><path style="opacity:0.992" fill="#cf3965" d="M 333.5,684.5 C 333.5,684.833 333.5,685.167 333.5,685.5C 324.833,685.5 316.167,685.5 307.5,685.5C 313.567,684.815 319.734,684.149 326,683.5C 328.472,683.983 330.972,684.317 333.5,684.5 Z"/></g>
<g><path style="opacity:1" fill="#a94683" d="M 392.5,682.5 C 380.181,683.711 367.848,684.711 355.5,685.5C 348.167,685.5 340.833,685.5 333.5,685.5C 333.5,685.167 333.5,684.833 333.5,684.5C 353,683.587 372.666,682.921 392.5,682.5 Z"/></g>
</svg>
