<?xml version="1.0" encoding="UTF-8"?>
<!DOCTYPE svg PUBLIC "-//W3C//DTD SVG 1.1//EN" "http://www.w3.org/Graphics/SVG/1.1/DTD/svg11.dtd">
<svg xmlns="http://www.w3.org/2000/svg" version="1.1" width="104px" height="104px" style="shape-rendering:geometricPrecision; text-rendering:geometricPrecision; image-rendering:optimizeQuality; fill-rule:evenodd; clip-rule:evenodd" xmlns:xlink="http://www.w3.org/1999/xlink">
<g><path style="opacity:0.998" fill="#070606" d="M 42.5,-0.5 C 48.5,-0.5 54.5,-0.5 60.5,-0.5C 82.7219,5.3882 97.0552,19.3882 103.5,41.5C 103.5,48.1667 103.5,54.8333 103.5,61.5C 97.1667,83.1667 83.1667,97.1667 61.5,103.5C 54.8333,103.5 48.1667,103.5 41.5,103.5C 19.8333,97.1667 5.83333,83.1667 -0.5,61.5C -0.5,54.8333 -0.5,48.1667 -0.5,41.5C 5.94478,19.3882 20.2781,5.3882 42.5,-0.5 Z"/></g>
<g><path style="opacity:0.996" fill="#d6d6d6" d="M 73.5,42.5 C 68.6923,40.7579 63.6923,40.0912 58.5,40.5C 57.8333,39.5 57.1667,38.5 56.5,37.5C 53.4649,30.1386 48.4649,28.1386 41.5,31.5C 41.736,33.9732 43.0693,35.6399 45.5,36.5C 46.8333,38.8333 46.8333,41.1667 45.5,43.5C 42.5828,40.7951 39.4161,38.4618 36,36.5C 35.5,36.8333 35,37.1667 34.5,37.5C 35.7878,39.7388 36.7878,42.0721 37.5,44.5C 35.4352,44.4828 33.4352,44.1495 31.5,43.5C 31.5,37.5 31.5,31.5 31.5,25.5C 41.5056,25.3335 51.5056,25.5002 61.5,26C 69.6003,28.5901 73.6003,34.0901 73.5,42.5 Z"/></g>
<g><path style="opacity:1" fill="#010101" d="M 56.5,37.5 C 57.1667,38.5 57.8333,39.5 58.5,40.5C 59.4285,44.483 58.0951,47.1497 54.5,48.5C 52.1667,48.5 49.8333,48.5 47.5,48.5C 47.5,47.1667 47.5,45.8333 47.5,44.5C 47.5,42.1667 47.5,39.8333 47.5,37.5C 50.5,37.5 53.5,37.5 56.5,37.5 Z"/></g>
<g><path style="opacity:1" fill="#929191" d="M 56.5,37.5 C 53.5,37.5 50.5,37.5 47.5,37.5C 47.5,39.8333 47.5,42.1667 47.5,44.5C 44.1667,44.5 40.8333,44.5 37.5,44.5C 36.7878,42.0721 35.7878,39.7388 34.5,37.5C 35,37.1667 35.5,36.8333 36,36.5C 39.4161,38.4618 42.5828,40.7951 45.5,43.5C 46.8333,41.1667 46.8333,38.8333 45.5,36.5C 43.0693,35.6399 41.736,33.9732 41.5,31.5C 48.4649,28.1386 53.4649,30.1386 56.5,37.5 Z"/></g>
<g><path style="opacity:1" fill="#0d5897" d="M 58.5,40.5 C 63.6923,40.0912 68.6923,40.7579 73.5,42.5C 73.5283,49.1095 70.5283,53.7761 64.5,56.5C 65.1925,57.5178 65.8592,58.5178 66.5,59.5C 61.6566,59.222 56.99,59.8887 52.5,61.5C 51.5,61.1667 50.8333,60.5 50.5,59.5C 48.727,56.5118 48.0604,53.1785 48.5,49.5C 50.7354,49.7947 52.7354,49.4614 54.5,48.5C 58.0951,47.1497 59.4285,44.483 58.5,40.5 Z"/></g>
<g><path style="opacity:1" fill="#0965ac" d="M 31.5,43.5 C 33.4352,44.1495 35.4352,44.4828 37.5,44.5C 39.2986,50.316 39.9653,56.316 39.5,62.5C 37.8333,62.5 36.1667,62.5 34.5,62.5C 33.5,62.5 32.5,62.5 31.5,62.5C 31.5,56.1667 31.5,49.8333 31.5,43.5 Z"/></g>
<g><path style="opacity:1" fill="#0e3d6b" d="M 37.5,44.5 C 40.8333,44.5 44.1667,44.5 47.5,44.5C 47.5,45.8333 47.5,47.1667 47.5,48.5C 49.8333,48.5 52.1667,48.5 54.5,48.5C 52.7354,49.4614 50.7354,49.7947 48.5,49.5C 48.0604,53.1785 48.727,56.5118 50.5,59.5C 49.5,59.5 48.5,59.5 47.5,59.5C 47.5,60.8333 47.5,62.1667 47.5,63.5C 47.1667,63.5 46.8333,63.5 46.5,63.5C 42.2984,63.8168 38.2984,63.4834 34.5,62.5C 36.1667,62.5 37.8333,62.5 39.5,62.5C 39.9653,56.316 39.2986,50.316 37.5,44.5 Z"/></g>
<g><path style="opacity:1" fill="#f31b2b" d="M 66.5,59.5 C 69.5697,65.3036 72.903,70.9703 76.5,76.5C 71.1977,77.6628 65.8643,77.8295 60.5,77C 57.1693,72.1719 54.5027,67.0052 52.5,61.5C 56.99,59.8887 61.6566,59.222 66.5,59.5 Z"/></g>
<g><path style="opacity:1" fill="#ec1a2a" d="M 31.5,62.5 C 32.5,62.5 33.5,62.5 34.5,62.5C 38.2984,63.4834 42.2984,63.8168 46.5,63.5C 46.5,68.1667 46.5,72.8333 46.5,77.5C 41.5,77.5 36.5,77.5 31.5,77.5C 31.5,72.5 31.5,67.5 31.5,62.5 Z"/></g>
<g><path style="opacity:1" fill="#67242a" d="M 46.5,63.5 C 46.8333,63.5 47.1667,63.5 47.5,63.5C 47.5,68.5 47.5,73.5 47.5,78.5C 41.9738,78.8214 36.6405,78.4881 31.5,77.5C 36.5,77.5 41.5,77.5 46.5,77.5C 46.5,72.8333 46.5,68.1667 46.5,63.5 Z"/></g>
</svg>
